<svg width="402" height="255" viewBox="0 0 402 255" fill="none" xmlns="http://www.w3.org/2000/svg">
<g clip-path="url(#clip0_687_3816)">
<rect y="0.248047" width="402" height="254.457" rx="13.1597" fill="#412BEA"/>
<path d="M400.378 -88.0696C420.056 -79.1791 389.287 -43.1896 108.79 29.6442C-241.831 120.686 121.091 232.882 58.3747 491.44C8.20199 698.285 231.066 403.733 348.77 230.601" stroke="#3D44E3" stroke-width="1.64496"/>
<path d="M416.913 -59.9327C436.591 -51.0421 405.822 -15.0526 125.325 57.7811C-225.296 148.823 137.626 261.019 74.9099 519.576C24.7371 726.422 247.602 431.87 365.305 258.738" stroke="#3D44E3" stroke-width="1.64496"/>
<path d="M433.45 -31.7955C453.128 -22.9049 422.36 13.0846 141.863 85.9183C-208.759 176.961 154.163 289.156 91.447 547.714C41.2743 754.559 264.139 460.007 381.842 286.875" stroke="#3D44E3" stroke-width="1.64496"/>
<path d="M449.987 -3.66144C469.665 5.2291 438.897 41.2186 158.4 114.052C-192.221 205.095 170.7 317.29 107.984 575.848C57.8114 782.694 280.676 488.141 398.379 315.009" stroke="#3D44E3" stroke-width="1.64496"/>
<path d="M466.523 24.4767C486.201 33.3673 455.433 69.3568 174.936 142.191C-175.685 233.233 187.236 345.429 124.52 603.986C74.3475 810.832 297.212 516.279 414.916 343.147" stroke="#3D44E3" stroke-width="1.64496"/>
<path d="M483.056 52.6135C502.733 61.504 471.965 97.4935 191.468 170.327C-159.153 261.369 203.768 373.565 141.052 632.123C90.8797 838.968 313.744 544.416 431.448 371.284" stroke="#3D44E3" stroke-width="1.64496"/>
<path d="M499.594 80.7499C519.272 89.6405 488.503 125.63 208.006 198.464C-142.615 289.506 220.306 401.702 157.591 660.259C107.418 867.105 330.282 572.552 447.986 399.42" stroke="#3D44E3" stroke-width="1.64496"/>
<path d="M37.0849 153.234C36.0428 153.234 35.1175 153.059 34.3091 152.709C33.5053 152.358 32.8744 151.879 32.4164 151.272C31.9631 150.659 31.7388 149.965 31.7435 149.19C31.7388 148.587 31.8697 148.033 32.136 147.528C32.4024 147.024 32.7623 146.603 33.2156 146.267C33.6735 145.926 34.1829 145.708 34.7437 145.615V145.517C34.0053 145.353 33.4072 144.977 32.9492 144.388C32.4959 143.795 32.2716 143.11 32.2762 142.334C32.2716 141.596 32.4772 140.937 32.8931 140.357C33.309 139.778 33.8791 139.322 34.6035 138.991C35.3278 138.654 36.155 138.486 37.0849 138.486C38.0056 138.486 38.8257 138.654 39.5454 138.991C40.2697 139.322 40.8398 139.778 41.2558 140.357C41.6763 140.937 41.8866 141.596 41.8866 142.334C41.8866 143.11 41.6553 143.795 41.1927 144.388C40.7347 144.977 40.1435 145.353 39.4192 145.517V145.615C39.98 145.708 40.4847 145.926 40.9333 146.267C41.3866 146.603 41.7464 147.024 42.0128 147.528C42.2838 148.033 42.4194 148.587 42.4194 149.19C42.4194 149.965 42.1904 150.659 41.7324 151.272C41.2744 151.879 40.6436 152.358 39.8398 152.709C39.0407 153.059 38.1224 153.234 37.0849 153.234ZM37.0849 151.23C37.6224 151.23 38.0897 151.138 38.4869 150.956C38.8841 150.769 39.1925 150.508 39.4122 150.171C39.6318 149.835 39.744 149.447 39.7487 149.007C39.744 148.55 39.6248 148.145 39.3912 147.795C39.1622 147.44 38.8467 147.162 38.4448 146.961C38.0476 146.76 37.5943 146.659 37.0849 146.659C36.5709 146.659 36.1129 146.76 35.711 146.961C35.3091 147.162 34.9914 147.44 34.7577 147.795C34.5287 148.145 34.4166 148.55 34.4212 149.007C34.4166 149.447 34.524 149.835 34.7437 150.171C34.9633 150.503 35.2717 150.762 35.669 150.949C36.0709 151.136 36.5429 151.23 37.0849 151.23ZM37.0849 144.689C37.5242 144.689 37.9121 144.601 38.2486 144.423C38.5897 144.246 38.8584 143.998 39.0547 143.68C39.251 143.362 39.3514 142.995 39.3561 142.58C39.3514 142.168 39.2533 141.808 39.0617 141.5C38.8701 141.187 38.6037 140.946 38.2626 140.778C37.9214 140.605 37.5289 140.519 37.0849 140.519C36.6316 140.519 36.2321 140.605 35.8863 140.778C35.5451 140.946 35.2788 141.187 35.0872 141.5C34.9002 141.808 34.8091 142.168 34.8138 142.58C34.8091 142.995 34.9026 143.362 35.0942 143.68C35.2904 143.993 35.5591 144.241 35.9003 144.423C36.2461 144.601 36.641 144.689 37.0849 144.689ZM55.6296 138.486C56.3166 138.49 56.9848 138.612 57.6344 138.85C58.2887 139.084 58.8775 139.467 59.4009 140C59.9243 140.528 60.3402 141.236 60.6486 142.124C60.957 143.012 61.1113 144.11 61.1113 145.418C61.1159 146.652 60.9851 147.755 60.7187 148.727C60.457 149.694 60.0808 150.512 59.5901 151.18C59.0995 151.849 58.5083 152.358 57.8167 152.709C57.125 153.059 56.347 153.234 55.4824 153.234C54.5758 153.234 53.772 153.057 53.0711 152.702C52.3748 152.346 51.8116 151.86 51.3817 151.244C50.9518 150.627 50.6877 149.921 50.5896 149.127H53.1482C53.279 149.697 53.5454 150.15 53.9473 150.487C54.3538 150.818 54.8656 150.984 55.4824 150.984C56.4778 150.984 57.2442 150.552 57.7816 149.687C58.319 148.823 58.5877 147.622 58.5877 146.084H58.4896C58.2606 146.496 57.9639 146.851 57.5994 147.15C57.2349 147.444 56.8213 147.671 56.3586 147.83C55.9007 147.989 55.4147 148.068 54.9006 148.068C54.0594 148.068 53.3024 147.867 52.6294 147.465C51.9612 147.063 51.4308 146.512 51.0382 145.811C50.6504 145.11 50.4541 144.309 50.4494 143.407C50.4494 142.472 50.6644 141.633 51.0943 140.89C51.5289 140.142 52.1341 139.554 52.9098 139.124C53.6856 138.689 54.5922 138.476 55.6296 138.486ZM55.6366 140.589C55.1319 140.589 54.6763 140.713 54.2697 140.96C53.8678 141.203 53.5501 141.535 53.3164 141.956C53.0874 142.372 52.9729 142.837 52.9729 143.351C52.9776 143.86 53.0921 144.323 53.3164 144.739C53.5454 145.154 53.8562 145.484 54.2487 145.727C54.6459 145.97 55.0992 146.091 55.6086 146.091C55.9871 146.091 56.3399 146.019 56.6671 145.874C56.9942 145.729 57.2793 145.528 57.5223 145.271C57.7699 145.01 57.9615 144.713 58.0971 144.381C58.2373 144.049 58.305 143.699 58.3003 143.33C58.3003 142.839 58.1835 142.386 57.9499 141.97C57.7209 141.554 57.4054 141.22 57.0035 140.967C56.6063 140.715 56.1507 140.589 55.6366 140.589ZM69.108 150.374V148.306L75.1995 138.682H76.9239V141.626H75.8724L71.7717 148.124V148.236H80.2745V150.374H69.108ZM75.9565 153.038V149.743L75.9846 148.818V138.682H78.438V153.038H75.9565ZM93.7424 153.311C92.5881 153.311 91.5974 153.019 90.7703 152.435C89.9478 151.846 89.3146 150.998 88.8706 149.891C88.4313 148.778 88.2117 147.44 88.2117 145.874C88.2164 144.309 88.4384 142.977 88.8776 141.879C89.3216 140.776 89.9548 139.934 90.7773 139.355C91.6044 138.776 92.5928 138.486 93.7424 138.486C94.892 138.486 95.8804 138.776 96.7075 139.355C97.5347 139.934 98.1679 140.776 98.6072 141.879C99.0511 142.981 99.2731 144.313 99.2731 145.874C99.2731 147.444 99.0511 148.785 98.6072 149.898C98.1679 151.005 97.5347 151.851 96.7075 152.435C95.8851 153.019 94.8967 153.311 93.7424 153.311ZM93.7424 151.117C94.6397 151.117 95.3476 150.676 95.8664 149.793C96.3898 148.905 96.6515 147.599 96.6515 145.874C96.6515 144.734 96.5323 143.776 96.294 143C96.0556 142.224 95.7192 141.64 95.2846 141.248C94.85 140.85 94.3359 140.652 93.7424 140.652C92.8498 140.652 92.1442 141.096 91.6255 141.984C91.1067 142.867 90.845 144.164 90.8404 145.874C90.8357 147.019 90.9502 147.982 91.1838 148.762C91.4222 149.543 91.7586 150.131 92.1933 150.529C92.6279 150.921 93.1442 151.117 93.7424 151.117ZM118.083 150.374V148.306L124.174 138.682H125.899V141.626H124.847L120.746 148.124V148.236H129.249V150.374H118.083ZM124.931 153.038V149.743L124.959 148.818V138.682H127.413V153.038H124.931ZM142.395 138.486C143.082 138.49 143.75 138.612 144.4 138.85C145.054 139.084 145.643 139.467 146.166 140C146.689 140.528 147.105 141.236 147.414 142.124C147.722 143.012 147.876 144.11 147.876 145.418C147.881 146.652 147.75 147.755 147.484 148.727C147.222 149.694 146.846 150.512 146.355 151.18C145.865 151.849 145.273 152.358 144.582 152.709C143.89 153.059 143.112 153.234 142.248 153.234C141.341 153.234 140.537 153.057 139.836 152.702C139.14 152.346 138.577 151.86 138.147 151.244C137.717 150.627 137.453 149.921 137.355 149.127H139.913C140.044 149.697 140.31 150.15 140.712 150.487C141.119 150.818 141.631 150.984 142.248 150.984C143.243 150.984 144.009 150.552 144.547 149.687C145.084 148.823 145.353 147.622 145.353 146.084H145.255C145.026 146.496 144.729 146.851 144.364 147.15C144 147.444 143.586 147.671 143.124 147.83C142.666 147.989 142.18 148.068 141.666 148.068C140.825 148.068 140.067 147.867 139.395 147.465C138.726 147.063 138.196 146.512 137.803 145.811C137.415 145.11 137.219 144.309 137.215 143.407C137.215 142.472 137.429 141.633 137.859 140.89C138.294 140.142 138.899 139.554 139.675 139.124C140.451 138.689 141.357 138.476 142.395 138.486ZM142.402 140.589C141.897 140.589 141.441 140.713 141.035 140.96C140.633 141.203 140.315 141.535 140.082 141.956C139.853 142.372 139.738 142.837 139.738 143.351C139.743 143.86 139.857 144.323 140.082 144.739C140.31 145.154 140.621 145.484 141.014 145.727C141.411 145.97 141.864 146.091 142.374 146.091C142.752 146.091 143.105 146.019 143.432 145.874C143.759 145.729 144.044 145.528 144.287 145.271C144.535 145.01 144.727 144.713 144.862 144.381C145.002 144.049 145.07 143.699 145.065 143.33C145.065 142.839 144.949 142.386 144.715 141.97C144.486 141.554 144.171 141.22 143.769 140.967C143.371 140.715 142.916 140.589 142.402 140.589ZM155.873 150.374V148.306L161.965 138.682H163.689V141.626H162.638L158.537 148.124V148.236H167.04V150.374H155.873ZM162.722 153.038V149.743L162.75 148.818V138.682H165.203V153.038H162.722ZM180.192 153.234C179.257 153.234 178.421 153.059 177.683 152.709C176.944 152.353 176.358 151.867 175.923 151.251C175.493 150.634 175.264 149.928 175.236 149.134H177.76C177.806 149.722 178.061 150.204 178.524 150.578C178.986 150.947 179.543 151.131 180.192 151.131C180.701 151.131 181.155 151.015 181.552 150.781C181.949 150.547 182.262 150.222 182.491 149.807C182.72 149.391 182.832 148.916 182.828 148.384C182.832 147.842 182.718 147.36 182.484 146.94C182.251 146.519 181.931 146.19 181.524 145.951C181.117 145.708 180.65 145.587 180.122 145.587C179.692 145.582 179.269 145.661 178.853 145.825C178.437 145.989 178.108 146.204 177.865 146.47L175.517 146.084L176.267 138.682H184.594V140.855H178.419L178.005 144.661H178.089C178.356 144.348 178.732 144.089 179.218 143.883C179.704 143.673 180.236 143.568 180.816 143.568C181.685 143.568 182.461 143.774 183.143 144.185C183.825 144.591 184.363 145.152 184.755 145.867C185.148 146.582 185.344 147.4 185.344 148.321C185.344 149.269 185.125 150.115 184.685 150.858C184.251 151.596 183.646 152.178 182.87 152.603C182.099 153.024 181.206 153.234 180.192 153.234ZM209.423 153.234C208.489 153.234 207.652 153.059 206.914 152.709C206.176 152.353 205.589 151.867 205.155 151.251C204.725 150.634 204.496 149.928 204.468 149.134H206.991C207.038 149.722 207.293 150.204 207.755 150.578C208.218 150.947 208.774 151.131 209.423 151.131C209.933 151.131 210.386 151.015 210.783 150.781C211.181 150.547 211.494 150.222 211.723 149.807C211.952 149.391 212.064 148.916 212.059 148.384C212.064 147.842 211.949 147.36 211.716 146.94C211.482 146.519 211.162 146.19 210.755 145.951C210.349 145.708 209.881 145.587 209.353 145.587C208.923 145.582 208.501 145.661 208.085 145.825C207.669 145.989 207.339 146.204 207.096 146.47L204.748 146.084L205.498 138.682H213.826V140.855H207.65L207.236 144.661H207.321C207.587 144.348 207.963 144.089 208.449 143.883C208.935 143.673 209.468 143.568 210.047 143.568C210.917 143.568 211.692 143.774 212.375 144.185C213.057 144.591 213.594 145.152 213.987 145.867C214.379 146.582 214.576 147.4 214.576 148.321C214.576 149.269 214.356 150.115 213.917 150.858C213.482 151.596 212.877 152.178 212.101 152.603C211.33 153.024 210.438 153.234 209.423 153.234ZM222.586 150.374V148.306L228.678 138.682H230.402V141.626H229.351L225.25 148.124V148.236H233.753V150.374H222.586ZM229.435 153.038V149.743L229.463 148.818V138.682H231.916V153.038H229.435ZM246.898 138.486C247.585 138.49 248.254 138.612 248.903 138.85C249.557 139.084 250.146 139.467 250.67 140C251.193 140.528 251.609 141.236 251.917 142.124C252.226 143.012 252.38 144.11 252.38 145.418C252.385 146.652 252.254 147.755 251.987 148.727C251.726 149.694 251.35 150.512 250.859 151.18C250.368 151.849 249.777 152.358 249.085 152.709C248.394 153.059 247.616 153.234 246.751 153.234C245.845 153.234 245.041 153.057 244.34 152.702C243.644 152.346 243.08 151.86 242.65 151.244C242.221 150.627 241.957 149.921 241.858 149.127H244.417C244.548 149.697 244.814 150.15 245.216 150.487C245.623 150.818 246.134 150.984 246.751 150.984C247.747 150.984 248.513 150.552 249.05 149.687C249.588 148.823 249.857 147.622 249.857 146.084H249.758C249.529 146.496 249.233 146.851 248.868 147.15C248.504 147.444 248.09 147.671 247.627 147.83C247.169 147.989 246.683 148.068 246.169 148.068C245.328 148.068 244.571 147.867 243.898 147.465C243.23 147.063 242.7 146.512 242.307 145.811C241.919 145.11 241.723 144.309 241.718 143.407C241.718 142.472 241.933 141.633 242.363 140.89C242.798 140.142 243.403 139.554 244.179 139.124C244.954 138.689 245.861 138.476 246.898 138.486ZM246.905 140.589C246.401 140.589 245.945 140.713 245.539 140.96C245.137 141.203 244.819 141.535 244.585 141.956C244.356 142.372 244.242 142.837 244.242 143.351C244.246 143.86 244.361 144.323 244.585 144.739C244.814 145.154 245.125 145.484 245.517 145.727C245.915 145.97 246.368 146.091 246.877 146.091C247.256 146.091 247.609 146.019 247.936 145.874C248.263 145.729 248.548 145.528 248.791 145.271C249.039 145.01 249.23 144.713 249.366 144.381C249.506 144.049 249.574 143.699 249.569 143.33C249.569 142.839 249.452 142.386 249.219 141.97C248.99 141.554 248.674 141.22 248.272 140.967C247.875 140.715 247.419 140.589 246.905 140.589ZM265.62 138.486C266.307 138.49 266.975 138.612 267.625 138.85C268.279 139.084 268.868 139.467 269.391 140C269.915 140.528 270.331 141.236 270.639 142.124C270.948 143.012 271.102 144.11 271.102 145.418C271.106 146.652 270.976 147.755 270.709 148.727C270.447 149.694 270.071 150.512 269.581 151.18C269.09 151.849 268.499 152.358 267.807 152.709C267.116 153.059 266.337 153.234 265.473 153.234C264.566 153.234 263.762 153.057 263.062 152.702C262.365 152.346 261.802 151.86 261.372 151.244C260.942 150.627 260.678 149.921 260.58 149.127H263.139C263.269 149.697 263.536 150.15 263.938 150.487C264.344 150.818 264.856 150.984 265.473 150.984C266.468 150.984 267.235 150.552 267.772 149.687C268.309 148.823 268.578 147.622 268.578 146.084H268.48C268.251 146.496 267.954 146.851 267.59 147.15C267.225 147.444 266.812 147.671 266.349 147.83C265.891 147.989 265.405 148.068 264.891 148.068C264.05 148.068 263.293 147.867 262.62 147.465C261.952 147.063 261.421 146.512 261.029 145.811C260.641 145.11 260.445 144.309 260.44 143.407C260.44 142.472 260.655 141.633 261.085 140.89C261.519 140.142 262.125 139.554 262.9 139.124C263.676 138.689 264.583 138.476 265.62 138.486ZM265.627 140.589C265.122 140.589 264.667 140.713 264.26 140.96C263.858 141.203 263.541 141.535 263.307 141.956C263.078 142.372 262.963 142.837 262.963 143.351C262.968 143.86 263.083 144.323 263.307 144.739C263.536 145.154 263.847 145.484 264.239 145.727C264.636 145.97 265.09 146.091 265.599 146.091C265.978 146.091 266.33 146.019 266.658 145.874C266.985 145.729 267.27 145.528 267.513 145.271C267.76 145.01 267.952 144.713 268.088 144.381C268.228 144.049 268.295 143.699 268.291 143.33C268.291 142.839 268.174 142.386 267.94 141.97C267.711 141.554 267.396 141.22 266.994 140.967C266.597 140.715 266.141 140.589 265.627 140.589ZM295.16 138.486C295.847 138.49 296.515 138.612 297.165 138.85C297.819 139.084 298.408 139.467 298.931 140C299.455 140.528 299.87 141.236 300.179 142.124C300.487 143.012 300.642 144.11 300.642 145.418C300.646 146.652 300.515 147.755 300.249 148.727C299.987 149.694 299.611 150.512 299.12 151.18C298.63 151.849 298.039 152.358 297.347 152.709C296.655 153.059 295.877 153.234 295.013 153.234C294.106 153.234 293.302 153.057 292.601 152.702C291.905 152.346 291.342 151.86 290.912 151.244C290.482 150.627 290.218 149.921 290.12 149.127H292.678C292.809 149.697 293.076 150.15 293.478 150.487C293.884 150.818 294.396 150.984 295.013 150.984C296.008 150.984 296.775 150.552 297.312 149.687C297.849 148.823 298.118 147.622 298.118 146.084H298.02C297.791 146.496 297.494 146.851 297.13 147.15C296.765 147.444 296.352 147.671 295.889 147.83C295.431 147.989 294.945 148.068 294.431 148.068C293.59 148.068 292.833 147.867 292.16 147.465C291.491 147.063 290.961 146.512 290.569 145.811C290.181 145.11 289.984 144.309 289.98 143.407C289.98 142.472 290.195 141.633 290.625 140.89C291.059 140.142 291.664 139.554 292.44 139.124C293.216 138.689 294.122 138.476 295.16 138.486ZM295.167 140.589C294.662 140.589 294.207 140.713 293.8 140.96C293.398 141.203 293.08 141.535 292.847 141.956C292.618 142.372 292.503 142.837 292.503 143.351C292.508 143.86 292.622 144.323 292.847 144.739C293.076 145.154 293.386 145.484 293.779 145.727C294.176 145.97 294.63 146.091 295.139 146.091C295.517 146.091 295.87 146.019 296.197 145.874C296.524 145.729 296.81 145.528 297.053 145.271C297.3 145.01 297.492 144.713 297.627 144.381C297.768 144.049 297.835 143.699 297.831 143.33C297.831 142.839 297.714 142.386 297.48 141.97C297.251 141.554 296.936 141.22 296.534 140.967C296.137 140.715 295.681 140.589 295.167 140.589ZM313.889 153.234C312.954 153.234 312.117 153.059 311.379 152.709C310.641 152.353 310.054 151.867 309.62 151.251C309.19 150.634 308.961 149.928 308.933 149.134H311.456C311.503 149.722 311.758 150.204 312.22 150.578C312.683 150.947 313.239 151.131 313.889 151.131C314.398 151.131 314.851 151.015 315.249 150.781C315.646 150.547 315.959 150.222 316.188 149.807C316.417 149.391 316.529 148.916 316.524 148.384C316.529 147.842 316.414 147.36 316.181 146.94C315.947 146.519 315.627 146.19 315.22 145.951C314.814 145.708 314.347 145.587 313.819 145.587C313.389 145.582 312.966 145.661 312.55 145.825C312.134 145.989 311.804 146.204 311.561 146.47L309.213 146.084L309.963 138.682H318.291V140.855H312.115L311.702 144.661H311.786C312.052 144.348 312.428 144.089 312.914 143.883C313.4 143.673 313.933 143.568 314.512 143.568C315.382 143.568 316.157 143.774 316.84 144.185C317.522 144.591 318.059 145.152 318.452 145.867C318.845 146.582 319.041 147.4 319.041 148.321C319.041 149.269 318.821 150.115 318.382 150.858C317.947 151.596 317.342 152.178 316.566 152.603C315.795 153.024 314.903 153.234 313.889 153.234ZM332.295 138.486C332.982 138.49 333.65 138.612 334.3 138.85C334.954 139.084 335.543 139.467 336.066 140C336.589 140.528 337.005 141.236 337.314 142.124C337.622 143.012 337.776 144.11 337.776 145.418C337.781 146.652 337.65 147.755 337.384 148.727C337.122 149.694 336.746 150.512 336.255 151.18C335.765 151.849 335.174 152.358 334.482 152.709C333.79 153.059 333.012 153.234 332.148 153.234C331.241 153.234 330.437 153.057 329.736 152.702C329.04 152.346 328.477 151.86 328.047 151.244C327.617 150.627 327.353 149.921 327.255 149.127H329.813C329.944 149.697 330.211 150.15 330.613 150.487C331.019 150.818 331.531 150.984 332.148 150.984C333.143 150.984 333.909 150.552 334.447 149.687C334.984 148.823 335.253 147.622 335.253 146.084H335.155C334.926 146.496 334.629 146.851 334.265 147.15C333.9 147.444 333.487 147.671 333.024 147.83C332.566 147.989 332.08 148.068 331.566 148.068C330.725 148.068 329.968 147.867 329.295 147.465C328.626 147.063 328.096 146.512 327.703 145.811C327.316 145.11 327.119 144.309 327.115 143.407C327.115 142.472 327.33 141.633 327.76 140.89C328.194 140.142 328.799 139.554 329.575 139.124C330.351 138.689 331.257 138.476 332.295 138.486ZM332.302 140.589C331.797 140.589 331.342 140.713 330.935 140.96C330.533 141.203 330.215 141.535 329.982 141.956C329.753 142.372 329.638 142.837 329.638 143.351C329.643 143.86 329.757 144.323 329.982 144.739C330.211 145.154 330.521 145.484 330.914 145.727C331.311 145.97 331.764 146.091 332.274 146.091C332.652 146.091 333.005 146.019 333.332 145.874C333.659 145.729 333.944 145.528 334.187 145.271C334.435 145.01 334.627 144.713 334.762 144.381C334.902 144.049 334.97 143.699 334.966 143.33C334.966 142.839 334.849 142.386 334.615 141.97C334.386 141.554 334.071 141.22 333.669 140.967C333.272 140.715 332.816 140.589 332.302 140.589ZM351.024 153.234C350.089 153.234 349.252 153.059 348.514 152.709C347.776 152.353 347.189 151.867 346.755 151.251C346.325 150.634 346.096 149.928 346.068 149.134H348.591C348.638 149.722 348.893 150.204 349.355 150.578C349.818 150.947 350.374 151.131 351.024 151.131C351.533 151.131 351.986 151.015 352.383 150.781C352.781 150.547 353.094 150.222 353.323 149.807C353.552 149.391 353.664 148.916 353.659 148.384C353.664 147.842 353.549 147.36 353.316 146.94C353.082 146.519 352.762 146.19 352.355 145.951C351.949 145.708 351.482 145.587 350.953 145.587C350.524 145.582 350.101 145.661 349.685 145.825C349.269 145.989 348.939 146.204 348.696 146.47L346.348 146.084L347.098 138.682H355.426V140.855H349.25L348.836 144.661H348.921C349.187 144.348 349.563 144.089 350.049 143.883C350.535 143.673 351.068 143.568 351.647 143.568C352.517 143.568 353.292 143.774 353.975 144.185C354.657 144.591 355.194 145.152 355.587 145.867C355.979 146.582 356.176 147.4 356.176 148.321C356.176 149.269 355.956 150.115 355.517 150.858C355.082 151.596 354.477 152.178 353.701 152.603C352.93 153.024 352.038 153.234 351.024 153.234Z" fill="white"/>
<path d="M376.34 58.2706L376.34 32.0358C376.34 28.6562 373.036 25.9077 368.974 25.9077L332.389 25.9077C328.325 25.9077 325.021 28.657 325.021 32.0358L325.021 58.2706C325.021 61.6501 328.326 64.3971 332.389 64.3971L368.974 64.3971C373.036 64.3963 376.34 61.6493 376.34 58.2706ZM332.389 63.9057C328.651 63.9057 325.612 61.3774 325.612 58.2706L325.612 32.0358C325.612 28.9274 328.651 26.3991 332.389 26.3991L368.974 26.3991C372.709 26.3991 375.749 28.9274 375.749 32.0358L375.749 58.2706C375.749 61.3774 372.709 63.9057 368.974 63.9057L332.389 63.9057Z" fill="#3F3F46"/>
<path d="M368.972 63.9059L332.387 63.9059C330.591 63.9054 328.868 63.3119 327.597 62.2557C326.327 61.1995 325.612 59.767 325.61 58.2729L325.61 32.036C325.61 28.9277 328.65 26.3994 332.387 26.3994L368.972 26.3994C372.707 26.3994 375.747 28.9277 375.747 32.036L375.747 58.2729C375.747 61.3777 372.707 63.9059 368.972 63.9059Z" fill="url(#paint0_linear_687_3816)"/>
<path d="M325.119 53.812L325.119 53.3206L341.966 53.3206C343.082 53.3195 344.152 52.9502 344.942 52.2936C345.731 51.637 346.175 50.7468 346.177 49.8182L346.177 40.4856C346.175 39.5571 345.731 38.6668 344.942 38.0103C344.152 37.3537 343.082 36.9843 341.966 36.9833L325.119 36.9833L325.119 36.4915L341.966 36.4915C343.239 36.4927 344.459 36.9139 345.36 37.6627C346.26 38.4115 346.766 39.4267 346.768 40.4856L346.768 49.8182C346.766 50.8771 346.26 51.8923 345.36 52.641C344.459 53.3897 343.239 53.8109 341.966 53.812L325.119 53.812Z" fill="black"/>
<path d="M356.551 49.8182L356.552 40.4856C356.553 39.4267 357.059 38.4114 357.96 37.6626C358.86 36.9138 360.081 36.4926 361.354 36.4915L376.316 36.4915L376.316 36.9833L361.354 36.9833C360.237 36.9842 359.167 37.3535 358.377 38.0101C357.588 38.6667 357.144 39.557 357.142 40.4856L357.142 49.8182C357.144 50.7468 357.588 51.6371 358.377 52.2936C359.167 52.9502 360.237 53.3195 361.354 53.3206L376.316 53.3206L376.316 53.812L361.354 53.812C360.081 53.811 358.86 53.3899 357.96 52.6411C357.059 51.8924 356.553 50.8772 356.551 49.8182Z" fill="black"/>
<path d="M356.839 41.1689L356.839 40.6775L346.467 40.6775L346.467 41.1689L356.839 41.1689Z" fill="black"/>
<path d="M356.85 49.6311L356.85 49.1396L346.478 49.1396L346.478 49.6311L356.85 49.6311Z" fill="black"/>
<path d="M338.437 64.1544L338.438 53.5698L337.847 53.5698L337.847 64.1544L338.437 64.1544Z" fill="black"/>
<path d="M338.437 36.7381L338.438 26.1531L337.847 26.1531L337.847 36.7381L338.437 36.7381Z" fill="black"/>
<path d="M364.613 64.1513L364.613 53.5667L364.022 53.5667L364.022 64.1513L364.613 64.1513Z" fill="black"/>
<path d="M364.613 36.7381L364.613 26.1531L364.022 26.1531L364.022 36.7381L364.613 36.7381Z" fill="black"/>
<path d="M376.046 45.4421L376.046 44.9507L356.846 44.9507L356.846 45.4421L376.046 45.4421Z" fill="black"/>
<path d="M346.282 45.4433L346.282 44.9519L325.112 44.9519L325.112 45.4433L346.282 45.4433Z" fill="black"/>
<rect width="412.336" height="76.7647" transform="translate(0 184.483)" fill="#0F124A"/>
<path d="M348.193 209.934H362.426V235.796H348.193V209.934Z" fill="#FF5F00"/>
<path d="M349.099 222.866C349.099 217.611 351.539 212.95 355.289 209.935C352.533 207.741 349.054 206.416 345.258 206.416C336.267 206.416 328.992 213.773 328.992 222.866C328.992 231.959 336.267 239.315 345.258 239.315C349.054 239.315 352.533 237.99 355.289 235.797C351.539 232.827 349.099 228.12 349.099 222.866Z" fill="#EB001B"/>
<path d="M381.632 222.866C381.632 231.959 374.357 239.315 365.366 239.315C361.57 239.315 358.091 237.99 355.335 235.797C359.13 232.781 361.525 228.12 361.525 222.866C361.525 217.611 359.085 212.95 355.335 209.935C358.091 207.741 361.57 206.416 365.366 206.416C374.357 206.416 381.632 213.819 381.632 222.866H381.632Z" fill="#F79E1B"/>
<path d="M36.2126 216.83H38.219V224.681C38.2153 225.401 38.0627 226.02 37.761 226.54C37.4593 227.056 37.0377 227.454 36.4961 227.734C35.9582 228.01 35.3312 228.149 34.6152 228.149C33.9609 228.149 33.3721 228.032 32.8487 227.8C32.3289 227.563 31.9164 227.214 31.6111 226.753C31.3058 226.291 31.1531 225.717 31.1531 225.03H33.1649C33.1686 225.332 33.234 225.592 33.3612 225.81C33.492 226.028 33.672 226.195 33.9009 226.311C34.1299 226.427 34.3935 226.486 34.6915 226.486C35.015 226.486 35.2894 226.418 35.5148 226.284C35.7401 226.146 35.9109 225.942 36.0272 225.673C36.1472 225.404 36.209 225.074 36.2126 224.681V216.83ZM41.1811 227.996V216.83H48.4432V218.526H43.2038V221.557H48.067V223.253H43.2038V226.3H48.4868V227.996H41.1811ZM57.3425 219.9C57.2917 219.423 57.0772 219.053 56.6992 218.787C56.3248 218.522 55.8378 218.389 55.238 218.389C54.8164 218.389 54.4548 218.453 54.1531 218.58C53.8514 218.707 53.6206 218.88 53.4607 219.098C53.3008 219.316 53.219 219.565 53.2153 219.845C53.2153 220.078 53.268 220.279 53.3735 220.45C53.4825 220.621 53.6297 220.766 53.8151 220.886C54.0004 221.003 54.2058 221.101 54.4311 221.181C54.6565 221.261 54.8837 221.328 55.1127 221.383L56.1594 221.644C56.5811 221.742 56.9863 221.875 57.3752 222.042C57.7678 222.209 58.1185 222.42 58.4275 222.675C58.7401 222.929 58.9872 223.236 59.169 223.596C59.3507 223.956 59.4416 224.378 59.4416 224.861C59.4416 225.515 59.2744 226.091 58.94 226.589C58.6056 227.084 58.1222 227.471 57.4897 227.751C56.8609 228.027 56.0995 228.165 55.2053 228.165C54.3366 228.165 53.5824 228.03 52.9427 227.761C52.3067 227.492 51.8087 227.1 51.4489 226.584C51.0927 226.068 50.9 225.439 50.871 224.697H52.861C52.89 225.086 53.01 225.41 53.2208 225.668C53.4316 225.926 53.706 226.119 54.0441 226.246C54.3857 226.373 54.7674 226.437 55.189 226.437C55.6288 226.437 56.0141 226.371 56.3448 226.24C56.6792 226.106 56.9409 225.92 57.1299 225.684C57.3189 225.444 57.4152 225.164 57.4189 224.845C57.4152 224.554 57.3298 224.314 57.1626 224.125C56.9954 223.932 56.761 223.772 56.4593 223.645C56.1613 223.514 55.8123 223.398 55.4125 223.296L54.1422 222.969C53.2226 222.733 52.4957 222.375 51.9614 221.895C51.4307 221.412 51.1654 220.77 51.1654 219.97C51.1654 219.313 51.3435 218.736 51.6997 218.242C52.0595 217.748 52.5484 217.364 53.1663 217.092C53.7842 216.816 54.4839 216.677 55.2653 216.677C56.0577 216.677 56.7519 216.816 57.348 217.092C57.9477 217.364 58.4184 217.744 58.7601 218.231C59.1017 218.715 59.278 219.271 59.2889 219.9H57.3425ZM68.0806 219.9C68.0297 219.423 67.8153 219.053 67.4373 218.787C67.0629 218.522 66.5758 218.389 65.9761 218.389C65.5545 218.389 65.1928 218.453 64.8912 218.58C64.5895 218.707 64.3587 218.88 64.1987 219.098C64.0388 219.316 63.957 219.565 63.9534 219.845C63.9534 220.078 64.0061 220.279 64.1115 220.45C64.2206 220.621 64.3678 220.766 64.5531 220.886C64.7385 221.003 64.9439 221.101 65.1692 221.181C65.3946 221.261 65.6217 221.328 65.8507 221.383L66.8975 221.644C67.3191 221.742 67.7244 221.875 68.1133 222.042C68.5059 222.209 68.8566 222.42 69.1656 222.675C69.4781 222.929 69.7253 223.236 69.907 223.596C70.0888 223.956 70.1796 224.378 70.1796 224.861C70.1796 225.515 70.0124 226.091 69.678 226.589C69.3437 227.084 68.8602 227.471 68.2278 227.751C67.599 228.027 66.8375 228.165 65.9434 228.165C65.0747 228.165 64.3205 228.03 63.6808 227.761C63.0447 227.492 62.5468 227.1 62.1869 226.584C61.8307 226.068 61.6381 225.439 61.609 224.697H63.599C63.6281 225.086 63.748 225.41 63.9589 225.668C64.1697 225.926 64.4441 226.119 64.7821 226.246C65.1238 226.373 65.5054 226.437 65.927 226.437C66.3668 226.437 66.7521 226.371 67.0829 226.24C67.4173 226.106 67.679 225.92 67.868 225.684C68.057 225.444 68.1533 225.164 68.1569 224.845C68.1533 224.554 68.0679 224.314 67.9007 224.125C67.7335 223.932 67.499 223.772 67.1974 223.645C66.8993 223.514 66.5504 223.398 66.1506 223.296L64.8803 222.969C63.9607 222.733 63.2337 222.375 62.6994 221.895C62.1688 221.412 61.9034 220.77 61.9034 219.97C61.9034 219.313 62.0815 218.736 62.4377 218.242C62.7976 217.748 63.2864 217.364 63.9043 217.092C64.5222 216.816 65.2219 216.677 66.0034 216.677C66.7957 216.677 67.49 216.816 68.0861 217.092C68.6858 217.364 69.1565 217.744 69.4981 218.231C69.8398 218.715 70.0161 219.271 70.027 219.9H68.0806ZM74.7732 216.83V227.996H72.7505V216.83H74.7732ZM87.2887 220.597H85.2496C85.1915 220.263 85.0842 219.967 84.9279 219.709C84.7717 219.447 84.5772 219.225 84.3446 219.044C84.112 218.862 83.8466 218.726 83.5486 218.635C83.2542 218.54 82.9361 218.493 82.5945 218.493C81.9875 218.493 81.4495 218.646 80.9807 218.951C80.5118 219.253 80.1447 219.696 79.8794 220.281C79.614 220.863 79.4814 221.573 79.4814 222.413C79.4814 223.267 79.614 223.987 79.8794 224.572C80.1483 225.154 80.5154 225.593 80.9807 225.891C81.4495 226.186 81.9857 226.333 82.589 226.333C82.9234 226.333 83.236 226.289 83.5268 226.202C83.8212 226.111 84.0847 225.979 84.3173 225.804C84.5536 225.63 84.7517 225.415 84.9116 225.161C85.0751 224.906 85.1878 224.616 85.2496 224.288L87.2887 224.299C87.2123 224.83 87.047 225.328 86.7925 225.793C86.5417 226.258 86.2128 226.669 85.8057 227.025C85.3986 227.378 84.9225 227.654 84.3773 227.854C83.8321 228.05 83.2269 228.149 82.5618 228.149C81.5804 228.149 80.7044 227.921 79.9339 227.467C79.1633 227.013 78.5563 226.357 78.1129 225.499C77.6695 224.641 77.4477 223.612 77.4477 222.413C77.4477 221.21 77.6713 220.181 78.1183 219.327C78.5654 218.469 79.1742 217.813 79.9448 217.359C80.7153 216.905 81.5877 216.677 82.5618 216.677C83.1833 216.677 83.7612 216.765 84.2955 216.939C84.8298 217.114 85.306 217.37 85.7239 217.708C86.1419 218.042 86.4854 218.453 86.7544 218.94C87.027 219.423 87.2051 219.976 87.2887 220.597ZM91.2076 227.996H89.0486L92.9795 216.83H95.4766L99.4129 227.996H97.2539L94.2716 219.12H94.1844L91.2076 227.996ZM91.2785 223.618H97.1667V225.243H91.2785V223.618ZM106.227 227.996V216.83H108.25V221.96H108.386L112.742 216.83H115.212L110.894 221.84L115.25 227.996H112.819L109.487 223.209L108.25 224.67V227.996H106.227ZM119.408 216.83V227.996H117.385V216.83H119.408ZM122.366 216.83H124.841L128.156 224.921H128.287L131.601 216.83H134.077V227.996H132.136V220.325H132.032L128.946 227.963H127.496L124.41 220.308H124.307V227.996H122.366V216.83ZM137.047 227.996V216.83H141.321C142.128 216.83 142.799 216.957 143.333 217.212C143.871 217.463 144.273 217.806 144.538 218.242C144.807 218.678 144.942 219.173 144.942 219.725C144.942 220.179 144.854 220.568 144.68 220.892C144.505 221.212 144.271 221.472 143.977 221.671C143.682 221.871 143.353 222.015 142.99 222.102V222.211C143.386 222.233 143.766 222.355 144.129 222.577C144.496 222.795 144.796 223.104 145.029 223.503C145.261 223.903 145.378 224.387 145.378 224.954C145.378 225.532 145.238 226.051 144.958 226.513C144.678 226.971 144.256 227.333 143.693 227.598C143.13 227.863 142.421 227.996 141.567 227.996H137.047ZM139.07 226.306H141.245C141.979 226.306 142.508 226.166 142.832 225.886C143.159 225.602 143.322 225.239 143.322 224.796C143.322 224.465 143.24 224.167 143.077 223.901C142.913 223.632 142.681 223.422 142.379 223.269C142.077 223.113 141.718 223.034 141.3 223.034H139.07V226.306ZM139.07 221.579H141.071C141.42 221.579 141.734 221.515 142.014 221.388C142.294 221.257 142.514 221.074 142.673 220.837C142.837 220.597 142.919 220.314 142.919 219.987C142.919 219.554 142.766 219.198 142.461 218.918C142.159 218.638 141.71 218.498 141.114 218.498H139.07V221.579ZM147.905 227.996V216.83H155.167V218.526H149.928V221.557H154.791V223.253H149.928V226.3H155.211V227.996H147.905ZM157.998 227.996V216.83H162.186C163.043 216.83 163.763 216.979 164.345 217.277C164.93 217.575 165.371 217.993 165.669 218.531C165.971 219.065 166.122 219.689 166.122 220.401C166.122 221.117 165.969 221.739 165.664 222.266C165.362 222.789 164.917 223.194 164.328 223.482C163.739 223.765 163.016 223.907 162.158 223.907H159.176V222.228H161.886C162.387 222.228 162.798 222.159 163.118 222.02C163.438 221.879 163.674 221.673 163.827 221.404C163.983 221.132 164.061 220.797 164.061 220.401C164.061 220.005 163.983 219.667 163.827 219.387C163.67 219.104 163.432 218.889 163.112 218.744C162.793 218.595 162.38 218.52 161.875 218.52H160.021V227.996H157.998ZM163.767 222.936L166.531 227.996H164.274L161.559 222.936H163.767ZM168.751 227.996V216.83H170.774V226.3H175.692V227.996H168.751ZM176.327 216.83H178.612L181.343 221.77H181.452L184.184 216.83H186.468L182.406 223.83V227.996H180.389V223.83L176.327 216.83Z" fill="white"/>
<path d="M262.147 216.83V227.996H260.124V218.798H260.059L257.447 220.467V218.613L260.223 216.83H262.147ZM265.75 227.996V226.535L269.626 222.735C269.997 222.36 270.306 222.028 270.553 221.737C270.8 221.446 270.986 221.164 271.109 220.892C271.233 220.619 271.295 220.328 271.295 220.02C271.295 219.667 271.215 219.365 271.055 219.114C270.895 218.86 270.675 218.664 270.395 218.526C270.115 218.388 269.797 218.318 269.441 218.318C269.074 218.318 268.752 218.395 268.476 218.547C268.2 218.696 267.985 218.909 267.832 219.185C267.683 219.462 267.609 219.791 267.609 220.172H265.684C265.684 219.463 265.846 218.847 266.17 218.324C266.493 217.801 266.938 217.395 267.505 217.108C268.076 216.821 268.73 216.677 269.468 216.677C270.217 216.677 270.875 216.817 271.442 217.097C272.009 217.377 272.449 217.761 272.761 218.248C273.077 218.735 273.235 219.291 273.235 219.916C273.235 220.334 273.155 220.745 272.996 221.148C272.836 221.552 272.554 221.999 272.151 222.489C271.751 222.98 271.189 223.574 270.466 224.272L268.541 226.229V226.306H273.404V227.996H265.75ZM280.633 216.307L277.034 229.675H275.306L278.904 216.307H280.633ZM282.638 227.996V226.535L286.514 222.735C286.885 222.36 287.194 222.028 287.441 221.737C287.688 221.446 287.874 221.164 287.997 220.892C288.121 220.619 288.183 220.328 288.183 220.02C288.183 219.667 288.103 219.365 287.943 219.114C287.783 218.86 287.563 218.664 287.283 218.526C287.003 218.388 286.685 218.318 286.329 218.318C285.962 218.318 285.64 218.395 285.364 218.547C285.088 218.696 284.873 218.909 284.721 219.185C284.572 219.462 284.497 219.791 284.497 220.172H282.573C282.573 219.463 282.734 218.847 283.058 218.324C283.381 217.801 283.827 217.395 284.394 217.108C284.964 216.821 285.618 216.677 286.356 216.677C287.105 216.677 287.763 216.817 288.33 217.097C288.897 217.377 289.337 217.761 289.649 218.248C289.966 218.735 290.124 219.291 290.124 219.916C290.124 220.334 290.044 220.745 289.884 221.148C289.724 221.552 289.442 221.999 289.039 222.489C288.639 222.98 288.077 223.574 287.354 224.272L285.429 226.229V226.306H290.293V227.996H282.638ZM296.91 228.149C296.1 228.149 295.38 228.012 294.751 227.74C294.126 227.467 293.636 227.094 293.279 226.622C292.927 226.146 292.752 225.606 292.756 225.003C292.752 224.534 292.854 224.103 293.061 223.711C293.268 223.318 293.548 222.991 293.901 222.729C294.257 222.464 294.653 222.295 295.089 222.222V222.146C294.515 222.019 294.05 221.726 293.694 221.268C293.341 220.806 293.167 220.274 293.17 219.671C293.167 219.096 293.327 218.584 293.65 218.133C293.974 217.682 294.417 217.328 294.98 217.07C295.544 216.808 296.187 216.677 296.91 216.677C297.626 216.677 298.264 216.808 298.824 217.07C299.387 217.328 299.831 217.682 300.154 218.133C300.481 218.584 300.645 219.096 300.645 219.671C300.645 220.274 300.465 220.806 300.105 221.268C299.749 221.726 299.289 222.019 298.726 222.146V222.222C299.162 222.295 299.555 222.464 299.904 222.729C300.256 222.991 300.536 223.318 300.743 223.711C300.954 224.103 301.059 224.534 301.059 225.003C301.059 225.606 300.881 226.146 300.525 226.622C300.169 227.094 299.678 227.467 299.053 227.74C298.432 228.012 297.717 228.149 296.91 228.149ZM296.91 226.589C297.328 226.589 297.692 226.518 298.001 226.377C298.31 226.231 298.55 226.028 298.72 225.766C298.891 225.504 298.979 225.203 298.982 224.861C298.979 224.505 298.886 224.19 298.704 223.918C298.526 223.641 298.281 223.425 297.968 223.269C297.659 223.113 297.307 223.034 296.91 223.034C296.511 223.034 296.154 223.113 295.842 223.269C295.529 223.425 295.282 223.641 295.1 223.918C294.922 224.19 294.835 224.505 294.839 224.861C294.835 225.203 294.919 225.504 295.089 225.766C295.26 226.024 295.5 226.226 295.809 226.371C296.122 226.517 296.489 226.589 296.91 226.589ZM296.91 221.502C297.252 221.502 297.554 221.433 297.815 221.295C298.081 221.157 298.29 220.965 298.442 220.717C298.595 220.47 298.673 220.185 298.677 219.861C298.673 219.542 298.597 219.262 298.448 219.022C298.299 218.778 298.092 218.591 297.826 218.46C297.561 218.326 297.256 218.259 296.91 218.259C296.558 218.259 296.247 218.326 295.978 218.46C295.713 218.591 295.506 218.778 295.357 219.022C295.211 219.262 295.14 219.542 295.144 219.861C295.14 220.185 295.213 220.47 295.362 220.717C295.515 220.961 295.724 221.154 295.989 221.295C296.258 221.433 296.565 221.502 296.91 221.502Z" fill="white"/>
</g>
<defs>
<linearGradient id="paint0_linear_687_3816" x1="350.679" y1="21.9591" x2="350.679" y2="83.8796" gradientUnits="userSpaceOnUse">
<stop stop-color="#F3EC58"/>
<stop offset="0.4" stop-color="#F6CA45"/>
<stop offset="0.77" stop-color="#F9B036"/>
<stop offset="1" stop-color="#FAA631"/>
</linearGradient>
<clipPath id="clip0_687_3816">
<rect y="0.248047" width="402" height="254.457" rx="13.1597" fill="white"/>
</clipPath>
</defs>
</svg>
