<svg width="331" height="203" viewBox="0 0 331 203" fill="none" xmlns="http://www.w3.org/2000/svg">
<path opacity="0.83" d="M159.882 61.5015C145.057 46.39 124.472 36.9467 101.639 36.7287C78.805 36.5107 58.0368 45.5753 42.9368 60.3885C27.8367 75.2016 18.382 95.7978 18.164 118.631C17.946 141.465 27.0106 162.233 41.8238 177.333C56.6369 192.433 77.2331 201.888 100.067 202.106C122.9 202.324 143.669 193.259 158.769 178.446C173.88 163.622 183.323 143.037 183.541 120.203C183.759 97.3697 174.695 76.6129 159.882 61.5015Z" fill="url(#paint0_radial_691_3632)" fill-opacity="0.5"/>
<path d="M8.59392 108.247C8.36444 132.136 17.8421 153.868 33.3552 169.68C48.8683 185.491 70.4053 195.382 94.2945 195.611L95.1207 109.085L8.59392 108.247Z" fill="#FFBB38"/>
<path d="M42.6264 108.568C42.4888 123.072 48.2373 136.256 57.6576 145.848C67.0664 155.44 80.1355 161.441 94.6389 161.579L95.1437 109.073L42.6264 108.568Z" fill="#FFB11F"/>
<path d="M28.5019 41.1692C11.1185 58.2198 0.252432 81.9025 0 108.167L95.1324 109.073L96.0389 13.941C69.763 13.6886 45.8852 24.1186 28.5019 41.1692Z" fill="#4C78FF"/>
<path d="M58.359 71.5873C48.7666 80.9961 42.7656 94.0652 42.6279 108.569L95.1338 109.073L95.6386 56.5676C81.1353 56.4299 67.9514 62.1785 58.359 71.5873Z" fill="#3464F3"/>
<path d="M172.996 32.6785C153.444 12.7478 126.296 0.286854 96.1652 0L95.1211 109.074L204.195 110.118C204.493 79.9865 192.548 52.5976 172.996 32.6785Z" fill="#16DBCC"/>
<path d="M132.607 72.2987C123.198 62.7063 110.129 56.7053 95.626 56.5676L95.1211 109.073L147.627 109.578C147.776 95.075 142.028 81.8911 132.607 72.2987Z" fill="#1EC6B8"/>
<path d="M95.1325 109.073L94.3867 186.868C115.866 187.075 135.395 178.549 149.612 164.608C163.828 150.667 172.721 131.299 172.916 109.819L95.1325 109.073Z" fill="#FF82AC"/>
<path opacity="0.08" d="M95.0518 117.53L95.1322 109.073L8.60541 108.247C8.58247 111.104 8.69721 113.927 8.93817 116.704L95.0518 117.53Z" fill="url(#paint1_linear_691_3632)"/>
<path d="M95.1328 109.073L94.6279 161.579C109.131 161.717 122.315 155.968 131.908 146.559C141.5 137.151 147.501 124.081 147.639 109.578L95.1328 109.073Z" fill="#FF6195"/>
<path opacity="0.83" d="M129.945 90.8296C123.198 83.9566 113.835 79.6537 103.439 79.5505C93.0436 79.4472 83.6003 83.5779 76.7273 90.3133C69.8543 97.0601 65.5514 106.423 65.4482 116.819C65.3449 127.214 69.4756 136.657 76.211 143.53C82.9578 150.404 92.3207 154.706 102.716 154.81C113.112 154.913 122.555 150.782 129.428 144.047C136.301 137.3 140.604 127.937 140.707 117.541C140.811 107.146 136.691 97.7026 129.945 90.8296Z" fill="url(#paint2_radial_691_3632)" fill-opacity="0.5"/>
<path d="M121.993 82.7173C115.247 75.8442 105.884 71.5414 95.488 71.4382C85.0924 71.3349 75.6491 75.4656 68.7761 82.2009C61.9031 88.9478 57.6003 98.3107 57.497 108.706C57.3937 119.102 61.5244 128.545 68.2598 135.418C75.0066 142.291 84.3695 146.594 94.7651 146.697C105.161 146.801 114.604 142.67 121.477 135.935C128.35 129.188 132.653 119.825 132.756 109.429C132.859 99.0336 128.74 89.5903 121.993 82.7173Z" fill="white"/>
<circle cx="234.7" cy="43.5549" r="7.5" fill="#4C78FF"/>
<path d="M258.93 49.0549H255.399V38.1458H259.042C260.111 38.1458 261.029 38.3642 261.796 38.801C262.563 39.2343 263.151 39.8575 263.559 40.6707C263.971 41.4804 264.177 42.4516 264.177 43.5844C264.177 44.7208 263.969 45.6973 263.554 46.5141C263.142 47.3309 262.545 47.9594 261.764 48.3997C260.983 48.8365 260.038 49.0549 258.93 49.0549ZM257.045 47.6167H258.84C259.671 47.6167 260.361 47.4605 260.912 47.148C261.462 46.8319 261.874 46.3756 262.148 45.779C262.421 45.1789 262.558 44.4473 262.558 43.5844C262.558 42.7286 262.421 42.0024 262.148 41.4058C261.878 40.8092 261.475 40.3564 260.938 40.0475C260.402 39.7385 259.736 39.5841 258.941 39.5841H257.045V47.6167ZM266.224 49.0549V38.1458H270.219C270.993 38.1458 271.634 38.2737 272.142 38.5294C272.65 38.7815 273.03 39.1242 273.282 39.5574C273.534 39.9871 273.66 40.4718 273.66 41.0116C273.66 41.4662 273.577 41.8497 273.41 42.1622C273.243 42.4711 273.019 42.7197 272.738 42.9079C272.461 43.0926 272.156 43.2275 271.822 43.3127V43.4193C272.184 43.437 272.538 43.5542 272.882 43.7708C273.23 43.9839 273.518 44.2875 273.745 44.6817C273.972 45.0759 274.086 45.5553 274.086 46.1199C274.086 46.6774 273.955 47.1782 273.692 47.622C273.433 48.0624 273.031 48.4122 272.488 48.6714C271.945 48.9271 271.251 49.0549 270.405 49.0549H266.224ZM267.87 47.6434H270.246C271.034 47.6434 271.599 47.4907 271.939 47.1853C272.28 46.8799 272.451 46.4981 272.451 46.04C272.451 45.6956 272.364 45.3795 272.19 45.0919C272.016 44.8042 271.767 44.5752 271.444 44.4047C271.124 44.2343 270.744 44.149 270.304 44.149H267.87V47.6434ZM267.87 42.8653H270.075C270.444 42.8653 270.776 42.7943 271.071 42.6522C271.369 42.5102 271.606 42.3113 271.78 42.0556C271.957 41.7964 272.046 41.491 272.046 41.1394C272.046 40.6885 271.888 40.3103 271.572 40.0049C271.256 39.6995 270.771 39.5468 270.118 39.5468H267.87V42.8653ZM276.038 49.0549V38.1458H277.684V47.638H282.627V49.0549H276.038ZM288.475 49.0549V38.1458H292.47C293.244 38.1458 293.885 38.2737 294.393 38.5294C294.901 38.7815 295.281 39.1242 295.533 39.5574C295.785 39.9871 295.911 40.4718 295.911 41.0116C295.911 41.4662 295.828 41.8497 295.661 42.1622C295.494 42.4711 295.27 42.7197 294.989 42.9079C294.712 43.0926 294.407 43.2275 294.073 43.3127V43.4193C294.435 43.437 294.789 43.5542 295.133 43.7708C295.481 43.9839 295.769 44.2875 295.996 44.6817C296.223 45.0759 296.337 45.5553 296.337 46.1199C296.337 46.6774 296.206 47.1782 295.943 47.622C295.684 48.0624 295.282 48.4122 294.739 48.6714C294.196 48.9271 293.502 49.0549 292.656 49.0549H288.475ZM290.121 47.6434H292.497C293.285 47.6434 293.85 47.4907 294.19 47.1853C294.531 46.8799 294.702 46.4981 294.702 46.04C294.702 45.6956 294.615 45.3795 294.441 45.0919C294.267 44.8042 294.018 44.5752 293.695 44.4047C293.375 44.2343 292.995 44.149 292.555 44.149H290.121V47.6434ZM290.121 42.8653H292.326C292.695 42.8653 293.027 42.7943 293.322 42.6522C293.62 42.5102 293.857 42.3113 294.031 42.0556C294.208 41.7964 294.297 41.491 294.297 41.1394C294.297 40.6885 294.139 40.3103 293.823 40.0049C293.507 39.6995 293.022 39.5468 292.369 39.5468H290.121V42.8653ZM300.543 49.236C300.024 49.236 299.555 49.1402 299.136 48.9484C298.717 48.7531 298.385 48.4708 298.14 48.1015C297.899 47.7321 297.778 47.2794 297.778 46.7431C297.778 46.2815 297.867 45.9015 298.044 45.6032C298.222 45.3049 298.462 45.0688 298.763 44.8948C299.065 44.7208 299.403 44.5894 299.775 44.5006C300.148 44.4118 300.528 44.3443 300.915 44.2982C301.405 44.2414 301.803 44.1952 302.109 44.1597C302.414 44.1206 302.636 44.0585 302.774 43.9733C302.913 43.888 302.982 43.7495 302.982 43.5578V43.5205C302.982 43.0553 302.851 42.6948 302.588 42.4392C302.329 42.1835 301.942 42.0556 301.427 42.0556C300.891 42.0556 300.468 42.1746 300.159 42.4125C299.854 42.6469 299.642 42.9079 299.525 43.1956L298.028 42.8546C298.206 42.3575 298.465 41.9562 298.806 41.6508C299.15 41.3419 299.546 41.1181 299.994 40.9796C300.441 40.8376 300.912 40.7666 301.405 40.7666C301.732 40.7666 302.078 40.8056 302.444 40.8838C302.813 40.9583 303.158 41.0968 303.478 41.2992C303.801 41.5017 304.065 41.7911 304.271 42.1675C304.477 42.5404 304.58 43.0251 304.58 43.6217V49.0549H303.025V47.9363H302.961C302.858 48.1423 302.703 48.3447 302.497 48.5436C302.291 48.7424 302.027 48.9076 301.704 49.039C301.381 49.1703 300.994 49.236 300.543 49.236ZM300.889 47.9576C301.329 47.9576 301.706 47.8706 302.018 47.6966C302.334 47.5226 302.574 47.2953 302.737 47.0148C302.904 46.7307 302.987 46.4271 302.987 46.1039V45.0492C302.931 45.1061 302.821 45.1593 302.657 45.2091C302.497 45.2552 302.315 45.2961 302.109 45.3316C301.903 45.3635 301.702 45.3937 301.507 45.4221C301.311 45.447 301.148 45.4683 301.017 45.486C300.708 45.5251 300.425 45.5908 300.17 45.6831C299.918 45.7755 299.715 45.9086 299.562 46.0826C299.413 46.2531 299.339 46.4804 299.339 46.7644C299.339 47.1586 299.484 47.4569 299.775 47.6593C300.067 47.8582 300.438 47.9576 300.889 47.9576ZM308.294 44.197V49.0549H306.702V40.8731H308.23V42.2048H308.331C308.52 41.7716 308.814 41.4235 309.216 41.1608C309.621 40.898 310.13 40.7666 310.744 40.7666C311.302 40.7666 311.79 40.8838 312.209 41.1181C312.628 41.349 312.953 41.6934 313.184 42.1515C313.415 42.6096 313.53 43.176 313.53 43.8507V49.0549H311.938V44.0425C311.938 43.4495 311.783 42.986 311.474 42.6522C311.165 42.3149 310.741 42.1462 310.201 42.1462C309.832 42.1462 309.503 42.2261 309.216 42.3859C308.932 42.5457 308.706 42.7801 308.539 43.089C308.376 43.3944 308.294 43.7637 308.294 44.197ZM317.131 46.2797L317.121 44.3355H317.398L320.657 40.8731H322.564L318.846 44.8149H318.596L317.131 46.2797ZM315.666 49.0549V38.1458H317.259V49.0549H315.666ZM320.833 49.0549L317.904 45.1664L319.001 44.0532L322.788 49.0549H320.833Z" fill="#3D3D3D"/>
<circle cx="234.7" cy="81.5549" r="7.5" fill="#FF82AC"/>
<path d="M255.399 87.0549V76.1458H259.394C260.168 76.1458 260.809 76.2737 261.317 76.5294C261.824 76.7815 262.204 77.1242 262.457 77.5574C262.709 77.9871 262.835 78.4718 262.835 79.0116C262.835 79.4662 262.751 79.8497 262.584 80.1622C262.418 80.4711 262.194 80.7197 261.913 80.9079C261.636 81.0926 261.331 81.2275 260.997 81.3127V81.4193C261.359 81.437 261.713 81.5542 262.057 81.7708C262.405 81.9839 262.693 82.2875 262.92 82.6817C263.147 83.0759 263.261 83.5553 263.261 84.1199C263.261 84.6774 263.13 85.1782 262.867 85.622C262.608 86.0624 262.206 86.4122 261.663 86.6714C261.12 86.9271 260.425 87.0549 259.58 87.0549H255.399ZM257.045 85.6434H259.42C260.209 85.6434 260.773 85.4907 261.114 85.1853C261.455 84.8799 261.626 84.4981 261.626 84.04C261.626 83.6956 261.539 83.3795 261.365 83.0919C261.191 82.8042 260.942 82.5752 260.619 82.4047C260.299 82.2343 259.919 82.149 259.479 82.149H257.045V85.6434ZM257.045 80.8653H259.25C259.619 80.8653 259.951 80.7943 260.246 80.6522C260.544 80.5102 260.78 80.3113 260.954 80.0556C261.132 79.7964 261.221 79.491 261.221 79.1394C261.221 78.6885 261.063 78.3103 260.747 78.0049C260.431 77.6995 259.946 77.5468 259.293 77.5468H257.045V80.8653ZM265.213 87.0549V76.1458H269.102C269.947 76.1458 270.648 76.2914 271.206 76.5826C271.767 76.8738 272.186 77.2769 272.463 77.7918C272.74 78.3032 272.878 78.8944 272.878 79.5656C272.878 80.2332 272.738 80.8209 272.457 81.3287C272.18 81.833 271.761 82.2254 271.2 82.5059C270.643 82.7865 269.941 82.9267 269.096 82.9267H266.151V81.5098H268.947C269.48 81.5098 269.913 81.4335 270.247 81.2808C270.584 81.1281 270.831 80.9061 270.987 80.6149C271.144 80.3238 271.222 79.974 271.222 79.5656C271.222 79.1537 271.142 78.7968 270.982 78.4949C270.826 78.1931 270.579 77.9622 270.242 77.8024C269.908 77.6391 269.469 77.5574 268.926 77.5574H266.859V87.0549H265.213ZM270.598 82.1331L273.294 87.0549H271.419L268.777 82.1331H270.598ZM283.942 79.6934H282.28C282.216 79.3383 282.097 79.0258 281.923 78.7559C281.749 78.486 281.536 78.257 281.284 78.0688C281.032 77.8806 280.749 77.7385 280.437 77.6426C280.128 77.5468 279.799 77.4988 279.451 77.4988C278.823 77.4988 278.26 77.6568 277.763 77.9729C277.269 78.289 276.879 78.7524 276.591 79.3632C276.307 79.974 276.165 80.7197 276.165 81.6004C276.165 82.4882 276.307 83.2375 276.591 83.8483C276.879 84.4591 277.271 84.9207 277.768 85.2332C278.265 85.5457 278.825 85.7019 279.446 85.7019C279.791 85.7019 280.117 85.6558 280.426 85.5635C280.739 85.4676 281.021 85.3273 281.273 85.1426C281.525 84.958 281.738 84.7325 281.912 84.4662C282.09 84.1963 282.212 83.8873 282.28 83.5393L283.942 83.5446C283.853 84.0809 283.681 84.5745 283.425 85.0255C283.173 85.4729 282.848 85.86 282.45 86.1867C282.056 86.5098 281.605 86.7602 281.097 86.9377C280.59 87.1153 280.036 87.2041 279.435 87.2041C278.491 87.2041 277.649 86.9804 276.911 86.5329C276.172 86.0819 275.59 85.4374 275.163 84.5993C274.741 83.7613 274.53 82.7616 274.53 81.6004C274.53 80.4356 274.743 79.436 275.169 78.6015C275.595 77.7634 276.177 77.1206 276.916 76.6732C277.655 76.2222 278.494 75.9967 279.435 75.9967C280.014 75.9967 280.554 76.0801 281.055 76.247C281.559 76.4104 282.012 76.6519 282.413 76.9715C282.814 77.2875 283.146 77.6746 283.409 78.1327C283.672 78.5872 283.85 79.1075 283.942 79.6934ZM289.881 87.0549V76.1458H293.876C294.65 76.1458 295.291 76.2737 295.799 76.5294C296.307 76.7815 296.687 77.1242 296.939 77.5574C297.191 77.9871 297.317 78.4718 297.317 79.0116C297.317 79.4662 297.234 79.8497 297.067 80.1622C296.9 80.4711 296.676 80.7197 296.396 80.9079C296.119 81.0926 295.813 81.2275 295.479 81.3127V81.4193C295.842 81.437 296.195 81.5542 296.54 81.7708C296.888 81.9839 297.175 82.2875 297.402 82.6817C297.63 83.0759 297.743 83.5553 297.743 84.1199C297.743 84.6774 297.612 85.1782 297.349 85.622C297.09 86.0624 296.689 86.4122 296.145 86.6714C295.602 86.9271 294.908 87.0549 294.063 87.0549H289.881ZM291.527 85.6434H293.903C294.691 85.6434 295.256 85.4907 295.597 85.1853C295.938 84.8799 296.108 84.4981 296.108 84.04C296.108 83.6956 296.021 83.3795 295.847 83.0919C295.673 82.8042 295.424 82.5752 295.101 82.4047C294.782 82.2343 294.402 82.149 293.961 82.149H291.527V85.6434ZM291.527 80.8653H293.732C294.102 80.8653 294.434 80.7943 294.728 80.6522C295.027 80.5102 295.263 80.3113 295.437 80.0556C295.614 79.7964 295.703 79.491 295.703 79.1394C295.703 78.6885 295.545 78.3103 295.229 78.0049C294.913 77.6995 294.428 77.5468 293.775 77.5468H291.527V80.8653ZM301.949 87.236C301.43 87.236 300.962 87.1402 300.543 86.9484C300.123 86.7531 299.791 86.4708 299.546 86.1015C299.305 85.7321 299.184 85.2794 299.184 84.7431C299.184 84.2815 299.273 83.9015 299.451 83.6032C299.628 83.3049 299.868 83.0688 300.17 82.8948C300.472 82.7208 300.809 82.5894 301.182 82.5006C301.555 82.4118 301.935 82.3443 302.322 82.2982C302.812 82.2414 303.209 82.1952 303.515 82.1597C303.82 82.1206 304.042 82.0585 304.181 81.9733C304.319 81.888 304.388 81.7495 304.388 81.5578V81.5205C304.388 81.0553 304.257 80.6948 303.994 80.4392C303.735 80.1835 303.348 80.0556 302.833 80.0556C302.297 80.0556 301.874 80.1746 301.565 80.4125C301.26 80.6469 301.049 80.9079 300.931 81.1956L299.435 80.8546C299.612 80.3575 299.871 79.9562 300.212 79.6508C300.557 79.3419 300.953 79.1181 301.4 78.9796C301.848 78.8376 302.318 78.7666 302.812 78.7666C303.138 78.7666 303.485 78.8056 303.85 78.8838C304.22 78.9583 304.564 79.0968 304.884 79.2992C305.207 79.5017 305.472 79.7911 305.677 80.1675C305.883 80.5404 305.986 81.0251 305.986 81.6217V87.0549H304.431V85.9363H304.367C304.264 86.1423 304.11 86.3447 303.904 86.5436C303.698 86.7424 303.433 86.9076 303.11 87.039C302.787 87.1703 302.4 87.236 301.949 87.236ZM302.295 85.9576C302.735 85.9576 303.112 85.8706 303.424 85.6966C303.74 85.5226 303.98 85.2953 304.143 85.0148C304.31 84.7307 304.394 84.4271 304.394 84.1039V83.0492C304.337 83.1061 304.227 83.1593 304.063 83.2091C303.904 83.2552 303.721 83.2961 303.515 83.3316C303.309 83.3635 303.108 83.3937 302.913 83.4221C302.718 83.447 302.554 83.4683 302.423 83.486C302.114 83.5251 301.832 83.5908 301.576 83.6831C301.324 83.7755 301.121 83.9086 300.969 84.0826C300.82 84.2531 300.745 84.4804 300.745 84.7644C300.745 85.1586 300.891 85.4569 301.182 85.6593C301.473 85.8582 301.844 85.9576 302.295 85.9576ZM309.7 82.197V87.0549H308.108V78.8731H309.637V80.2048H309.738C309.926 79.7716 310.221 79.4235 310.622 79.1608C311.027 78.898 311.536 78.7666 312.151 78.7666C312.708 78.7666 313.197 78.8838 313.616 79.1181C314.035 79.349 314.36 79.6934 314.59 80.1515C314.821 80.6096 314.937 81.176 314.937 81.8507V87.0549H313.344V82.0425C313.344 81.4495 313.189 80.986 312.881 80.6522C312.572 80.3149 312.147 80.1462 311.607 80.1462C311.238 80.1462 310.91 80.2261 310.622 80.3859C310.338 80.5457 310.112 80.7801 309.945 81.089C309.782 81.3944 309.7 81.7637 309.7 82.197ZM318.537 84.2797L318.527 82.3355H318.804L322.064 78.8731H323.971L320.253 82.8149H320.002L318.537 84.2797ZM317.073 87.0549V76.1458H318.665V87.0549H317.073ZM322.24 87.0549L319.31 83.1664L320.407 82.0532L324.194 87.0549H322.24Z" fill="#3D3D3D"/>
<circle cx="234.7" cy="119.555" r="7.5" fill="#FFBB38"/>
<path d="M255.399 114.146H257.396L260.869 122.626H260.997L264.47 114.146H266.468V125.055H264.902V117.161H264.8L261.583 125.039H260.283L257.066 117.155H256.965V125.055H255.399V114.146ZM277.921 117.693H276.259C276.195 117.338 276.077 117.026 275.903 116.756C275.729 116.486 275.515 116.257 275.263 116.069C275.011 115.881 274.729 115.739 274.416 115.643C274.107 115.547 273.779 115.499 273.431 115.499C272.802 115.499 272.24 115.657 271.742 115.973C271.249 116.289 270.858 116.752 270.57 117.363C270.286 117.974 270.144 118.72 270.144 119.6C270.144 120.488 270.286 121.237 270.57 121.848C270.858 122.459 271.251 122.921 271.748 123.233C272.245 123.546 272.804 123.702 273.426 123.702C273.77 123.702 274.097 123.656 274.406 123.563C274.718 123.468 275.001 123.327 275.253 123.143C275.505 122.958 275.718 122.732 275.892 122.466C276.069 122.196 276.192 121.887 276.259 121.539L277.921 121.545C277.833 122.081 277.66 122.574 277.405 123.025C277.153 123.473 276.828 123.86 276.43 124.187C276.036 124.51 275.585 124.76 275.077 124.938C274.569 125.115 274.015 125.204 273.415 125.204C272.47 125.204 271.629 124.98 270.89 124.533C270.151 124.082 269.569 123.437 269.143 122.599C268.72 121.761 268.509 120.762 268.509 119.6C268.509 118.436 268.722 117.436 269.148 116.601C269.574 115.763 270.157 115.121 270.895 114.673C271.634 114.222 272.474 113.997 273.415 113.997C273.994 113.997 274.534 114.08 275.034 114.247C275.539 114.41 275.991 114.652 276.393 114.971C276.794 115.288 277.126 115.675 277.389 116.133C277.651 116.587 277.829 117.107 277.921 117.693ZM279.891 125.055V114.146H283.779C284.628 114.146 285.331 114.3 285.889 114.609C286.446 114.918 286.864 115.341 287.141 115.877C287.418 116.41 287.556 117.01 287.556 117.677C287.556 118.349 287.416 118.952 287.135 119.489C286.858 120.021 286.439 120.444 285.878 120.756C285.321 121.065 284.619 121.22 283.774 121.22H281.1V119.824H283.625C284.161 119.824 284.596 119.732 284.93 119.547C285.264 119.359 285.509 119.103 285.665 118.78C285.821 118.457 285.899 118.089 285.899 117.677C285.899 117.266 285.821 116.9 285.665 116.58C285.509 116.261 285.262 116.01 284.925 115.829C284.591 115.648 284.15 115.557 283.604 115.557H281.537V125.055H279.891ZM293.455 125.055V114.146H297.45C298.225 114.146 298.866 114.274 299.373 114.529C299.881 114.781 300.261 115.124 300.513 115.557C300.765 115.987 300.891 116.472 300.891 117.012C300.891 117.466 300.808 117.85 300.641 118.162C300.474 118.471 300.25 118.72 299.97 118.908C299.693 119.093 299.388 119.228 299.054 119.313V119.419C299.416 119.437 299.769 119.554 300.114 119.771C300.462 119.984 300.749 120.288 300.977 120.682C301.204 121.076 301.318 121.555 301.318 122.12C301.318 122.677 301.186 123.178 300.923 123.622C300.664 124.062 300.263 124.412 299.72 124.671C299.176 124.927 298.482 125.055 297.637 125.055H293.455ZM295.101 123.643H297.477C298.265 123.643 298.83 123.491 299.171 123.185C299.512 122.88 299.682 122.498 299.682 122.04C299.682 121.696 299.595 121.38 299.421 121.092C299.247 120.804 298.999 120.575 298.676 120.405C298.356 120.234 297.976 120.149 297.536 120.149H295.101V123.643ZM295.101 118.865H297.307C297.676 118.865 298.008 118.794 298.303 118.652C298.601 118.51 298.837 118.311 299.011 118.056C299.189 117.796 299.277 117.491 299.277 117.139C299.277 116.688 299.119 116.31 298.803 116.005C298.487 115.699 298.003 115.547 297.349 115.547H295.101V118.865ZM305.523 125.236C305.005 125.236 304.536 125.14 304.117 124.948C303.698 124.753 303.366 124.471 303.121 124.101C302.879 123.732 302.758 123.279 302.758 122.743C302.758 122.281 302.847 121.902 303.025 121.603C303.202 121.305 303.442 121.069 303.744 120.895C304.046 120.721 304.383 120.589 304.756 120.501C305.129 120.412 305.509 120.344 305.896 120.298C306.386 120.241 306.784 120.195 307.089 120.16C307.394 120.121 307.616 120.058 307.755 119.973C307.893 119.888 307.963 119.75 307.963 119.558V119.52C307.963 119.055 307.831 118.695 307.568 118.439C307.309 118.183 306.922 118.056 306.407 118.056C305.871 118.056 305.448 118.175 305.139 118.413C304.834 118.647 304.623 118.908 304.506 119.196L303.009 118.855C303.186 118.357 303.446 117.956 303.786 117.651C304.131 117.342 304.527 117.118 304.974 116.98C305.422 116.838 305.892 116.767 306.386 116.767C306.713 116.767 307.059 116.806 307.425 116.884C307.794 116.958 308.138 117.097 308.458 117.299C308.781 117.502 309.046 117.791 309.252 118.168C309.458 118.54 309.561 119.025 309.561 119.622V125.055H308.005V123.936H307.941C307.838 124.142 307.684 124.345 307.478 124.544C307.272 124.742 307.007 124.908 306.684 125.039C306.361 125.17 305.974 125.236 305.523 125.236ZM305.869 123.958C306.31 123.958 306.686 123.871 306.998 123.697C307.315 123.523 307.554 123.295 307.718 123.015C307.884 122.731 307.968 122.427 307.968 122.104V121.049C307.911 121.106 307.801 121.159 307.638 121.209C307.478 121.255 307.295 121.296 307.089 121.332C306.883 121.364 306.682 121.394 306.487 121.422C306.292 121.447 306.128 121.468 305.997 121.486C305.688 121.525 305.406 121.591 305.15 121.683C304.898 121.775 304.696 121.909 304.543 122.083C304.394 122.253 304.319 122.48 304.319 122.764C304.319 123.159 304.465 123.457 304.756 123.659C305.047 123.858 305.418 123.958 305.869 123.958ZM313.275 120.197V125.055H311.682V116.873H313.211V118.205H313.312C313.5 117.772 313.795 117.424 314.196 117.161C314.601 116.898 315.111 116.767 315.725 116.767C316.282 116.767 316.771 116.884 317.19 117.118C317.609 117.349 317.934 117.693 318.165 118.152C318.395 118.61 318.511 119.176 318.511 119.851V125.055H316.918V120.043C316.918 119.449 316.764 118.986 316.455 118.652C316.146 118.315 315.721 118.146 315.182 118.146C314.812 118.146 314.484 118.226 314.196 118.386C313.912 118.546 313.687 118.78 313.52 119.089C313.356 119.394 313.275 119.764 313.275 120.197ZM322.112 122.28L322.101 120.335H322.378L325.638 116.873H327.545L323.827 120.815H323.577L322.112 122.28ZM320.647 125.055V114.146H322.24V125.055H320.647ZM325.814 125.055L322.884 121.166L323.981 120.053L327.769 125.055H325.814Z" fill="#3D3D3D"/>
<circle cx="234.7" cy="157.555" r="7.5" fill="#16DBCC"/>
<path d="M256.32 163.055H254.573L258.499 152.146H260.4L264.326 163.055H262.579L259.495 154.127H259.41L256.32 163.055ZM256.613 158.783H262.281V160.168H256.613V158.783ZM265.902 163.055V152.146H269.897C270.671 152.146 271.312 152.274 271.82 152.529C272.327 152.781 272.707 153.124 272.96 153.557C273.212 153.987 273.338 154.472 273.338 155.012C273.338 155.466 273.254 155.85 273.087 156.162C272.92 156.471 272.697 156.72 272.416 156.908C272.139 157.093 271.834 157.228 271.5 157.313V157.419C271.862 157.437 272.216 157.554 272.56 157.771C272.908 157.984 273.196 158.288 273.423 158.682C273.65 159.076 273.764 159.555 273.764 160.12C273.764 160.677 273.632 161.178 273.37 161.622C273.11 162.062 272.709 162.412 272.166 162.671C271.623 162.927 270.928 163.055 270.083 163.055H265.902ZM267.548 161.643H269.923C270.712 161.643 271.276 161.491 271.617 161.185C271.958 160.88 272.129 160.498 272.129 160.04C272.129 159.696 272.042 159.38 271.868 159.092C271.694 158.804 271.445 158.575 271.122 158.405C270.802 158.234 270.422 158.149 269.982 158.149H267.548V161.643ZM267.548 156.865H269.753C270.122 156.865 270.454 156.794 270.749 156.652C271.047 156.51 271.283 156.311 271.457 156.056C271.635 155.796 271.724 155.491 271.724 155.139C271.724 154.688 271.566 154.31 271.25 154.005C270.934 153.699 270.449 153.547 269.795 153.547H267.548V156.865ZM275.716 152.146H277.714L281.187 160.626H281.314L284.787 152.146H286.785V163.055H285.219V155.161H285.118L281.9 163.039H280.601L277.383 155.155H277.282V163.055H275.716V152.146ZM293.148 163.055V152.146H297.143C297.917 152.146 298.558 152.274 299.066 152.529C299.574 152.781 299.953 153.124 300.206 153.557C300.458 153.987 300.584 154.472 300.584 155.012C300.584 155.466 300.5 155.85 300.333 156.162C300.167 156.471 299.943 156.72 299.662 156.908C299.385 157.093 299.08 157.228 298.746 157.313V157.419C299.108 157.437 299.462 157.554 299.806 157.771C300.154 157.984 300.442 158.288 300.669 158.682C300.896 159.076 301.01 159.555 301.01 160.12C301.01 160.677 300.879 161.178 300.616 161.622C300.357 162.062 299.955 162.412 299.412 162.671C298.869 162.927 298.174 163.055 297.329 163.055H293.148ZM294.794 161.643H297.169C297.958 161.643 298.522 161.491 298.863 161.185C299.204 160.88 299.375 160.498 299.375 160.04C299.375 159.696 299.288 159.38 299.114 159.092C298.94 158.804 298.691 158.575 298.368 158.405C298.048 158.234 297.668 158.149 297.228 158.149H294.794V161.643ZM294.794 156.865H296.999C297.368 156.865 297.7 156.794 297.995 156.652C298.293 156.51 298.529 156.311 298.703 156.056C298.881 155.796 298.97 155.491 298.97 155.139C298.97 154.688 298.812 154.31 298.496 154.005C298.18 153.699 297.695 153.547 297.042 153.547H294.794V156.865ZM305.215 163.236C304.697 163.236 304.228 163.14 303.809 162.948C303.39 162.753 303.058 162.471 302.813 162.101C302.572 161.732 302.451 161.279 302.451 160.743C302.451 160.281 302.54 159.902 302.717 159.603C302.895 159.305 303.134 159.069 303.436 158.895C303.738 158.721 304.075 158.589 304.448 158.501C304.821 158.412 305.201 158.344 305.588 158.298C306.078 158.241 306.476 158.195 306.781 158.16C307.087 158.121 307.309 158.058 307.447 157.973C307.586 157.888 307.655 157.75 307.655 157.558V157.52C307.655 157.055 307.524 156.695 307.261 156.439C307.002 156.183 306.615 156.056 306.1 156.056C305.563 156.056 305.141 156.175 304.832 156.413C304.526 156.647 304.315 156.908 304.198 157.196L302.701 156.855C302.879 156.357 303.138 155.956 303.479 155.651C303.823 155.342 304.219 155.118 304.667 154.98C305.114 154.838 305.585 154.767 306.078 154.767C306.405 154.767 306.751 154.806 307.117 154.884C307.486 154.958 307.831 155.097 308.15 155.299C308.474 155.502 308.738 155.791 308.944 156.168C309.15 156.54 309.253 157.025 309.253 157.622V163.055H307.698V161.936H307.634C307.531 162.142 307.376 162.345 307.17 162.544C306.964 162.742 306.7 162.908 306.377 163.039C306.053 163.17 305.666 163.236 305.215 163.236ZM305.562 161.958C306.002 161.958 306.378 161.871 306.691 161.697C307.007 161.523 307.247 161.295 307.41 161.015C307.577 160.731 307.66 160.427 307.66 160.104V159.049C307.604 159.106 307.493 159.159 307.33 159.209C307.17 159.255 306.987 159.296 306.781 159.332C306.575 159.364 306.375 159.394 306.18 159.422C305.984 159.447 305.821 159.468 305.689 159.486C305.381 159.525 305.098 159.591 304.843 159.683C304.59 159.775 304.388 159.909 304.235 160.083C304.086 160.253 304.012 160.48 304.012 160.764C304.012 161.159 304.157 161.457 304.448 161.659C304.74 161.858 305.111 161.958 305.562 161.958ZM312.967 158.197V163.055H311.374V154.873H312.903V156.205H313.004C313.193 155.772 313.487 155.424 313.889 155.161C314.293 154.898 314.803 154.767 315.417 154.767C315.975 154.767 316.463 154.884 316.882 155.118C317.301 155.349 317.626 155.693 317.857 156.152C318.088 156.61 318.203 157.176 318.203 157.851V163.055H316.611V158.043C316.611 157.449 316.456 156.986 316.147 156.652C315.838 156.315 315.414 156.146 314.874 156.146C314.505 156.146 314.176 156.226 313.889 156.386C313.604 156.546 313.379 156.78 313.212 157.089C313.049 157.394 312.967 157.764 312.967 158.197ZM321.804 160.28L321.793 158.335H322.07L325.33 154.873H327.237L323.519 158.815H323.269L321.804 160.28ZM320.339 163.055V152.146H321.932V163.055H320.339ZM325.506 163.055L322.576 159.166L323.674 158.053L327.461 163.055H325.506Z" fill="#3D3D3D"/>
<defs>
<radialGradient id="paint0_radial_691_3632" cx="0" cy="0" r="1" gradientUnits="userSpaceOnUse" gradientTransform="translate(100.848 119.418) rotate(0.544294) scale(82.6974)">
<stop/>
<stop offset="1" stop-opacity="0"/>
</radialGradient>
<linearGradient id="paint1_linear_691_3632" x1="51.7683" y1="118.806" x2="51.8629" y2="108.856" gradientUnits="userSpaceOnUse">
<stop stop-color="white"/>
<stop offset="1"/>
</linearGradient>
<radialGradient id="paint2_radial_691_3632" cx="0" cy="0" r="1" gradientUnits="userSpaceOnUse" gradientTransform="translate(103.086 117.179) rotate(0.544294) scale(37.6298 37.6298)">
<stop/>
<stop offset="1" stop-opacity="0"/>
</radialGradient>
</defs>
</svg>
