<svg width="127" height="164" viewBox="0 0 127 164" fill="none" xmlns="http://www.w3.org/2000/svg">
<path d="M86.2191 169.529H3.43061C2.62009 169.529 1.96289 168.872 1.96289 168.062V2.93824C1.96289 2.12772 2.62009 1.47052 3.43061 1.47052H86.2191C87.0297 1.47052 87.6869 2.12772 87.6869 2.93824V168.062C87.6869 168.872 87.0297 169.529 86.2191 169.529Z" fill="#B0D3F0"/>
<path d="M86.2176 170.911H3.42905C1.85801 170.911 0.580078 169.633 0.580078 168.062V2.93826C0.580078 1.36723 1.85829 0.0892944 3.42905 0.0892944H86.2176C87.7886 0.0892944 89.0665 1.36723 89.0665 2.93826V168.062C89.0665 169.633 87.7883 170.911 86.2176 170.911ZM3.42905 2.85179C3.38125 2.85179 3.34258 2.89075 3.34258 2.93826V168.062C3.34258 168.109 3.38153 168.148 3.42905 168.148H86.2176C86.2654 168.148 86.304 168.109 86.304 168.062V2.93826C86.304 2.89075 86.2651 2.85179 86.2176 2.85179H3.42905Z" fill="#41767F"/>
<path d="M44.8235 13.0511C42.8036 13.0511 41.1602 11.4077 41.1602 9.38778C41.1602 7.36784 42.8036 5.72443 44.8235 5.72443C46.8437 5.72443 48.4871 7.36784 48.4871 9.38778C48.4871 11.4077 46.8435 13.0511 44.8235 13.0511ZM44.8235 7.1054C43.5652 7.1054 42.5414 8.12918 42.5414 9.3875C42.5414 10.6458 43.5652 11.6696 44.8235 11.6696C46.0821 11.6696 47.1059 10.6458 47.1059 9.3875C47.1059 8.12918 46.0821 7.1054 44.8235 7.1054Z" fill="#41767F"/>
<path d="M118.727 109.948H56.6464C52.3985 109.948 48.9551 106.504 48.9551 102.256V68.7438C48.9551 64.4959 52.3985 61.0525 56.6464 61.0525H118.727C122.975 61.0525 126.418 64.4959 126.418 68.7438V102.256C126.418 106.504 122.975 109.948 118.727 109.948Z" fill="#3B97D3"/>
<path d="M68.1559 82.9517H56.6761C55.6909 82.9517 54.8926 82.153 54.8926 81.1682V71.1992C54.8926 70.2141 55.6912 69.4157 56.6761 69.4157H68.1559C69.141 69.4157 69.9394 70.2143 69.9394 71.1992V81.1682C69.9394 82.153 69.1407 82.9517 68.1559 82.9517Z" fill="#3D44E3"/>
<path d="M66.8491 90.5972H56.0137C55.3394 90.5972 54.793 90.0505 54.793 89.3765C54.793 88.7021 55.3397 88.1557 56.0137 88.1557H66.8491C67.5234 88.1557 68.0698 88.7024 68.0698 89.3765C68.0701 90.0505 67.5234 90.5972 66.8491 90.5972Z" fill="#3F5C6C"/>
<path d="M87.8626 96.4109H56.0137C55.3394 96.4109 54.793 95.8642 54.793 95.1901C54.793 94.5158 55.3397 93.9694 56.0137 93.9694H87.8623C88.5366 93.9694 89.083 94.5161 89.083 95.1901C89.0833 95.8644 88.5366 96.4109 87.8626 96.4109Z" fill="#3F5C6C"/>
<path d="M75.7371 101.585H55.8471C55.2651 101.585 54.793 101.113 54.793 100.531V100.197C54.793 99.6154 55.2648 99.1433 55.8471 99.1433H75.7371C76.3192 99.1433 76.7913 99.6151 76.7913 100.197V100.531C76.7913 101.113 76.3192 101.585 75.7371 101.585Z" fill="#3F5C6C"/>
<path d="M84.351 90.5972H73.5157C72.8413 90.5972 72.2949 90.0505 72.2949 89.3765C72.2949 88.7021 72.8416 88.1557 73.5157 88.1557H84.351C85.0254 88.1557 85.5718 88.7024 85.5718 89.3765C85.5718 90.0505 85.0254 90.5972 84.351 90.5972Z" fill="#3F5C6C"/>
<path d="M101.857 90.5972H91.0215C90.3472 90.5972 89.8008 90.0505 89.8008 89.3765C89.8008 88.7021 90.3475 88.1557 91.0215 88.1557H101.857C102.531 88.1557 103.078 88.7024 103.078 89.3765C103.078 90.0505 102.531 90.5972 101.857 90.5972Z" fill="#3F5C6C"/>
<path d="M119.361 90.5972H108.525C107.851 90.5972 107.305 90.0505 107.305 89.3765C107.305 88.7021 107.851 88.1557 108.525 88.1557H119.361C120.035 88.1557 120.582 88.7024 120.582 89.3765C120.582 90.0505 120.035 90.5972 119.361 90.5972Z" fill="#3F5C6C"/>
</svg>
