<svg width="477" height="67" viewBox="0 0 477 67" fill="none" xmlns="http://www.w3.org/2000/svg">
<path d="M224.503 59.0739C224.503 62.6182 221.632 65.4891 218.081 65.4891H7.92077C4.37144 65.4891 1.49044 62.6182 1.49044 59.0739V7.91435C1.49044 4.37172 4.37144 1.49072 7.92077 1.49072H218.08C221.632 1.49072 224.502 4.37172 224.502 7.91435L224.503 59.0739Z" fill="#1B1C1D"/>
<path d="M50.4643 33.1381C50.4157 27.7396 54.8846 25.1132 55.089 24.9909C52.5581 21.3009 48.6352 20.7967 47.2567 20.7565C43.962 20.4098 40.7661 22.728 39.0877 22.728C37.3759 22.728 34.7913 20.79 32.0058 20.847C28.4213 20.9023 25.068 22.9776 23.2288 26.2003C19.4333 32.7713 22.264 42.4277 25.9004 47.7391C27.7195 50.3404 29.8451 53.2448 32.6272 53.1427C35.3491 53.0304 36.3658 51.4074 39.6505 51.4074C42.905 51.4074 43.8598 53.1427 46.6972 53.0773C49.6184 53.0304 51.4576 50.4643 53.213 47.8396C55.3151 44.8581 56.1593 41.9218 56.1928 41.7711C56.1241 41.7476 50.5196 39.6087 50.4643 33.1381Z" fill="white"/>
<path d="M45.1045 17.2622C46.5684 15.4314 47.5701 12.9407 47.292 10.4131C45.1731 10.5069 42.5233 11.8787 40.9974 13.6693C39.6473 15.2471 38.4413 17.8333 38.7529 20.2654C41.133 20.443 43.5769 19.0645 45.1045 17.2622Z" fill="white"/>
<path d="M89.8562 52.7689H86.0523L83.9686 46.2214H76.7259L74.741 52.7689H71.0376L78.2133 30.478H82.6454L89.8562 52.7689ZM83.3405 43.4744L81.4561 37.6537C81.2568 37.0591 80.8833 35.6588 80.3322 33.4545H80.2652C80.0458 34.4026 79.6923 35.8029 79.2066 37.6537L77.3557 43.4744H83.3405Z" fill="white"/>
<path d="M108.309 44.5347C108.309 47.2683 107.571 49.4291 106.093 51.0153C104.77 52.4273 103.127 53.1325 101.166 53.1325C99.0484 53.1325 97.5275 52.372 96.6012 50.8511H96.5342V59.3183H92.9631V41.987C92.9631 40.2685 92.9179 38.5047 92.8308 36.6957H95.9714L96.1708 39.2434H96.2378C97.4287 37.3238 99.236 36.3657 101.661 36.3657C103.558 36.3657 105.14 37.1144 106.407 38.6136C107.676 40.1144 108.309 42.0875 108.309 44.5347ZM104.671 44.6653C104.671 43.1009 104.32 41.8112 103.613 40.7961C102.841 39.7375 101.804 39.2082 100.504 39.2082C99.6229 39.2082 98.8223 39.503 98.1071 40.0842C97.3902 40.6705 96.9212 41.4359 96.7017 42.384C96.5912 42.8262 96.5359 43.188 96.5359 43.4728V46.1528C96.5359 47.3219 96.8944 48.3085 97.6113 49.1142C98.3282 49.9198 99.2595 50.3218 100.405 50.3218C101.75 50.3218 102.797 49.8026 103.546 48.7674C104.296 47.7306 104.671 46.3638 104.671 44.6653Z" fill="white"/>
<path d="M126.796 44.5347C126.796 47.2683 126.058 49.4291 124.579 51.0153C123.257 52.4273 121.614 53.1325 119.653 53.1325C117.535 53.1325 116.015 52.372 115.09 50.8511H115.023V59.3183H111.452V41.987C111.452 40.2685 111.407 38.5047 111.319 36.6957H114.46L114.659 39.2434H114.726C115.916 37.3238 117.723 36.3657 120.15 36.3657C122.045 36.3657 123.627 37.1144 124.897 38.6136C126.162 40.1144 126.796 42.0875 126.796 44.5347ZM123.158 44.6653C123.158 43.1009 122.805 41.8112 122.098 40.7961C121.326 39.7375 120.292 39.2082 118.991 39.2082C118.108 39.2082 117.309 39.503 116.592 40.0842C115.875 40.6705 115.408 41.4359 115.189 42.384C115.08 42.8262 115.023 43.188 115.023 43.4728V46.1528C115.023 47.3219 115.381 48.3085 116.095 49.1142C116.812 49.9182 117.743 50.3218 118.892 50.3218C120.237 50.3218 121.284 49.8026 122.033 48.7674C122.783 47.7306 123.158 46.3638 123.158 44.6653Z" fill="white"/>
<path d="M147.466 46.5178C147.466 48.4139 146.808 49.9566 145.486 51.1475C144.034 52.449 142.012 53.0989 139.414 53.0989C137.016 53.0989 135.093 52.6366 133.637 51.7103L134.465 48.7338C136.032 49.6819 137.753 50.1576 139.627 50.1576C140.972 50.1576 142.019 49.8527 142.771 49.2464C143.52 48.64 143.893 47.826 143.893 46.8109C143.893 45.9064 143.585 45.1443 142.967 44.5262C142.352 43.9081 141.325 43.3336 139.892 42.8026C135.989 41.3471 134.039 39.2148 134.039 36.4108C134.039 34.5784 134.723 33.0759 136.091 31.9068C137.454 30.7359 139.273 30.1514 141.548 30.1514C143.577 30.1514 145.262 30.5048 146.607 31.21L145.714 34.1211C144.458 33.4377 143.037 33.096 141.448 33.096C140.191 33.096 139.21 33.4059 138.506 34.0223C137.912 34.5734 137.614 35.245 137.614 36.0407C137.614 36.9217 137.954 37.6503 138.637 38.2232C139.232 38.7525 140.312 39.3253 141.88 39.9434C143.798 40.7156 145.206 41.6184 146.113 42.6536C147.015 43.6854 147.466 44.9768 147.466 46.5178Z" fill="white"/>
<path d="M159.273 39.3758H155.337V47.1797C155.337 49.1645 156.03 50.1561 157.421 50.1561C158.059 50.1561 158.588 50.1009 159.007 49.9903L159.106 52.7021C158.402 52.9651 157.476 53.0974 156.328 53.0974C154.918 53.0974 153.816 52.667 153.02 51.8077C152.228 50.9467 151.829 49.5029 151.829 47.4745V39.3725H149.484V36.6925H151.829V33.7495L155.337 32.6909V36.6925H159.273V39.3758Z" fill="white"/>
<path d="M177.033 44.5998C177.033 47.0704 176.326 49.0989 174.915 50.6851C173.436 52.3182 171.473 53.1323 169.026 53.1323C166.668 53.1323 164.79 52.35 163.39 50.7856C161.989 49.2211 161.289 47.2463 161.289 44.8661C161.289 42.3754 162.009 40.3353 163.455 38.749C164.897 37.1611 166.843 36.3672 169.291 36.3672C171.649 36.3672 173.547 37.1494 174.979 38.7155C176.349 40.2348 177.033 42.1962 177.033 44.5998ZM173.327 44.7154C173.327 43.233 173.011 41.9617 172.369 40.9014C171.621 39.6184 170.55 38.9785 169.163 38.9785C167.728 38.9785 166.637 39.62 165.889 40.9014C165.247 41.9634 164.931 43.2548 164.931 44.7824C164.931 46.2648 165.247 47.5361 165.889 48.5947C166.661 49.8777 167.74 50.5176 169.132 50.5176C170.495 50.5176 171.565 49.8643 172.337 48.5612C172.996 47.4808 173.327 46.1961 173.327 44.7154Z" fill="white"/>
<path d="M188.64 39.8363C188.287 39.771 187.91 39.7375 187.514 39.7375C186.258 39.7375 185.287 40.2115 184.603 41.1612C184.009 41.9987 183.711 43.0573 183.711 44.3354V52.769H180.141L180.175 41.7575C180.175 39.905 180.129 38.2183 180.041 36.6974H183.151L183.282 39.7727H183.381C183.757 38.7157 184.352 37.8648 185.166 37.2267C185.962 36.6521 186.821 36.3657 187.747 36.3657C188.077 36.3657 188.375 36.3892 188.64 36.431V39.8363Z" fill="white"/>
<path d="M204.611 43.9718C204.611 44.6116 204.57 45.151 204.481 45.5915H193.767C193.809 47.1794 194.327 48.3938 195.322 49.2313C196.225 49.98 197.392 50.3552 198.826 50.3552C200.412 50.3552 201.859 50.1023 203.161 49.5948L203.72 52.0738C202.199 52.7371 200.404 53.067 198.332 53.067C195.839 53.067 193.883 52.3334 192.459 50.8678C191.039 49.4021 190.327 47.434 190.327 44.965C190.327 42.5413 190.989 40.523 192.314 38.9133C193.7 37.1947 195.575 36.3354 197.933 36.3354C200.25 36.3354 202.003 37.1947 203.194 38.9133C204.137 40.2784 204.611 41.9668 204.611 43.9718ZM201.206 43.0455C201.23 41.9869 200.997 41.0723 200.513 40.3002C199.895 39.3069 198.945 38.8111 197.667 38.8111C196.499 38.8111 195.55 39.2952 194.824 40.2667C194.23 41.0389 193.876 41.9651 193.767 43.0438H201.206V43.0455Z" fill="white"/>
<path d="M82.1588 16.7653C82.1588 18.7368 81.5675 20.2208 80.3867 21.2175C79.2929 22.137 77.7385 22.5977 75.7251 22.5977C74.7268 22.5977 73.8726 22.5541 73.1574 22.467V11.6951C74.0903 11.5443 75.0953 11.4673 76.1807 11.4673C78.0986 11.4673 79.5441 11.8844 80.519 12.7185C81.6111 13.6615 82.1588 15.0099 82.1588 16.7653ZM80.3079 16.8139C80.3079 15.5359 79.9696 14.556 79.2929 13.8726C78.6162 13.1909 77.6279 12.8492 76.3265 12.8492C75.7737 12.8492 75.303 12.886 74.9128 12.9631V21.1521C75.1288 21.1856 75.5241 21.2007 76.0987 21.2007C77.442 21.2007 78.4788 20.8272 79.2091 20.0801C79.9394 19.3331 80.3079 18.2443 80.3079 16.8139Z" fill="white"/>
<path d="M91.9734 18.4873C91.9734 19.7017 91.6266 20.6966 90.9332 21.4772C90.2062 22.2795 89.2431 22.6798 88.0405 22.6798C86.8814 22.6798 85.9584 22.2962 85.27 21.5257C84.5833 20.7569 84.2399 19.7871 84.2399 18.6179C84.2399 17.3952 84.5933 16.3919 85.3035 15.613C86.0137 14.8341 86.9685 14.4438 88.1711 14.4438C89.3302 14.4438 90.2615 14.8274 90.9667 15.5962C91.6367 16.3433 91.9734 17.3081 91.9734 18.4873ZM90.1526 18.5442C90.1526 17.8156 89.9952 17.1908 89.682 16.6699C89.3135 16.0401 88.7892 15.7252 88.1075 15.7252C87.4023 15.7252 86.8663 16.0401 86.4978 16.6699C86.1829 17.1908 86.0271 17.8257 86.0271 18.5761C86.0271 19.3047 86.1846 19.9295 86.4978 20.4504C86.878 21.0802 87.4073 21.3951 88.0907 21.3951C88.7607 21.3951 89.2867 21.0752 89.6652 20.4337C89.9902 19.9027 90.1526 19.2729 90.1526 18.5442Z" fill="white"/>
<path d="M105.131 14.605L102.661 22.5009H101.053L100.029 19.0722C99.7698 18.2163 99.5587 17.3654 99.3945 16.5212H99.3627C99.2103 17.3888 98.9993 18.2381 98.7279 19.0722L97.6408 22.5009H96.0144L93.6912 14.605H95.4952L96.3879 18.3587C96.604 19.2464 96.7816 20.0923 96.9239 20.8929H96.9557C97.0864 20.233 97.3025 19.3921 97.6073 18.3754L98.7279 14.6067H100.158L101.232 18.295C101.492 19.1945 101.703 20.0605 101.865 20.8946H101.914C102.033 20.0822 102.212 19.2163 102.45 18.295L103.408 14.6067H105.131V14.605Z" fill="white"/>
<path d="M114.232 22.5007H112.477V17.9782C112.477 16.5846 111.947 15.8878 110.886 15.8878C110.365 15.8878 109.944 16.0788 109.618 16.4624C109.294 16.8459 109.13 17.2982 109.13 17.8158V22.4991H107.375V16.861C107.375 16.1676 107.353 15.4155 107.311 14.6014H108.854L108.936 15.8359H108.984C109.189 15.4523 109.494 15.1358 109.894 14.8828C110.37 14.588 110.902 14.439 111.485 14.439C112.222 14.439 112.835 14.6768 113.323 15.1542C113.929 15.7388 114.232 16.6114 114.232 17.7705V22.5007Z" fill="white"/>
<path d="M119.073 22.5009H117.319V10.9819H119.073V22.5009Z" fill="white"/>
<path d="M129.407 18.4873C129.407 19.7017 129.061 20.6966 128.367 21.4772C127.64 22.2795 126.676 22.6798 125.475 22.6798C124.314 22.6798 123.391 22.2962 122.704 21.5257C122.017 20.7569 121.674 19.7871 121.674 18.6179C121.674 17.3952 122.027 16.3919 122.738 15.613C123.448 14.8341 124.403 14.4438 125.604 14.4438C126.764 14.4438 127.694 14.8274 128.401 15.5962C129.071 16.3433 129.407 17.3081 129.407 18.4873ZM127.585 18.5442C127.585 17.8156 127.428 17.1908 127.114 16.6699C126.748 16.0401 126.222 15.7252 125.542 15.7252C124.835 15.7252 124.299 16.0401 123.932 16.6699C123.617 17.1908 123.461 17.8257 123.461 18.5761C123.461 19.3047 123.619 19.9295 123.932 20.4504C124.312 21.0802 124.841 21.3951 125.525 21.3951C126.195 21.3951 126.719 21.0752 127.098 20.4337C127.424 19.9027 127.585 19.2729 127.585 18.5442Z" fill="white"/>
<path d="M137.903 22.5006H136.327L136.196 21.5911H136.148C135.608 22.3164 134.839 22.6798 133.841 22.6798C133.096 22.6798 132.493 22.4403 132.039 21.9646C131.627 21.5324 131.421 20.9948 131.421 20.3566C131.421 19.3918 131.823 18.6565 132.632 18.1473C133.439 17.6381 134.575 17.3885 136.037 17.4002V17.2528C136.037 16.2126 135.491 15.6934 134.397 15.6934C133.618 15.6934 132.932 15.8894 132.339 16.278L131.982 15.1256C132.716 14.6716 133.622 14.4438 134.69 14.4438C136.754 14.4438 137.789 15.5326 137.789 17.7101V20.6179C137.789 21.4068 137.828 22.0349 137.903 22.5006ZM136.081 19.7871V18.5694C134.144 18.5359 133.176 19.0668 133.176 20.1606C133.176 20.5727 133.287 20.8809 133.513 21.0869C133.739 21.2929 134.027 21.3951 134.37 21.3951C134.756 21.3951 135.116 21.2728 135.444 21.03C135.774 20.7854 135.977 20.4755 136.052 20.0953C136.071 20.0099 136.081 19.906 136.081 19.7871Z" fill="white"/>
<path d="M147.878 22.5009H146.32L146.238 21.2329H146.189C145.692 22.1977 144.844 22.6801 143.653 22.6801C142.702 22.6801 141.91 22.3066 141.281 21.5596C140.653 20.8125 140.34 19.8427 140.34 18.6518C140.34 17.3737 140.68 16.3386 141.364 15.548C142.025 14.811 142.836 14.4425 143.801 14.4425C144.861 14.4425 145.603 14.7993 146.025 15.5145H146.059V10.9819H147.816V20.3737C147.816 21.1425 147.836 21.851 147.878 22.5009ZM146.059 19.171V17.8545C146.059 17.6267 146.042 17.4424 146.01 17.3017C145.911 16.8796 145.698 16.5245 145.375 16.2381C145.049 15.9517 144.655 15.8076 144.201 15.8076C143.546 15.8076 143.033 16.0672 142.657 16.5882C142.283 17.1091 142.094 17.7741 142.094 18.5864C142.094 19.367 142.273 20.0001 142.633 20.4876C143.013 21.0068 143.526 21.2664 144.167 21.2664C144.744 21.2664 145.204 21.0504 145.554 20.6165C145.893 20.2162 146.059 19.7338 146.059 19.171Z" fill="white"/>
<path d="M162.89 18.4873C162.89 19.7017 162.544 20.6966 161.85 21.4772C161.123 22.2795 160.162 22.6798 158.958 22.6798C157.8 22.6798 156.877 22.2962 156.187 21.5257C155.5 20.7569 155.157 19.7871 155.157 18.6179C155.157 17.3952 155.51 16.3919 156.221 15.613C156.931 14.8341 157.886 14.4438 159.09 14.4438C160.247 14.4438 161.18 14.8274 161.884 15.5962C162.554 16.3433 162.89 17.3081 162.89 18.4873ZM161.071 18.5442C161.071 17.8156 160.914 17.1908 160.601 16.6699C160.231 16.0401 159.708 15.7252 159.025 15.7252C158.321 15.7252 157.785 16.0401 157.415 16.6699C157.1 17.1908 156.944 17.8257 156.944 18.5761C156.944 19.3047 157.102 19.9295 157.415 20.4504C157.795 21.0802 158.324 21.3951 159.008 21.3951C159.678 21.3951 160.205 21.0752 160.584 20.4337C160.907 19.9027 161.071 19.2729 161.071 18.5442Z" fill="white"/>
<path d="M172.329 22.5007H170.576V17.9782C170.576 16.5846 170.046 15.8878 168.983 15.8878C168.462 15.8878 168.041 16.0788 167.716 16.4624C167.391 16.8459 167.229 17.2982 167.229 17.8158V22.4991H165.472V16.861C165.472 16.1676 165.452 15.4155 165.41 14.6014H166.951L167.033 15.8359H167.082C167.288 15.4523 167.592 15.1358 167.991 14.8828C168.468 14.588 168.999 14.439 169.584 14.439C170.319 14.439 170.932 14.6768 171.42 15.1542C172.028 15.7388 172.329 16.6114 172.329 17.7705V22.5007Z" fill="white"/>
<path d="M184.144 15.9195H182.211V19.7553C182.211 20.7301 182.554 21.2175 183.234 21.2175C183.549 21.2175 183.811 21.1907 184.017 21.1355L184.062 22.4671C183.715 22.5977 183.259 22.6631 182.698 22.6631C182.005 22.6631 181.466 22.452 181.075 22.0299C180.683 21.6078 180.489 20.8976 180.489 19.901V15.9195H179.335V14.6046H180.489V13.1574L182.209 12.6382V14.603H184.142V15.9195H184.144Z" fill="white"/>
<path d="M193.436 22.5009H191.679V18.0119C191.679 16.5965 191.15 15.888 190.089 15.888C189.275 15.888 188.719 16.2984 188.414 17.1191C188.362 17.2917 188.332 17.5027 188.332 17.7506V22.4992H186.579V10.9819H188.332V15.7406H188.366C188.919 14.8746 189.711 14.4425 190.738 14.4425C191.465 14.4425 192.066 14.6803 192.543 15.1577C193.138 15.7523 193.436 16.6367 193.436 17.8059V22.5009Z" fill="white"/>
<path d="M203.022 18.179C203.022 18.4939 202.999 18.7586 202.957 18.9747H197.692C197.716 19.7552 197.967 20.3498 198.454 20.7619C198.9 21.1304 199.475 21.3146 200.178 21.3146C200.957 21.3146 201.667 21.1907 202.307 20.9411L202.582 22.1605C201.833 22.4855 200.952 22.6479 199.932 22.6479C198.709 22.6479 197.746 22.2878 197.049 21.5676C196.349 20.8473 196.002 19.8808 196.002 18.6681C196.002 17.4772 196.326 16.4856 196.977 15.695C197.657 14.8508 198.577 14.4287 199.737 14.4287C200.873 14.4287 201.736 14.8508 202.319 15.695C202.789 16.365 203.022 17.1941 203.022 18.179ZM201.347 17.7251C201.361 17.2042 201.245 16.7553 201.007 16.3767C200.702 15.8893 200.238 15.6448 199.61 15.6448C199.037 15.6448 198.57 15.8826 198.213 16.36C197.922 16.7402 197.749 17.1941 197.692 17.7251H201.347Z" fill="white"/>
<g clip-path="url(#clip0_580_213)">
<path d="M467.87 66.9998H258.503C253.897 66.9998 250.128 63.2312 250.128 58.625V8.37626C250.128 3.77009 253.897 0.00146484 258.503 0.00146484H467.87C472.476 0.00146484 476.245 3.77009 476.245 8.37626V58.625C476.245 63.2312 472.476 66.9998 467.87 66.9998Z" fill="#1B1C1D"/>
<path d="M429.241 50.25H432.367V29.3096H429.241V50.25ZM457.393 36.8534L453.81 45.9315H453.703L449.984 36.8534H446.618L452.195 49.5415L449.015 56.5997H452.274L460.868 36.854L457.393 36.8534ZM439.667 47.8714C438.645 47.8714 437.216 47.3591 437.216 46.0931C437.216 44.4769 438.995 43.8573 440.53 43.8573C441.903 43.8573 442.551 44.1531 443.385 44.5575C443.143 46.4974 441.473 47.8713 439.667 47.8713L439.667 47.8714ZM440.045 36.3953C437.783 36.3953 435.439 37.3924 434.469 39.6014L437.243 40.7595C437.836 39.6014 438.94 39.2246 440.099 39.2246C441.715 39.2246 443.359 40.1935 443.385 41.9182V42.1335C442.819 41.8102 441.606 41.3255 440.126 41.3255C437.134 41.3255 434.091 42.9683 434.091 46.0394C434.091 48.8411 436.543 50.6462 439.29 50.6462C441.391 50.6462 442.551 49.7034 443.276 48.5984H443.385V50.2157H446.404V42.187C446.404 38.4694 443.627 36.3953 440.045 36.3953V36.3953ZM420.729 39.4024H416.284V32.2251H420.729C423.066 32.2251 424.392 34.1592 424.392 35.8137C424.392 37.4364 423.066 39.4024 420.729 39.4024ZM420.649 29.3101H413.16V50.2505H416.284V42.3174H420.649C424.113 42.3174 427.518 39.8102 427.518 35.8144C427.518 31.8194 424.113 29.311 420.649 29.311L420.649 29.3101ZM379.812 47.875C377.653 47.875 375.846 46.0665 375.846 43.5849C375.846 41.0744 377.653 39.2404 379.812 39.2404C381.944 39.2404 383.617 41.0745 383.617 43.5849C383.617 46.0665 381.944 47.875 379.812 47.875ZM383.401 38.0256H383.293C382.591 37.1893 381.241 36.4337 379.542 36.4337C375.98 36.4337 372.715 39.5644 372.715 43.5849C372.715 47.578 375.98 50.6812 379.542 50.6812C381.241 50.6812 382.591 49.9254 383.293 49.0625H383.401V50.0871C383.401 52.8135 381.944 54.2699 379.596 54.2699C377.681 54.2699 376.493 52.8939 376.007 51.7338L373.282 52.867C374.064 54.7551 376.141 57.0767 379.596 57.0767C383.267 57.0767 386.37 54.9174 386.37 49.6551V36.8652H383.401L383.401 38.0256ZM388.529 50.2494H391.658V29.309H388.529V50.2494ZM396.273 43.3415C396.192 40.589 398.405 39.1861 399.997 39.1861C401.239 39.1861 402.29 39.807 402.642 40.6969L396.273 43.3415ZM405.987 40.9665C405.393 39.3753 403.585 36.4337 399.889 36.4337C396.218 36.4337 393.169 39.3209 393.169 43.5575C393.169 47.5512 396.192 50.6813 400.239 50.6813C403.504 50.6813 405.393 48.6851 406.176 47.5243L403.748 45.905C402.938 47.0926 401.832 47.8751 400.239 47.8751C398.648 47.8751 397.514 47.1463 396.786 45.7161L406.31 41.7766L405.987 40.9665ZM330.098 38.6195V41.6417H337.329C337.113 43.3416 336.547 44.5827 335.683 45.4464C334.63 46.4984 332.984 47.6591 330.098 47.6591C325.645 47.6591 322.164 44.0704 322.164 39.618C322.164 35.1656 325.645 31.5764 330.098 31.5764C332.499 31.5764 334.253 32.521 335.548 33.7354L337.681 31.6031C335.872 29.8764 333.471 28.5542 330.098 28.5542C323.998 28.5542 318.871 33.5194 318.871 39.618C318.871 45.716 323.998 50.6813 330.098 50.6813C333.389 50.6813 335.872 49.6018 337.815 47.5781C339.812 45.5812 340.433 42.775 340.433 40.5079C340.433 39.8071 340.378 39.1595 340.27 38.6195H330.098ZM348.655 47.875C346.496 47.875 344.634 46.094 344.634 43.5575C344.634 40.994 346.496 39.2405 348.655 39.2405C350.813 39.2405 352.675 40.994 352.675 43.5575C352.675 46.094 350.813 47.875 348.655 47.875ZM348.655 36.4337C344.714 36.4337 341.504 39.4288 341.504 43.5575C341.504 47.6591 344.714 50.6813 348.655 50.6813C352.594 50.6813 355.806 47.6591 355.806 43.5575C355.806 39.4288 352.594 36.4337 348.655 36.4337ZM364.254 47.875C362.096 47.875 360.234 46.094 360.234 43.5575C360.234 40.994 362.096 39.2405 364.254 39.2405C366.413 39.2405 368.275 40.994 368.275 43.5575C368.275 46.094 366.413 47.875 364.254 47.875ZM364.254 36.4337C360.315 36.4337 357.104 39.4288 357.104 43.5575C357.104 47.6591 360.315 50.6813 364.254 50.6813C368.195 50.6813 371.405 47.6591 371.405 43.5575C371.405 39.4288 368.195 36.4337 364.254 36.4337Z" fill="white"/>
<path d="M284.826 32.5354L266.994 51.4621C266.995 51.466 266.996 51.4692 266.997 51.4732C267.544 53.5285 269.421 55.0417 271.649 55.0417C272.539 55.0417 273.376 54.801 274.093 54.3783L274.15 54.3449L294.222 42.7623L284.827 32.5352" fill="#EB3131"/>
<path d="M302.866 29.3133L302.849 29.3016L294.183 24.2778L284.42 32.9656L294.217 42.7614L302.837 37.7877C304.349 36.9718 305.375 35.3786 305.375 33.5413C305.375 31.7172 304.362 30.132 302.866 29.3134" fill="#F6B60B"/>
<path d="M266.992 15.5396C266.885 15.9348 266.829 16.3489 266.829 16.7789V50.224C266.829 50.6532 266.884 51.0686 266.993 51.4625L285.44 33.0195L266.993 15.54" fill="#0052B4"/>
<path d="M284.957 33.5017L294.187 24.2744L274.137 12.6498C273.409 12.2133 272.558 11.9614 271.648 11.9614C269.42 11.9614 267.54 13.4775 266.993 15.5351C266.993 15.5371 266.993 15.5385 266.993 15.5402L284.957 33.5021" fill="#29BA38"/>
<path d="M329.512 16.384H324.625V17.5932H328.287C328.187 18.5799 327.795 19.3546 327.133 19.9172C326.471 20.48 325.625 20.7626 324.626 20.7626C323.529 20.7626 322.6 20.3805 321.838 19.6216C321.092 18.8469 320.713 17.889 320.713 16.7349C320.713 15.5808 321.092 14.6229 321.838 13.8483C322.6 13.0893 323.529 12.7098 324.626 12.7098C325.188 12.7098 325.725 12.8066 326.217 13.0187C326.709 13.2305 327.104 13.5263 327.413 13.9059L328.342 12.9768C327.92 12.4978 327.387 12.1314 326.724 11.8645C326.062 11.5975 325.371 11.4693 324.625 11.4693C323.162 11.4693 321.922 11.977 320.909 12.9899C319.896 14.0053 319.389 15.2563 319.389 16.7349C319.389 18.2135 319.896 19.4672 320.909 20.4802C321.922 21.4928 323.162 22.0007 324.625 22.0007C326.162 22.0007 327.386 21.5086 328.329 20.5088C329.158 19.6767 329.582 18.5513 329.582 17.1433C329.582 16.9051 329.553 16.6512 329.512 16.3842L329.512 16.384ZM331.405 11.6942V21.7755H337.29V20.5375H332.7V17.3395H336.84V16.1303H332.7V12.9348H337.29V11.6941L331.405 11.6942ZM345.544 12.9348V11.6942H338.616V12.9348H341.432V21.7754H342.728V12.9348H345.544ZM351.816 11.6942H350.52V21.7755H351.816V11.6942ZM360.366 12.9348V11.6942H353.439V12.9348H356.255V21.7754H357.55V12.9348H360.366ZM373.439 13.0055C372.439 11.9769 371.214 11.4692 369.751 11.4692C368.286 11.4692 367.061 11.9769 366.061 12.9898C365.061 13.9896 364.569 15.2431 364.569 16.7348C364.569 18.2265 365.061 19.4802 366.061 20.4801C367.061 21.4927 368.286 22.0006 369.751 22.0006C371.201 22.0006 372.439 21.4928 373.439 20.4801C374.439 19.4803 374.931 18.2266 374.931 16.7348C374.931 15.2562 374.439 14.0051 373.439 13.0055ZM366.99 13.8482C367.736 13.0892 368.652 12.7097 369.751 12.7097C370.848 12.7097 371.764 13.0893 372.497 13.8482C373.243 14.594 373.609 15.5675 373.609 16.7348C373.609 17.9047 373.243 18.8756 372.497 19.6215C371.764 20.3805 370.848 20.7625 369.751 20.7625C368.652 20.7625 367.736 20.3804 366.99 19.6215C366.26 18.8599 365.894 17.9047 365.894 16.7348C365.894 15.5675 366.26 14.6097 366.99 13.8482ZM378.008 15.497L377.953 13.5523H378.008L383.133 21.7754H384.486V11.6941H383.19V17.5931L383.245 19.5377H383.19L378.291 11.6941H376.713V21.7754H378.008V15.497Z" fill="white" stroke="white" stroke-width="0.270397" stroke-miterlimit="10"/>
</g>
<defs>
<clipPath id="clip0_580_213">
<rect width="226.125" height="66.9996" fill="white" transform="translate(250.125)"/>
</clipPath>
</defs>
</svg>
