<svg width="501" height="437" viewBox="0 0 501 437" fill="none" xmlns="http://www.w3.org/2000/svg">
<rect x="0.337891" y="0.564697" width="597.115" height="439.435" rx="51.6983" fill="white"/>
<path d="M113.657 77.3285V49.1294H115.463V77.3285H113.657ZM118.867 58.1509C118.764 57.1889 118.331 56.4399 117.567 55.9038C116.811 55.3677 115.827 55.0997 114.615 55.0997C113.763 55.0997 113.033 55.2282 112.423 55.4852C111.814 55.7422 111.347 56.091 111.024 56.5316C110.701 56.9723 110.536 57.4753 110.528 58.0407C110.528 58.5107 110.635 58.9183 110.848 59.2634C111.068 59.6086 111.366 59.9023 111.74 60.1447C112.115 60.3796 112.53 60.5779 112.985 60.7395C113.44 60.901 113.899 61.0369 114.362 61.147L116.477 61.6758C117.329 61.874 118.147 62.1421 118.933 62.4799C119.726 62.8177 120.435 63.2436 121.059 63.7577C121.691 64.2717 122.19 64.8922 122.557 65.6192C122.924 66.3462 123.108 67.1981 123.108 68.1748C123.108 69.4966 122.77 70.6605 122.094 71.6666C121.419 72.6653 120.442 73.4474 119.164 74.0129C117.894 74.571 116.356 74.85 114.549 74.85C112.794 74.85 111.27 74.5783 109.978 74.0349C108.693 73.4915 107.687 72.6984 106.96 71.6556C106.24 70.6128 105.851 69.3424 105.792 67.8443H109.812C109.871 68.6301 110.114 69.2836 110.539 69.805C110.965 70.3264 111.52 70.7156 112.203 70.9726C112.893 71.2297 113.664 71.3582 114.516 71.3582C115.405 71.3582 116.183 71.226 116.851 70.9616C117.527 70.6899 118.056 70.3154 118.437 69.8381C118.819 69.3534 119.014 68.788 119.021 68.1417C119.014 67.5542 118.841 67.0696 118.504 66.6877C118.166 66.2985 117.692 65.9754 117.083 65.7184C116.48 65.454 115.775 65.219 114.968 65.0134L112.401 64.3525C110.543 63.8752 109.074 63.1518 107.995 62.1825C106.923 61.2058 106.387 59.9097 106.387 58.2941C106.387 56.9649 106.747 55.801 107.466 54.8023C108.193 53.8035 109.181 53.0288 110.429 52.478C111.678 51.9199 113.091 51.6409 114.67 51.6409C116.271 51.6409 117.674 51.9199 118.878 52.478C120.09 53.0288 121.041 53.7962 121.731 54.7802C122.421 55.7569 122.777 56.8805 122.799 58.1509H118.867ZM135.707 51.9493V74.5085H131.62V55.9258H131.488L126.211 59.2965V55.5513L131.818 51.9493H135.707ZM141.435 74.5085V71.5565L149.266 63.8788C150.015 63.1224 150.64 62.4505 151.139 61.863C151.638 61.2756 152.013 60.7064 152.263 60.1557C152.512 59.6049 152.637 59.0174 152.637 58.3932C152.637 57.6809 152.475 57.0714 152.152 56.5647C151.829 56.0506 151.385 55.6541 150.82 55.375C150.254 55.096 149.612 54.9565 148.892 54.9565C148.15 54.9565 147.5 55.1107 146.942 55.4191C146.384 55.7202 145.951 56.1498 145.642 56.7079C145.341 57.266 145.191 57.9306 145.191 58.7017H141.302C141.302 57.2697 141.629 56.0249 142.283 54.9675C142.936 53.91 143.836 53.0912 144.981 52.5111C146.134 51.9309 147.456 51.6409 148.947 51.6409C150.46 51.6409 151.789 51.9236 152.934 52.489C154.08 53.0545 154.969 53.8292 155.6 54.8133C156.239 55.7973 156.558 56.9209 156.558 58.1839C156.558 59.0284 156.397 59.8583 156.074 60.6734C155.751 61.4885 155.182 62.3918 154.366 63.3831C153.559 64.3745 152.424 65.5752 150.963 66.9851L147.074 70.9396V71.0938H156.9V74.5085H141.435ZM165.426 71.4243L165.283 72.636C165.18 73.5612 164.996 74.5012 164.732 75.4559C164.475 76.4179 164.203 77.3027 163.917 78.1105C163.63 78.9183 163.399 79.5535 163.223 80.0162H160.535C160.638 79.5682 160.777 78.9587 160.954 78.1876C161.137 77.4166 161.313 76.55 161.482 75.588C161.651 74.626 161.765 73.6494 161.824 72.658L161.901 71.4243H165.426ZM177.419 74.817C175.95 74.817 174.635 74.5416 173.475 73.9908C172.315 73.4327 171.393 72.669 170.71 71.6997C170.035 70.7303 169.675 69.6214 169.631 68.373H173.596C173.67 69.2983 174.07 70.0547 174.797 70.6422C175.524 71.2223 176.398 71.5124 177.419 71.5124C178.219 71.5124 178.931 71.3288 179.556 70.9616C180.18 70.5945 180.672 70.0841 181.032 69.4305C181.391 68.7769 181.568 68.0316 181.56 67.1944C181.568 66.3426 181.388 65.5862 181.021 64.9253C180.653 64.2644 180.15 63.7466 179.512 63.3721C178.873 62.9903 178.138 62.7993 177.308 62.7993C176.633 62.792 175.968 62.9168 175.315 63.1738C174.661 63.4309 174.143 63.7687 173.762 64.1872L170.071 63.5814L171.25 51.9493H184.336V55.364H174.632L173.982 61.3453H174.114C174.533 60.8533 175.124 60.4457 175.887 60.1226C176.651 59.7922 177.488 59.6269 178.399 59.6269C179.765 59.6269 180.984 59.95 182.056 60.5963C183.128 61.2352 183.973 62.1164 184.59 63.2399C185.206 64.3635 185.515 65.6486 185.515 67.0953C185.515 68.586 185.17 69.9152 184.479 71.0828C183.796 72.2431 182.845 73.1573 181.626 73.8256C180.415 74.4865 179.012 74.817 177.419 74.817ZM197.543 74.9381C195.73 74.9381 194.173 74.4792 192.873 73.5612C191.581 72.636 190.586 71.3031 189.888 69.5627C189.198 67.8149 188.852 65.711 188.852 63.251C188.86 60.7909 189.209 58.698 189.899 56.9723C190.597 55.2392 191.592 53.9174 192.884 53.0068C194.184 52.0962 195.737 51.6409 197.543 51.6409C199.35 51.6409 200.903 52.0962 202.203 53.0068C203.503 53.9174 204.498 55.2392 205.188 56.9723C205.886 58.7053 206.235 60.7982 206.235 63.251C206.235 65.7184 205.886 67.826 205.188 69.5737C204.498 71.3141 203.503 72.6433 202.203 73.5612C200.91 74.4792 199.357 74.9381 197.543 74.9381ZM197.543 71.4904C198.953 71.4904 200.066 70.7964 200.881 69.4085C201.704 68.0132 202.115 65.9607 202.115 63.251C202.115 61.4591 201.928 59.9537 201.553 58.7347C201.179 57.5157 200.65 56.5977 199.967 55.9809C199.284 55.3567 198.476 55.0446 197.543 55.0446C196.141 55.0446 195.032 55.7422 194.217 57.1375C193.402 58.5254 192.991 60.5632 192.983 63.251C192.976 65.0501 193.156 66.5629 193.523 67.7892C193.897 69.0156 194.426 69.9409 195.109 70.5651C195.792 71.1819 196.604 71.4904 197.543 71.4904ZM218.233 74.9381C216.419 74.9381 214.862 74.4792 213.562 73.5612C212.27 72.636 211.275 71.3031 210.577 69.5627C209.887 67.8149 209.542 65.711 209.542 63.251C209.549 60.7909 209.898 58.698 210.588 56.9723C211.286 55.2392 212.281 53.9174 213.573 53.0068C214.873 52.0962 216.426 51.6409 218.233 51.6409C220.039 51.6409 221.593 52.0962 222.892 53.0068C224.192 53.9174 225.187 55.2392 225.877 56.9723C226.575 58.7053 226.924 60.7982 226.924 63.251C226.924 65.7184 226.575 67.826 225.877 69.5737C225.187 71.3141 224.192 72.6433 222.892 73.5612C221.6 74.4792 220.047 74.9381 218.233 74.9381ZM218.233 71.4904C219.643 71.4904 220.755 70.7964 221.571 69.4085C222.393 68.0132 222.804 65.9607 222.804 63.251C222.804 61.4591 222.617 59.9537 222.242 58.7347C221.868 57.5157 221.339 56.5977 220.656 55.9809C219.973 55.3567 219.166 55.0446 218.233 55.0446C216.83 55.0446 215.721 55.7422 214.906 57.1375C214.091 58.5254 213.68 60.5632 213.673 63.251C213.665 65.0501 213.845 66.5629 214.212 67.7892C214.587 69.0156 215.116 69.9409 215.799 70.5651C216.481 71.1819 217.293 71.4904 218.233 71.4904Z" fill="#343C6A"/>
<path d="M50.5794 392.453H47.7155L55.9989 369.893H58.8188L67.1023 392.453H64.2384L57.497 373.462H57.3208L50.5794 392.453ZM51.6369 383.64H63.1809V386.064H51.6369V383.64ZM80.9265 385.535V375.533H83.5261V392.453H80.9265V389.589H80.7502C80.3537 390.448 79.7368 391.179 78.8997 391.781C78.0625 392.376 77.005 392.673 75.7273 392.673C74.6698 392.673 73.7298 392.442 72.9074 391.979C72.0849 391.509 71.4387 390.804 70.9687 389.864C70.4987 388.917 70.2637 387.723 70.2637 386.284V375.533H72.8633V386.108C72.8633 387.342 73.2084 388.326 73.8987 389.06C74.5964 389.794 75.4849 390.161 76.5644 390.161C77.2107 390.161 77.8679 389.996 78.5362 389.666C79.2118 389.335 79.7772 388.829 80.2325 388.146C80.6951 387.463 80.9265 386.593 80.9265 385.535ZM95.1169 399.15C93.8611 399.15 92.7816 398.988 91.8784 398.665C90.9751 398.349 90.2224 397.931 89.6203 397.41C89.0254 396.895 88.5518 396.345 88.1993 395.757L90.2702 394.303C90.5051 394.612 90.8026 394.964 91.1624 395.361C91.5222 395.765 92.0142 396.113 92.6384 396.407C93.27 396.708 94.0961 396.859 95.1169 396.859C96.4828 396.859 97.61 396.528 98.4986 395.867C99.3871 395.206 99.8314 394.171 99.8314 392.761V389.324H99.6111C99.4202 389.633 99.1485 390.015 98.796 390.47C98.4508 390.918 97.9515 391.318 97.2979 391.671C96.6517 392.016 95.7778 392.188 94.6763 392.188C93.3104 392.188 92.084 391.865 90.9972 391.219C89.9177 390.573 89.0622 389.633 88.4306 388.399C87.8064 387.165 87.4943 385.667 87.4943 383.905C87.4943 382.172 87.7991 380.663 88.4086 379.378C89.0181 378.085 89.8663 377.086 90.9531 376.381C92.0399 375.669 93.2957 375.313 94.7203 375.313C95.8218 375.313 96.6957 375.496 97.342 375.864C97.9955 376.223 98.4949 376.635 98.84 377.097C99.1925 377.553 99.4642 377.927 99.6552 378.221H99.9195V375.533H102.431V392.937C102.431 394.391 102.101 395.574 101.44 396.484C100.786 397.402 99.9048 398.074 98.796 398.5C97.6944 398.933 96.4681 399.15 95.1169 399.15ZM95.0287 389.853C96.0715 389.853 96.9527 389.614 97.6724 389.137C98.3921 388.66 98.9392 387.973 99.3137 387.077C99.6882 386.181 99.8755 385.109 99.8755 383.861C99.8755 382.642 99.6919 381.566 99.3247 380.633C98.9575 379.701 98.4141 378.97 97.6944 378.441C96.9748 377.912 96.0862 377.648 95.0287 377.648C93.9272 377.648 93.0093 377.927 92.2749 378.485C91.5479 379.043 91.0008 379.792 90.6337 380.732C90.2738 381.672 90.0939 382.715 90.0939 383.861C90.0939 385.036 90.2775 386.075 90.6447 386.978C91.0192 387.874 91.57 388.579 92.297 389.093C93.0313 389.6 93.9419 389.853 95.0287 389.853Z" fill="#718EBF"/>
<rect x="49.4513" y="168.584" width="56.8681" height="178.359" rx="18.0944" fill="#EDF0F7"/>
<path d="M147.175 392.452H140.213V369.893H147.483C149.672 369.893 151.544 370.345 153.101 371.248C154.658 372.144 155.851 373.433 156.681 375.114C157.511 376.789 157.926 378.793 157.926 381.129C157.926 383.479 157.507 385.502 156.67 387.198C155.833 388.887 154.614 390.187 153.013 391.098C151.412 392.001 149.466 392.452 147.175 392.452ZM142.945 390.029H146.999C148.864 390.029 150.41 389.669 151.636 388.95C152.862 388.23 153.777 387.205 154.379 385.876C154.981 384.547 155.282 382.965 155.282 381.129C155.282 379.308 154.985 377.74 154.39 376.425C153.795 375.103 152.906 374.09 151.724 373.385C150.542 372.673 149.069 372.317 147.307 372.317H142.945V390.029ZM169.249 392.805C167.619 392.805 166.213 392.445 165.031 391.725C163.856 390.998 162.949 389.985 162.31 388.685C161.678 387.378 161.362 385.858 161.362 384.125C161.362 382.392 161.678 380.864 162.31 379.543C162.949 378.213 163.837 377.178 164.975 376.436C166.121 375.687 167.458 375.313 168.985 375.313C169.866 375.313 170.736 375.46 171.596 375.753C172.455 376.047 173.237 376.524 173.942 377.185C174.647 377.839 175.209 378.705 175.627 379.785C176.046 380.864 176.255 382.194 176.255 383.772V384.874H163.213V382.627H173.611C173.611 381.672 173.421 380.82 173.039 380.071C172.664 379.322 172.128 378.731 171.43 378.298C170.74 377.865 169.925 377.648 168.985 377.648C167.95 377.648 167.054 377.905 166.297 378.419C165.548 378.926 164.972 379.587 164.568 380.402C164.164 381.217 163.962 382.091 163.962 383.023V384.521C163.962 385.799 164.182 386.882 164.623 387.771C165.071 388.652 165.691 389.324 166.485 389.787C167.278 390.242 168.199 390.47 169.249 390.47C169.932 390.47 170.549 390.374 171.1 390.183C171.658 389.985 172.139 389.691 172.543 389.302C172.947 388.905 173.259 388.413 173.479 387.826L175.991 388.531C175.726 389.383 175.282 390.132 174.658 390.778C174.034 391.417 173.263 391.916 172.345 392.276C171.427 392.629 170.395 392.805 169.249 392.805ZM187.083 392.805C185.497 392.805 184.131 392.43 182.985 391.681C181.84 390.932 180.959 389.901 180.342 388.586C179.725 387.272 179.416 385.77 179.416 384.081C179.416 382.362 179.732 380.846 180.364 379.531C181.003 378.21 181.891 377.178 183.029 376.436C184.175 375.687 185.512 375.313 187.039 375.313C188.229 375.313 189.301 375.533 190.255 375.974C191.21 376.414 191.992 377.031 192.602 377.824C193.211 378.617 193.589 379.543 193.736 380.6H191.137C190.938 379.829 190.498 379.146 189.815 378.551C189.139 377.949 188.229 377.648 187.083 377.648C186.07 377.648 185.181 377.912 184.417 378.441C183.661 378.962 183.07 379.7 182.644 380.655C182.225 381.602 182.016 382.715 182.016 383.993C182.016 385.3 182.222 386.438 182.633 387.407C183.052 388.377 183.639 389.129 184.395 389.666C185.159 390.202 186.055 390.47 187.083 390.47C187.759 390.47 188.372 390.352 188.923 390.117C189.473 389.882 189.94 389.544 190.322 389.104C190.703 388.663 190.975 388.134 191.137 387.518H193.736C193.589 388.516 193.226 389.416 192.646 390.216C192.073 391.009 191.313 391.641 190.366 392.111C189.426 392.574 188.331 392.805 187.083 392.805Z" fill="#718EBF"/>
<g filter="url(#filter0_d_585_521)">
<rect x="139.905" y="91.0364" width="56.8681" height="255.906" rx="18.0944" fill="#3D44E3"/>
</g>
<path d="M252.512 381.173C252.512 383.552 252.082 385.608 251.223 387.342C250.364 389.075 249.185 390.411 247.687 391.351C246.189 392.291 244.478 392.761 242.554 392.761C240.63 392.761 238.919 392.291 237.421 391.351C235.923 390.411 234.744 389.075 233.885 387.342C233.026 385.608 232.596 383.552 232.596 381.173C232.596 378.794 233.026 376.738 233.885 375.004C234.744 373.271 235.923 371.935 237.421 370.995C238.919 370.055 240.63 369.585 242.554 369.585C244.478 369.585 246.189 370.055 247.687 370.995C249.185 371.935 250.364 373.271 251.223 375.004C252.082 376.738 252.512 378.794 252.512 381.173ZM249.868 381.173C249.868 379.22 249.541 377.571 248.888 376.227C248.242 374.883 247.364 373.866 246.255 373.176C245.154 372.486 243.92 372.141 242.554 372.141C241.188 372.141 239.951 372.486 238.842 373.176C237.74 373.866 236.863 374.883 236.209 376.227C235.563 377.571 235.24 379.22 235.24 381.173C235.24 383.126 235.563 384.775 236.209 386.119C236.863 387.463 237.74 388.48 238.842 389.17C239.951 389.86 241.188 390.206 242.554 390.206C243.92 390.206 245.154 389.86 246.255 389.17C247.364 388.48 248.242 387.463 248.888 386.119C249.541 384.775 249.868 383.126 249.868 381.173ZM263.626 392.805C262.04 392.805 260.674 392.431 259.529 391.682C258.383 390.933 257.502 389.901 256.885 388.586C256.268 387.272 255.96 385.77 255.96 384.081C255.96 382.363 256.275 380.846 256.907 379.532C257.546 378.21 258.434 377.178 259.573 376.436C260.718 375.687 262.055 375.313 263.582 375.313C264.772 375.313 265.844 375.533 266.799 375.974C267.753 376.414 268.535 377.031 269.145 377.824C269.754 378.617 270.133 379.543 270.28 380.6H267.68C267.482 379.829 267.041 379.146 266.358 378.551C265.682 377.949 264.772 377.648 263.626 377.648C262.613 377.648 261.724 377.912 260.961 378.441C260.204 378.963 259.613 379.701 259.187 380.655C258.769 381.603 258.559 382.715 258.559 383.993C258.559 385.3 258.765 386.438 259.176 387.408C259.595 388.377 260.182 389.13 260.939 389.666C261.702 390.202 262.598 390.47 263.626 390.47C264.302 390.47 264.915 390.352 265.466 390.117C266.017 389.882 266.483 389.545 266.865 389.104C267.247 388.663 267.518 388.135 267.68 387.518H270.28C270.133 388.517 269.769 389.416 269.189 390.217C268.616 391.01 267.856 391.641 266.909 392.111C265.969 392.574 264.875 392.805 263.626 392.805ZM281.438 375.533V377.736H272.67V375.533H281.438ZM275.225 371.48H277.825V387.606C277.825 388.34 277.931 388.891 278.144 389.258C278.365 389.618 278.644 389.86 278.982 389.985C279.327 390.103 279.69 390.161 280.072 390.161C280.358 390.161 280.593 390.147 280.777 390.117C280.961 390.081 281.108 390.051 281.218 390.029L281.746 392.365C281.57 392.431 281.324 392.497 281.008 392.563C280.693 392.636 280.292 392.673 279.808 392.673C279.073 392.673 278.354 392.515 277.649 392.199C276.951 391.884 276.371 391.403 275.908 390.756C275.453 390.11 275.225 389.295 275.225 388.311V371.48Z" fill="#718EBF"/>
<rect x="227.772" y="155.659" width="56.8681" height="191.284" rx="18.0944" fill="#EDF0F7"/>
<path d="M330.841 375.533C330.709 374.417 330.173 373.55 329.233 372.934C328.293 372.317 327.14 372.008 325.774 372.008C324.775 372.008 323.901 372.17 323.152 372.493C322.411 372.816 321.831 373.26 321.412 373.826C321.001 374.391 320.795 375.034 320.795 375.754C320.795 376.356 320.938 376.873 321.225 377.307C321.519 377.733 321.893 378.089 322.348 378.375C322.804 378.654 323.281 378.886 323.78 379.069C324.28 379.245 324.739 379.389 325.157 379.499L327.448 380.116C328.036 380.27 328.689 380.483 329.409 380.754C330.136 381.026 330.83 381.397 331.491 381.867C332.159 382.33 332.71 382.924 333.143 383.651C333.577 384.378 333.793 385.271 333.793 386.328C333.793 387.547 333.474 388.649 332.835 389.633C332.203 390.617 331.278 391.399 330.059 391.979C328.847 392.559 327.375 392.849 325.642 392.849C324.026 392.849 322.627 392.588 321.445 392.067C320.27 391.546 319.345 390.819 318.669 389.886C318.001 388.953 317.623 387.87 317.535 386.637H320.355C320.428 387.488 320.714 388.193 321.214 388.752C321.72 389.302 322.359 389.714 323.13 389.985C323.909 390.25 324.746 390.382 325.642 390.382C326.685 390.382 327.621 390.213 328.451 389.875C329.281 389.53 329.938 389.053 330.423 388.443C330.907 387.826 331.15 387.107 331.15 386.284C331.15 385.535 330.94 384.926 330.522 384.456C330.103 383.986 329.552 383.604 328.869 383.31C328.186 383.016 327.448 382.759 326.655 382.539L323.879 381.746C322.117 381.239 320.722 380.516 319.694 379.576C318.666 378.636 318.152 377.406 318.152 375.886C318.152 374.623 318.493 373.521 319.176 372.581C319.866 371.634 320.791 370.899 321.952 370.378C323.119 369.849 324.423 369.585 325.862 369.585C327.316 369.585 328.609 369.846 329.74 370.367C330.87 370.881 331.766 371.586 332.427 372.482C333.096 373.378 333.448 374.395 333.485 375.533H330.841ZM345.026 392.805C343.396 392.805 341.989 392.445 340.807 391.726C339.632 390.999 338.725 389.985 338.086 388.685C337.455 387.378 337.139 385.858 337.139 384.125C337.139 382.392 337.455 380.865 338.086 379.543C338.725 378.214 339.614 377.178 340.752 376.436C341.898 375.687 343.234 375.313 344.762 375.313C345.643 375.313 346.513 375.46 347.372 375.754C348.231 376.047 349.013 376.525 349.718 377.185C350.423 377.839 350.985 378.706 351.404 379.785C351.822 380.865 352.032 382.194 352.032 383.773V384.874H338.99V382.627H349.388C349.388 381.672 349.197 380.821 348.815 380.071C348.441 379.322 347.905 378.731 347.207 378.298C346.517 377.865 345.702 377.648 344.762 377.648C343.726 377.648 342.83 377.905 342.074 378.419C341.325 378.926 340.748 379.587 340.344 380.402C339.941 381.217 339.739 382.091 339.739 383.024V384.522C339.739 385.799 339.959 386.883 340.4 387.771C340.848 388.652 341.468 389.324 342.261 389.787C343.054 390.242 343.976 390.47 345.026 390.47C345.709 390.47 346.326 390.374 346.877 390.183C347.435 389.985 347.916 389.691 348.32 389.302C348.723 388.906 349.036 388.414 349.256 387.826L351.767 388.531C351.503 389.383 351.059 390.132 350.434 390.778C349.81 391.417 349.039 391.917 348.121 392.276C347.203 392.629 346.172 392.805 345.026 392.805ZM355.986 398.797V375.533H358.498V378.221H358.806C358.997 377.927 359.261 377.553 359.599 377.097C359.944 376.635 360.436 376.223 361.075 375.864C361.721 375.496 362.595 375.313 363.697 375.313C365.121 375.313 366.377 375.669 367.464 376.381C368.551 377.094 369.399 378.103 370.009 379.411C370.618 380.718 370.923 382.26 370.923 384.037C370.923 385.829 370.618 387.382 370.009 388.696C369.399 390.004 368.555 391.017 367.475 391.737C366.396 392.449 365.151 392.805 363.741 392.805C362.654 392.805 361.784 392.625 361.13 392.265C360.477 391.898 359.974 391.483 359.621 391.021C359.269 390.551 358.997 390.161 358.806 389.853H358.586V398.797H355.986ZM358.542 383.993C358.542 385.271 358.729 386.398 359.103 387.375C359.478 388.344 360.025 389.104 360.745 389.655C361.464 390.198 362.346 390.47 363.388 390.47C364.475 390.47 365.382 390.183 366.109 389.611C366.844 389.031 367.394 388.252 367.761 387.275C368.136 386.291 368.323 385.197 368.323 383.993C368.323 382.803 368.14 381.731 367.772 380.776C367.413 379.814 366.866 379.054 366.131 378.496C365.404 377.931 364.49 377.648 363.388 377.648C362.331 377.648 361.442 377.916 360.723 378.452C360.003 378.981 359.46 379.723 359.092 380.677C358.725 381.625 358.542 382.73 358.542 383.993Z" fill="#718EBF"/>
<rect x="315.641" y="60.0176" width="56.8681" height="286.925" rx="18.0944" fill="#EDF0F7"/>
<path d="M424.499 369.893V392.453H421.855L409.562 374.74H409.342V392.453H406.61V369.893H409.254L421.591 387.65H421.811V369.893H424.499ZM436.487 392.805C434.959 392.805 433.619 392.442 432.466 391.715C431.32 390.988 430.424 389.971 429.778 388.663C429.139 387.356 428.82 385.829 428.82 384.081C428.82 382.319 429.139 380.78 429.778 379.466C430.424 378.151 431.32 377.13 432.466 376.403C433.619 375.676 434.959 375.313 436.487 375.313C438.014 375.313 439.35 375.676 440.496 376.403C441.649 377.13 442.545 378.151 443.184 379.466C443.83 380.78 444.153 382.319 444.153 384.081C444.153 385.829 443.83 387.356 443.184 388.663C442.545 389.971 441.649 390.988 440.496 391.715C439.35 392.442 438.014 392.805 436.487 392.805ZM436.487 390.47C437.647 390.47 438.601 390.172 439.35 389.578C440.1 388.983 440.654 388.201 441.014 387.231C441.374 386.262 441.554 385.212 441.554 384.081C441.554 382.95 441.374 381.896 441.014 380.92C440.654 379.943 440.1 379.154 439.35 378.551C438.601 377.949 437.647 377.648 436.487 377.648C435.326 377.648 434.372 377.949 433.623 378.551C432.874 379.154 432.319 379.943 431.959 380.92C431.599 381.896 431.419 382.95 431.419 384.081C431.419 385.212 431.599 386.262 431.959 387.231C432.319 388.201 432.874 388.983 433.623 389.578C434.372 390.172 435.326 390.47 436.487 390.47ZM461.351 375.533L455.094 392.453H452.45L446.194 375.533H449.014L453.684 389.016H453.86L458.531 375.533H461.351Z" fill="#718EBF"/>
<rect x="406.225" y="243.547" width="56.8681" height="100.812" rx="18.0944" fill="#EDF0F7"/>
<path d="M508.276 369.893H511.008V386.02C511.008 387.459 510.744 388.682 510.215 389.688C509.686 390.694 508.941 391.458 507.979 391.979C507.017 392.5 505.882 392.761 504.575 392.761C503.341 392.761 502.244 392.537 501.282 392.089C500.32 391.634 499.563 390.988 499.012 390.15C498.462 389.313 498.186 388.318 498.186 387.165H500.874C500.874 387.804 501.032 388.362 501.348 388.84C501.671 389.31 502.111 389.677 502.67 389.941C503.228 390.206 503.863 390.338 504.575 390.338C505.361 390.338 506.029 390.172 506.58 389.842C507.131 389.512 507.549 389.027 507.836 388.388C508.129 387.742 508.276 386.952 508.276 386.02V369.893ZM521.109 392.849C520.037 392.849 519.064 392.647 518.19 392.243C517.316 391.832 516.622 391.241 516.108 390.47C515.594 389.691 515.337 388.752 515.337 387.65C515.337 386.681 515.528 385.895 515.91 385.293C516.292 384.683 516.802 384.206 517.441 383.861C518.08 383.516 518.785 383.259 519.556 383.09C520.334 382.913 521.116 382.774 521.902 382.671C522.93 382.539 523.764 382.44 524.403 382.374C525.049 382.3 525.519 382.179 525.813 382.01C526.114 381.841 526.264 381.548 526.264 381.129V381.041C526.264 379.954 525.967 379.109 525.372 378.507C524.784 377.905 523.892 377.604 522.695 377.604C521.454 377.604 520.481 377.876 519.776 378.419C519.071 378.963 518.576 379.543 518.289 380.16L515.822 379.278C516.262 378.25 516.85 377.45 517.584 376.877C518.326 376.297 519.134 375.893 520.008 375.665C520.889 375.43 521.755 375.313 522.607 375.313C523.151 375.313 523.775 375.379 524.48 375.511C525.192 375.636 525.879 375.897 526.54 376.293C527.208 376.69 527.762 377.288 528.203 378.089C528.643 378.889 528.864 379.961 528.864 381.305V392.453H526.264V390.161H526.132C525.956 390.529 525.662 390.922 525.251 391.34C524.84 391.759 524.292 392.115 523.61 392.409C522.927 392.702 522.093 392.849 521.109 392.849ZM521.506 390.514C522.534 390.514 523.4 390.312 524.105 389.908C524.818 389.504 525.354 388.983 525.713 388.344C526.081 387.705 526.264 387.033 526.264 386.328V383.949C526.154 384.081 525.912 384.202 525.537 384.312C525.17 384.415 524.744 384.507 524.259 384.588C523.782 384.661 523.316 384.727 522.86 384.786C522.413 384.837 522.049 384.881 521.77 384.918C521.094 385.006 520.463 385.15 519.875 385.348C519.295 385.539 518.825 385.829 518.465 386.218C518.113 386.6 517.937 387.121 517.937 387.782C517.937 388.685 518.271 389.368 518.939 389.831C519.615 390.286 520.47 390.514 521.506 390.514ZM536.208 382.275V392.453H533.609V375.533H536.12V378.177H536.34C536.737 377.318 537.339 376.627 538.147 376.106C538.955 375.577 539.997 375.313 541.275 375.313C542.421 375.313 543.423 375.548 544.282 376.018C545.142 376.481 545.81 377.185 546.287 378.133C546.764 379.073 547.003 380.262 547.003 381.702V392.453H544.404V381.878C544.404 380.549 544.058 379.513 543.368 378.772C542.678 378.023 541.731 377.648 540.526 377.648C539.696 377.648 538.955 377.828 538.301 378.188C537.655 378.548 537.145 379.073 536.77 379.763C536.395 380.453 536.208 381.291 536.208 382.275Z" fill="#718EBF"/>
<rect x="494.056" y="178.924" width="56.8681" height="168.019" rx="18.0944" fill="#EDF0F7"/>
<defs>
<filter id="filter0_d_585_521" x="49.4326" y="0.564407" width="237.812" height="436.85" filterUnits="userSpaceOnUse" color-interpolation-filters="sRGB">
<feFlood flood-opacity="0" result="BackgroundImageFix"/>
<feColorMatrix in="SourceAlpha" type="matrix" values="0 0 0 0 0 0 0 0 0 0 0 0 0 0 0 0 0 0 127 0" result="hardAlpha"/>
<feOffset/>
<feGaussianBlur stdDeviation="45.236"/>
<feColorMatrix type="matrix" values="0 0 0 0 0.0705882 0 0 0 0 0.533333 0 0 0 0 0.494771 0 0 0 0.2 0"/>
<feBlend mode="normal" in2="BackgroundImageFix" result="effect1_dropShadow_585_521"/>
<feBlend mode="normal" in="SourceGraphic" in2="effect1_dropShadow_585_521" result="shape"/>
</filter>
</defs>
</svg>
