<svg width="451" height="486" viewBox="0 0 451 486" fill="none" xmlns="http://www.w3.org/2000/svg">
<rect y="0.428589" width="451" height="154.629" rx="32.2143" fill="white"/>
<path d="M138.664 102.318V89.6522H141.538V102.318H138.664ZM133.768 97.4221V94.5484H146.434V97.4221H133.768ZM156.956 105.576C155.736 105.576 154.644 105.348 153.68 104.89C152.716 104.426 151.95 103.792 151.383 102.986C150.822 102.181 150.523 101.26 150.486 100.223H153.781C153.842 100.991 154.174 101.62 154.778 102.108C155.382 102.59 156.108 102.831 156.956 102.831C157.621 102.831 158.213 102.678 158.732 102.373C159.25 102.068 159.659 101.644 159.958 101.101C160.257 100.558 160.404 99.9388 160.397 99.2433C160.404 98.5355 160.254 97.9071 159.949 97.358C159.644 96.8089 159.226 96.3788 158.695 96.0676C158.164 95.7504 157.554 95.5917 156.865 95.5917C156.304 95.5856 155.751 95.6893 155.208 95.9029C154.665 96.1164 154.235 96.3971 153.918 96.7448L150.852 96.2415L151.831 86.5772H162.704V89.4143H154.641L154.101 94.3837H154.211C154.559 93.9749 155.05 93.6363 155.684 93.3678C156.319 93.0933 157.014 92.956 157.771 92.956C158.906 92.956 159.918 93.2245 160.809 93.7614C161.7 94.2922 162.402 95.0243 162.914 95.9578C163.427 96.8913 163.683 97.959 163.683 99.1609C163.683 100.399 163.396 101.504 162.823 102.474C162.255 103.438 161.465 104.197 160.452 104.753C159.446 105.302 158.28 105.576 156.956 105.576ZM168.197 105.521C167.642 105.521 167.166 105.326 166.769 104.936C166.373 104.545 166.178 104.069 166.184 103.508C166.178 102.959 166.373 102.489 166.769 102.099C167.166 101.708 167.642 101.513 168.197 101.513C168.734 101.513 169.201 101.708 169.597 102.099C170 102.489 170.204 102.959 170.21 103.508C170.204 103.88 170.107 104.219 169.918 104.524C169.735 104.829 169.491 105.073 169.185 105.256C168.886 105.433 168.557 105.521 168.197 105.521ZM179.552 105.576C178.192 105.576 176.984 105.348 175.928 104.89C174.879 104.432 174.055 103.807 173.457 103.014C172.865 102.215 172.572 101.309 172.578 100.296C172.572 99.5087 172.743 98.7857 173.091 98.1268C173.439 97.4678 173.909 96.9187 174.5 96.4794C175.098 96.0341 175.763 95.7504 176.495 95.6283V95.5002C175.531 95.2867 174.75 94.7955 174.153 94.0268C173.561 93.2519 173.268 92.3581 173.274 91.3453C173.268 90.3813 173.536 89.521 174.079 88.7645C174.622 88.0079 175.367 87.4131 176.312 86.9799C177.258 86.5406 178.338 86.321 179.552 86.321C180.754 86.321 181.825 86.5406 182.764 86.9799C183.71 87.4131 184.454 88.0079 184.997 88.7645C185.547 89.521 185.821 90.3813 185.821 91.3453C185.821 92.3581 185.519 93.2519 184.915 94.0268C184.317 94.7955 183.545 95.2867 182.6 95.5002V95.6283C183.332 95.7504 183.991 96.0341 184.576 96.4794C185.168 96.9187 185.638 97.4678 185.986 98.1268C186.34 98.7857 186.517 99.5087 186.517 100.296C186.517 101.309 186.218 102.215 185.62 103.014C185.022 103.807 184.198 104.432 183.149 104.89C182.105 105.348 180.907 105.576 179.552 105.576ZM179.552 102.959C180.254 102.959 180.864 102.84 181.382 102.602C181.901 102.358 182.304 102.016 182.591 101.577C182.877 101.138 183.024 100.631 183.03 100.058C183.024 99.4599 182.868 98.9321 182.563 98.4745C182.264 98.0108 181.852 97.6478 181.328 97.3855C180.809 97.1231 180.217 96.9919 179.552 96.9919C178.881 96.9919 178.283 97.1231 177.758 97.3855C177.234 97.6478 176.819 98.0108 176.514 98.4745C176.215 98.9321 176.068 99.4599 176.074 100.058C176.068 100.631 176.209 101.138 176.495 101.577C176.782 102.01 177.185 102.349 177.703 102.593C178.228 102.837 178.844 102.959 179.552 102.959ZM179.552 94.4203C180.126 94.4203 180.632 94.3044 181.071 94.0725C181.517 93.8407 181.868 93.5173 182.124 93.1024C182.38 92.6876 182.511 92.2086 182.517 91.6656C182.511 91.1287 182.383 90.6589 182.133 90.2562C181.883 89.8474 181.535 89.5332 181.09 89.3136C180.644 89.0879 180.132 88.975 179.552 88.975C178.96 88.975 178.439 89.0879 177.987 89.3136C177.542 89.5332 177.194 89.8474 176.944 90.2562C176.7 90.6589 176.581 91.1287 176.587 91.6656C176.581 92.2086 176.703 92.6876 176.953 93.1024C177.209 93.5112 177.56 93.8346 178.005 94.0725C178.457 94.3044 178.973 94.4203 179.552 94.4203ZM196.453 105.677C194.946 105.677 193.653 105.296 192.573 104.533C191.499 103.764 190.672 102.657 190.093 101.211C189.519 99.7588 189.232 98.0108 189.232 95.9669C189.239 93.923 189.528 92.1842 190.102 90.7504C190.681 89.3105 191.508 88.2123 192.582 87.4558C193.662 86.6992 194.952 86.321 196.453 86.321C197.954 86.321 199.244 86.6992 200.324 87.4558C201.404 88.2123 202.231 89.3105 202.805 90.7504C203.384 92.1903 203.674 93.9291 203.674 95.9669C203.674 98.0169 203.384 99.768 202.805 101.22C202.231 102.666 201.404 103.77 200.324 104.533C199.251 105.296 197.96 105.677 196.453 105.677ZM196.453 102.812C197.625 102.812 198.549 102.236 199.226 101.083C199.91 99.9236 200.251 98.2183 200.251 95.9669C200.251 94.4783 200.096 93.2275 199.784 92.2147C199.473 91.2019 199.034 90.4393 198.467 89.9268C197.899 89.4082 197.228 89.1489 196.453 89.1489C195.288 89.1489 194.367 89.7285 193.689 90.8877C193.012 92.0408 192.67 93.7339 192.664 95.9669C192.658 97.4617 192.808 98.7186 193.113 99.7375C193.424 100.756 193.863 101.525 194.431 102.044C194.998 102.556 195.672 102.812 196.453 102.812ZM216.736 101.806V100.817C216.736 100.091 216.888 99.4233 217.193 98.8131C217.505 98.203 217.956 97.7119 218.548 97.3397C219.14 96.9675 219.857 96.7815 220.699 96.7815C221.565 96.7815 222.291 96.9675 222.877 97.3397C223.462 97.7058 223.905 98.1939 224.204 98.804C224.509 99.4141 224.661 100.085 224.661 100.817V101.806C224.661 102.532 224.509 103.2 224.204 103.81C223.899 104.42 223.45 104.911 222.858 105.283C222.273 105.656 221.553 105.842 220.699 105.842C219.844 105.842 219.121 105.656 218.53 105.283C217.938 104.911 217.489 104.42 217.184 103.81C216.885 103.2 216.736 102.532 216.736 101.806ZM219.124 100.817V101.806C219.124 102.288 219.24 102.73 219.472 103.133C219.704 103.535 220.113 103.737 220.699 103.737C221.29 103.737 221.696 103.539 221.916 103.142C222.141 102.739 222.254 102.294 222.254 101.806V100.817C222.254 100.329 222.148 99.8839 221.934 99.4812C221.72 99.0724 221.309 98.8681 220.699 98.8681C220.125 98.8681 219.719 99.0724 219.481 99.4812C219.243 99.8839 219.124 100.329 219.124 100.817ZM207.209 91.0799V90.0915C207.209 89.3594 207.364 88.6882 207.676 88.0781C207.987 87.468 208.438 86.9799 209.03 86.6138C209.622 86.2416 210.339 86.0556 211.181 86.0556C212.041 86.0556 212.764 86.2416 213.35 86.6138C213.941 86.9799 214.387 87.468 214.686 88.0781C214.985 88.6882 215.134 89.3594 215.134 90.0915V91.0799C215.134 91.812 214.982 92.4832 214.677 93.0933C214.378 93.6973 213.932 94.1823 213.341 94.5484C212.749 94.9145 212.029 95.0975 211.181 95.0975C210.32 95.0975 209.594 94.9145 209.003 94.5484C208.417 94.1823 207.971 93.6943 207.666 93.0841C207.361 92.474 207.209 91.8059 207.209 91.0799ZM209.616 90.0915V91.0799C209.616 91.568 209.729 92.0134 209.954 92.4161C210.186 92.8126 210.595 93.0109 211.181 93.0109C211.766 93.0109 212.169 92.8126 212.389 92.4161C212.614 92.0134 212.727 91.568 212.727 91.0799V90.0915C212.727 89.6034 212.621 89.158 212.407 88.7553C212.193 88.3466 211.785 88.1422 211.181 88.1422C210.601 88.1422 210.195 88.3466 209.964 88.7553C209.732 89.1641 209.616 89.6095 209.616 90.0915ZM208.252 105.32L221.138 86.5772H223.426L210.54 105.32H208.252Z" fill="#141414"/>
<path d="M133.25 65.5287V50.5344H138.316C139.488 50.5344 140.449 50.7345 141.201 51.1348C141.953 51.5301 142.509 52.0743 142.87 52.7674C143.232 53.4605 143.412 54.2488 143.412 55.1323C143.412 56.0157 143.232 56.7991 142.87 57.4824C142.509 58.1658 141.955 58.7027 141.208 59.0932C140.462 59.4787 139.507 59.6715 138.346 59.6715H134.246V58.0315H138.287C139.088 58.0315 139.732 57.9144 140.22 57.6801C140.713 57.4458 141.069 57.1139 141.289 56.6844C141.513 56.25 141.626 55.7326 141.626 55.1323C141.626 54.5319 141.513 54.0072 141.289 53.5582C141.064 53.1091 140.706 52.7626 140.213 52.5185C139.72 52.2696 139.068 52.1451 138.258 52.1451H135.066V65.5287H133.25ZM140.308 58.793L143.998 65.5287H141.889L138.258 58.793H140.308ZM149.513 65.7923C148.8 65.7923 148.153 65.658 147.573 65.3896C146.992 65.1162 146.531 64.7233 146.189 64.2108C145.847 63.6934 145.676 63.0687 145.676 62.3365C145.676 61.6923 145.803 61.17 146.057 60.7698C146.311 60.3646 146.65 60.0474 147.075 59.818C147.499 59.5886 147.968 59.4177 148.48 59.3055C148.998 59.1883 149.518 59.0956 150.04 59.0273C150.723 58.9394 151.277 58.8735 151.702 58.8296C152.131 58.7808 152.444 58.7002 152.639 58.588C152.839 58.4757 152.939 58.2805 152.939 58.0023V57.9437C152.939 57.2213 152.742 56.66 152.346 56.2598C151.956 55.8595 151.363 55.6594 150.567 55.6594C149.742 55.6594 149.095 55.84 148.627 56.2012C148.158 56.5624 147.829 56.948 147.638 57.358L145.998 56.7723C146.291 56.0889 146.682 55.5569 147.17 55.1762C147.663 54.7906 148.2 54.5221 148.781 54.3708C149.366 54.2146 149.942 54.1365 150.508 54.1365C150.87 54.1365 151.285 54.1805 151.753 54.2683C152.227 54.3513 152.683 54.5246 153.122 54.7881C153.566 55.0517 153.935 55.4495 154.228 55.9815C154.521 56.5136 154.667 57.2262 154.667 58.1194V65.5287H152.939V64.0058H152.851C152.734 64.2499 152.539 64.511 152.266 64.7892C151.992 65.0674 151.629 65.3042 151.175 65.4994C150.721 65.6946 150.167 65.7923 149.513 65.7923ZM149.776 64.2401C150.46 64.2401 151.036 64.1059 151.504 63.8374C151.978 63.569 152.334 63.2224 152.573 62.7978C152.817 62.3732 152.939 61.9265 152.939 61.458V59.8765C152.866 59.9644 152.705 60.0449 152.456 60.1182C152.212 60.1865 151.929 60.2475 151.607 60.3012C151.289 60.35 150.979 60.3939 150.677 60.433C150.379 60.4671 150.138 60.4964 149.952 60.5208C149.503 60.5794 149.083 60.6746 148.693 60.8064C148.307 60.9333 147.995 61.1261 147.756 61.3848C147.521 61.6386 147.404 61.9851 147.404 62.4244C147.404 63.0248 147.626 63.4787 148.07 63.7862C148.519 64.0888 149.088 64.2401 149.776 64.2401ZM162.711 54.283V55.7473H156.884V54.283H162.711ZM158.582 51.5887H160.31V62.3073C160.31 62.7954 160.381 63.1614 160.522 63.4055C160.669 63.6446 160.854 63.8057 161.079 63.8887C161.308 63.9668 161.55 64.0058 161.804 64.0058C161.994 64.0058 162.15 63.9961 162.272 63.9765C162.394 63.9521 162.492 63.9326 162.565 63.918L162.916 65.4701C162.799 65.514 162.636 65.558 162.426 65.6019C162.216 65.6507 161.95 65.6751 161.628 65.6751C161.14 65.6751 160.661 65.5702 160.193 65.3603C159.729 65.1504 159.344 64.8307 159.036 64.4012C158.733 63.9717 158.582 63.4299 158.582 62.7758V51.5887ZM169.905 65.763C168.821 65.763 167.886 65.5238 167.101 65.0455C166.32 64.5623 165.717 63.8887 165.292 63.0248C164.873 62.1559 164.663 61.1456 164.663 59.9937C164.663 58.8418 164.873 57.8265 165.292 56.948C165.717 56.0645 166.308 55.3763 167.064 54.8833C167.825 54.3855 168.714 54.1365 169.729 54.1365C170.315 54.1365 170.893 54.2342 171.464 54.4294C172.035 54.6246 172.555 54.9419 173.024 55.3812C173.492 55.8156 173.866 56.3915 174.144 57.109C174.422 57.8265 174.561 58.71 174.561 59.7594V60.4915H165.893V58.998H172.804C172.804 58.3634 172.677 57.7973 172.423 57.2994C172.174 56.8015 171.818 56.4086 171.354 56.1207C170.896 55.8327 170.354 55.6887 169.729 55.6887C169.041 55.6887 168.445 55.8595 167.943 56.2012C167.445 56.538 167.062 56.9773 166.793 57.519C166.525 58.0608 166.39 58.6417 166.39 59.2615V60.2573C166.39 61.1065 166.537 61.8265 166.83 62.4171C167.128 63.0028 167.54 63.4494 168.067 63.7569C168.594 64.0595 169.207 64.2108 169.905 64.2108C170.359 64.2108 170.769 64.1474 171.135 64.0205C171.506 63.8887 171.825 63.6934 172.094 63.4348C172.362 63.1712 172.57 62.8442 172.716 62.4537L174.385 62.9223C174.21 63.4884 173.914 63.9863 173.5 64.4158C173.085 64.8405 172.572 65.1724 171.962 65.4115C171.352 65.6458 170.666 65.763 169.905 65.763ZM187.557 65.763C186.542 65.763 185.651 65.5214 184.884 65.0382C184.123 64.5549 183.528 63.8789 183.098 63.0101C182.673 62.1413 182.461 61.1261 182.461 59.9644C182.461 58.793 182.673 57.7704 183.098 56.8967C183.528 56.023 184.123 55.3446 184.884 54.8614C185.651 54.3782 186.542 54.1365 187.557 54.1365C188.572 54.1365 189.46 54.3782 190.222 54.8614C190.988 55.3446 191.584 56.023 192.008 56.8967C192.438 57.7704 192.652 58.793 192.652 59.9644C192.652 61.1261 192.438 62.1413 192.008 63.0101C191.584 63.8789 190.988 64.5549 190.222 65.0382C189.46 65.5214 188.572 65.763 187.557 65.763ZM187.557 64.2108C188.328 64.2108 188.962 64.0132 189.46 63.6178C189.958 63.2224 190.327 62.7026 190.566 62.0583C190.805 61.414 190.925 60.7161 190.925 59.9644C190.925 59.2127 190.805 58.5123 190.566 57.8632C190.327 57.214 189.958 56.6893 189.46 56.289C188.962 55.8888 188.328 55.6887 187.557 55.6887C186.786 55.6887 186.151 55.8888 185.653 56.289C185.155 56.6893 184.787 57.214 184.548 57.8632C184.308 58.5123 184.189 59.2127 184.189 59.9644C184.189 60.7161 184.308 61.414 184.548 62.0583C184.787 62.7026 185.155 63.2224 185.653 63.6178C186.151 64.0132 186.786 64.2108 187.557 64.2108ZM200.298 54.283V55.7473H194.236V54.283H200.298ZM196.051 65.5287V52.7308C196.051 52.0865 196.203 51.5496 196.505 51.1201C196.808 50.6906 197.201 50.3684 197.684 50.1537C198.167 49.9389 198.677 49.8315 199.214 49.8315C199.639 49.8315 199.985 49.8657 200.254 49.934C200.522 50.0024 200.722 50.0658 200.854 50.1244L200.356 51.618C200.269 51.5887 200.147 51.5521 199.99 51.5082C199.839 51.4642 199.639 51.4423 199.39 51.4423C198.819 51.4423 198.406 51.5862 198.153 51.8742C197.904 52.1622 197.779 52.5844 197.779 53.1408V65.5287H196.051ZM208.752 65.5287V50.5344H213.819C214.99 50.5344 215.952 50.7345 216.703 51.1348C217.455 51.5301 218.011 52.0743 218.373 52.7674C218.734 53.4605 218.914 54.2488 218.914 55.1323C218.914 56.0157 218.734 56.7991 218.373 57.4824C218.011 58.1658 217.457 58.7027 216.711 59.0932C215.964 59.4787 215.01 59.6715 213.848 59.6715H209.748V58.0315H213.789C214.59 58.0315 215.234 57.9144 215.722 57.6801C216.215 57.4458 216.572 57.1139 216.791 56.6844C217.016 56.25 217.128 55.7326 217.128 55.1323C217.128 54.5319 217.016 54.0072 216.791 53.5582C216.567 53.1091 216.208 52.7626 215.715 52.5185C215.222 52.2696 214.57 52.1451 213.76 52.1451H210.568V65.5287H208.752ZM215.81 58.793L219.5 65.5287H217.392L213.76 58.793H215.81ZM226.3 65.763C225.216 65.763 224.282 65.5238 223.496 65.0455C222.715 64.5623 222.112 63.8887 221.687 63.0248C221.268 62.1559 221.058 61.1456 221.058 59.9937C221.058 58.8418 221.268 57.8265 221.687 56.948C222.112 56.0645 222.703 55.3763 223.459 54.8833C224.221 54.3855 225.109 54.1365 226.124 54.1365C226.71 54.1365 227.288 54.2342 227.859 54.4294C228.43 54.6246 228.95 54.9419 229.419 55.3812C229.887 55.8156 230.261 56.3915 230.539 57.109C230.817 57.8265 230.956 58.71 230.956 59.7594V60.4915H222.288V58.998H229.199C229.199 58.3634 229.072 57.7973 228.818 57.2994C228.57 56.8015 228.213 56.4086 227.75 56.1207C227.291 55.8327 226.749 55.6887 226.124 55.6887C225.436 55.6887 224.841 55.8595 224.338 56.2012C223.84 56.538 223.457 56.9773 223.188 57.519C222.92 58.0608 222.786 58.6417 222.786 59.2615V60.2573C222.786 61.1065 222.932 61.8265 223.225 62.4171C223.523 63.0028 223.935 63.4494 224.462 63.7569C224.989 64.0595 225.602 64.2108 226.3 64.2108C226.754 64.2108 227.164 64.1474 227.53 64.0205C227.901 63.8887 228.221 63.6934 228.489 63.4348C228.757 63.1712 228.965 62.8442 229.111 62.4537L230.781 62.9223C230.605 63.4884 230.31 63.9863 229.895 64.4158C229.48 64.8405 228.967 65.1724 228.357 65.4115C227.747 65.6458 227.061 65.763 226.3 65.763ZM238.475 54.283V55.7473H232.648V54.283H238.475ZM234.346 51.5887H236.074V62.3073C236.074 62.7954 236.145 63.1614 236.286 63.4055C236.433 63.6446 236.618 63.8057 236.843 63.8887C237.072 63.9668 237.314 64.0058 237.568 64.0058C237.758 64.0058 237.914 63.9961 238.036 63.9765C238.158 63.9521 238.256 63.9326 238.329 63.918L238.68 65.4701C238.563 65.514 238.4 65.558 238.19 65.6019C237.98 65.6507 237.714 65.6751 237.392 65.6751C236.904 65.6751 236.425 65.5702 235.957 65.3603C235.493 65.1504 235.108 64.8307 234.8 64.4012C234.497 63.9717 234.346 63.4299 234.346 62.7758V51.5887ZM248.162 60.9308V54.283H249.89V65.5287H248.162V63.6251H248.045C247.781 64.1962 247.371 64.6818 246.815 65.0821C246.258 65.4774 245.555 65.6751 244.706 65.6751C244.003 65.6751 243.378 65.5214 242.832 65.2139C242.285 64.9015 241.856 64.4329 241.543 63.8082C241.231 63.1785 241.075 62.3854 241.075 61.4287V54.283H242.802V61.3115C242.802 62.1315 243.032 62.7856 243.491 63.2737C243.954 63.7618 244.545 64.0058 245.262 64.0058C245.692 64.0058 246.129 63.896 246.573 63.6764C247.022 63.4567 247.398 63.1199 247.7 62.666C248.008 62.2121 248.162 61.6337 248.162 60.9308ZM253.054 65.5287V54.283H254.724V55.9815H254.841C255.046 55.4251 255.417 54.9736 255.954 54.6271C256.49 54.2805 257.096 54.1073 257.769 54.1073C257.896 54.1073 258.055 54.1097 258.245 54.1146C258.435 54.1195 258.579 54.1268 258.677 54.1365V55.8937C258.619 55.879 258.484 55.8571 258.274 55.8278C258.069 55.7936 257.852 55.7765 257.623 55.7765C257.076 55.7765 256.588 55.8912 256.159 56.1207C255.734 56.3452 255.397 56.6576 255.148 57.0578C254.904 57.4532 254.782 57.9046 254.782 58.4123V65.5287H253.054ZM262.453 58.7637V65.5287H260.725V54.283H262.395V56.0401H262.541C262.805 55.469 263.205 55.0102 263.742 54.6637C264.279 54.3123 264.972 54.1365 265.821 54.1365C266.582 54.1365 267.249 54.2927 267.82 54.6051C268.391 54.9126 268.835 55.3812 269.152 56.0108C269.469 56.6356 269.628 57.4263 269.628 58.383V65.5287H267.9V58.5001C267.9 57.6167 267.671 56.9284 267.212 56.4355C266.753 55.9376 266.124 55.6887 265.323 55.6887C264.772 55.6887 264.279 55.8083 263.844 56.0474C263.415 56.2866 263.075 56.6356 262.827 57.0944C262.578 57.5532 262.453 58.1096 262.453 58.7637Z" fill="#141414"/>
<circle cx="72.1601" cy="77.743" r="45.1" fill="#E7EDFF"/>
<g clip-path="url(#clip0_585_406)">
<path d="M91.135 66.0166L83.887 58.7686C83.5415 58.4231 83.0221 58.3192 82.5703 58.5077C82.1185 58.6961 81.8237 59.1334 81.8237 59.6215V63.2454H66.1198C58.78 63.2454 52.8318 69.1936 52.8318 76.5334C52.8318 77.2002 53.373 77.7414 54.0398 77.7414H58.8718C59.5386 77.7414 60.0798 77.2002 60.0798 76.5334C60.0798 73.1969 62.7833 70.4934 66.1198 70.4934H81.8237V74.1174C81.8237 74.6055 82.1185 75.0476 82.5703 75.2336C83.0221 75.4221 83.5415 75.3182 83.887 74.9727L91.135 67.7247C91.6061 67.2536 91.6061 66.4877 91.135 66.0166Z" fill="#396AFF"/>
<path d="M90.2798 77.7418H85.4478C84.781 77.7418 84.2399 78.283 84.2399 78.9498C84.2399 82.2863 81.5364 84.9898 78.1999 84.9898H62.4959V81.3658C62.4959 80.8778 62.2011 80.4357 61.7493 80.2496C61.2976 80.0636 60.7805 80.1675 60.4326 80.513L53.1846 87.761C52.7135 88.2321 52.7135 88.998 53.1846 89.4691L60.4326 96.7171C60.7781 97.0626 61.2976 97.1665 61.7493 96.978C62.2011 96.7896 62.4959 96.3499 62.4959 95.8618V92.2378H78.1999C85.5397 92.2378 91.4878 86.2896 91.4878 78.9498C91.4878 78.283 90.9467 77.7418 90.2798 77.7418Z" fill="#396AFF"/>
</g>
<rect y="170.52" width="451" height="154.629" rx="32.2143" fill="white"/>
<path d="M132.43 220.948V219.337H143.676V220.948H138.961V234.331H137.145V220.948H132.43ZM149.181 234.566C148.166 234.566 147.275 234.324 146.509 233.841C145.748 233.358 145.152 232.682 144.723 231.813C144.298 230.944 144.086 229.929 144.086 228.767C144.086 227.596 144.298 226.573 144.723 225.699C145.152 224.826 145.748 224.147 146.509 223.664C147.275 223.181 148.166 222.939 149.181 222.939C150.197 222.939 151.085 223.181 151.846 223.664C152.613 224.147 153.208 224.826 153.633 225.699C154.062 226.573 154.277 227.596 154.277 228.767C154.277 229.929 154.062 230.944 153.633 231.813C153.208 232.682 152.613 233.358 151.846 233.841C151.085 234.324 150.197 234.566 149.181 234.566ZM149.181 233.014C149.953 233.014 150.587 232.816 151.085 232.421C151.583 232.025 151.951 231.505 152.191 230.861C152.43 230.217 152.549 229.519 152.549 228.767C152.549 228.015 152.43 227.315 152.191 226.666C151.951 226.017 151.583 225.492 151.085 225.092C150.587 224.692 149.953 224.491 149.181 224.491C148.41 224.491 147.776 224.692 147.278 225.092C146.78 225.492 146.412 226.017 146.172 226.666C145.933 227.315 145.814 228.015 145.814 228.767C145.814 229.519 145.933 230.217 146.172 230.861C146.412 231.505 146.78 232.025 147.278 232.421C147.776 232.816 148.41 233.014 149.181 233.014ZM161.805 223.086V224.55H155.978V223.086H161.805ZM157.676 220.391H159.404V231.11C159.404 231.598 159.475 231.964 159.616 232.208C159.763 232.447 159.948 232.608 160.173 232.691C160.402 232.77 160.644 232.809 160.898 232.809C161.088 232.809 161.244 232.799 161.366 232.779C161.488 232.755 161.586 232.735 161.659 232.721L162.01 234.273C161.893 234.317 161.73 234.361 161.52 234.405C161.31 234.453 161.044 234.478 160.722 234.478C160.234 234.478 159.755 234.373 159.287 234.163C158.823 233.953 158.438 233.633 158.13 233.204C157.827 232.774 157.676 232.233 157.676 231.579V220.391ZM167.714 234.595C167.001 234.595 166.354 234.461 165.774 234.192C165.193 233.919 164.732 233.526 164.39 233.014C164.048 232.496 163.877 231.871 163.877 231.139C163.877 230.495 164.004 229.973 164.258 229.572C164.512 229.167 164.851 228.85 165.276 228.621C165.7 228.391 166.169 228.22 166.682 228.108C167.199 227.991 167.719 227.898 168.241 227.83C168.924 227.742 169.478 227.676 169.903 227.632C170.332 227.584 170.645 227.503 170.84 227.391C171.04 227.278 171.14 227.083 171.14 226.805V226.746C171.14 226.024 170.943 225.463 170.547 225.062C170.157 224.662 169.564 224.462 168.768 224.462C167.943 224.462 167.297 224.643 166.828 225.004C166.359 225.365 166.03 225.751 165.84 226.161L164.2 225.575C164.492 224.892 164.883 224.36 165.371 223.979C165.864 223.593 166.401 223.325 166.982 223.174C167.567 223.017 168.143 222.939 168.71 222.939C169.071 222.939 169.486 222.983 169.954 223.071C170.428 223.154 170.884 223.327 171.323 223.591C171.767 223.854 172.136 224.252 172.429 224.784C172.722 225.316 172.868 226.029 172.868 226.922V234.331H171.14V232.809H171.052C170.935 233.053 170.74 233.314 170.467 233.592C170.193 233.87 169.83 234.107 169.376 234.302C168.922 234.497 168.368 234.595 167.714 234.595ZM167.977 233.043C168.661 233.043 169.237 232.909 169.705 232.64C170.179 232.372 170.535 232.025 170.774 231.601C171.018 231.176 171.14 230.729 171.14 230.261V228.679C171.067 228.767 170.906 228.848 170.657 228.921C170.413 228.989 170.13 229.05 169.808 229.104C169.491 229.153 169.181 229.197 168.878 229.236C168.58 229.27 168.339 229.299 168.153 229.324C167.704 229.382 167.284 229.477 166.894 229.609C166.508 229.736 166.196 229.929 165.957 230.187C165.722 230.441 165.605 230.788 165.605 231.227C165.605 231.827 165.827 232.281 166.272 232.589C166.721 232.892 167.289 233.043 167.977 233.043ZM177.75 219.337V234.331H176.022V219.337H177.75ZM188.763 219.337V234.331H186.947V219.337H188.763ZM193.897 227.566V234.331H192.169V223.086H193.839V224.843H193.985C194.249 224.272 194.649 223.813 195.186 223.466C195.723 223.115 196.416 222.939 197.265 222.939C198.026 222.939 198.693 223.095 199.264 223.408C199.835 223.715 200.279 224.184 200.596 224.814C200.913 225.438 201.072 226.229 201.072 227.186V234.331H199.344V227.303C199.344 226.419 199.115 225.731 198.656 225.238C198.197 224.74 197.568 224.491 196.767 224.491C196.216 224.491 195.723 224.611 195.288 224.85C194.859 225.089 194.519 225.438 194.27 225.897C194.022 226.356 193.897 226.912 193.897 227.566ZM213.022 223.086L208.864 234.331H207.107L202.948 223.086H204.822L207.927 232.047H208.044L211.148 223.086H213.022ZM219.615 234.566C218.532 234.566 217.597 234.327 216.811 233.848C216.03 233.365 215.428 232.691 215.003 231.827C214.583 230.959 214.373 229.948 214.373 228.796C214.373 227.645 214.583 226.629 215.003 225.751C215.428 224.867 216.018 224.179 216.775 223.686C217.536 223.188 218.424 222.939 219.44 222.939C220.025 222.939 220.604 223.037 221.175 223.232C221.746 223.427 222.266 223.745 222.734 224.184C223.203 224.618 223.576 225.194 223.855 225.912C224.133 226.629 224.272 227.513 224.272 228.562V229.294H215.603V227.801H222.515C222.515 227.166 222.388 226.6 222.134 226.102C221.885 225.604 221.529 225.211 221.065 224.923C220.606 224.635 220.064 224.491 219.44 224.491C218.752 224.491 218.156 224.662 217.653 225.004C217.155 225.341 216.772 225.78 216.504 226.322C216.235 226.864 216.101 227.444 216.101 228.064V229.06C216.101 229.909 216.248 230.629 216.54 231.22C216.838 231.806 217.251 232.252 217.778 232.56C218.305 232.862 218.917 233.014 219.615 233.014C220.069 233.014 220.479 232.95 220.845 232.823C221.216 232.691 221.536 232.496 221.805 232.237C222.073 231.974 222.28 231.647 222.427 231.256L224.096 231.725C223.92 232.291 223.625 232.789 223.21 233.219C222.795 233.643 222.283 233.975 221.673 234.214C221.063 234.449 220.377 234.566 219.615 234.566ZM234.866 225.604L233.314 226.044C233.216 225.785 233.072 225.534 232.882 225.289C232.696 225.041 232.443 224.836 232.12 224.674C231.798 224.513 231.386 224.433 230.883 224.433C230.195 224.433 229.621 224.591 229.163 224.909C228.709 225.221 228.482 225.619 228.482 226.102C228.482 226.532 228.638 226.871 228.95 227.12C229.263 227.369 229.751 227.576 230.415 227.742L232.084 228.152C233.089 228.396 233.839 228.77 234.332 229.272C234.824 229.77 235.071 230.412 235.071 231.198C235.071 231.842 234.886 232.418 234.515 232.926C234.148 233.433 233.636 233.834 232.977 234.126C232.318 234.419 231.552 234.566 230.678 234.566C229.531 234.566 228.582 234.317 227.83 233.819C227.078 233.321 226.603 232.594 226.402 231.637L228.042 231.227C228.199 231.832 228.494 232.286 228.928 232.589C229.368 232.892 229.941 233.043 230.649 233.043C231.454 233.043 232.094 232.872 232.567 232.53C233.045 232.184 233.285 231.769 233.285 231.286C233.285 230.895 233.148 230.568 232.875 230.305C232.601 230.036 232.181 229.836 231.615 229.704L229.741 229.265C228.711 229.021 227.955 228.643 227.471 228.13C226.993 227.613 226.754 226.966 226.754 226.19C226.754 225.555 226.932 224.994 227.288 224.506C227.649 224.018 228.14 223.635 228.76 223.357C229.385 223.078 230.092 222.939 230.883 222.939C231.996 222.939 232.87 223.183 233.504 223.671C234.144 224.16 234.598 224.804 234.866 225.604ZM242.563 223.086V224.55H236.735V223.086H242.563ZM238.433 220.391H240.161V231.11C240.161 231.598 240.232 231.964 240.374 232.208C240.52 232.447 240.705 232.608 240.93 232.691C241.159 232.77 241.401 232.809 241.655 232.809C241.845 232.809 242.001 232.799 242.123 232.779C242.245 232.755 242.343 232.735 242.416 232.721L242.768 234.273C242.65 234.317 242.487 234.361 242.277 234.405C242.067 234.453 241.801 234.478 241.479 234.478C240.991 234.478 240.513 234.373 240.044 234.163C239.58 233.953 239.195 233.633 238.887 233.204C238.585 232.774 238.433 232.233 238.433 231.579V220.391ZM249.756 234.566C248.672 234.566 247.738 234.327 246.952 233.848C246.171 233.365 245.568 232.691 245.143 231.827C244.724 230.959 244.514 229.948 244.514 228.796C244.514 227.645 244.724 226.629 245.143 225.751C245.568 224.867 246.159 224.179 246.915 223.686C247.677 223.188 248.565 222.939 249.58 222.939C250.166 222.939 250.744 223.037 251.315 223.232C251.886 223.427 252.406 223.745 252.875 224.184C253.343 224.618 253.717 225.194 253.995 225.912C254.273 226.629 254.412 227.513 254.412 228.562V229.294H245.744V227.801H252.655C252.655 227.166 252.528 226.6 252.275 226.102C252.026 225.604 251.669 225.211 251.206 224.923C250.747 224.635 250.205 224.491 249.58 224.491C248.892 224.491 248.297 224.662 247.794 225.004C247.296 225.341 246.913 225.78 246.644 226.322C246.376 226.864 246.242 227.444 246.242 228.064V229.06C246.242 229.909 246.388 230.629 246.681 231.22C246.979 231.806 247.391 232.252 247.918 232.56C248.445 232.862 249.058 233.014 249.756 233.014C250.21 233.014 250.62 232.95 250.986 232.823C251.357 232.691 251.677 232.496 251.945 232.237C252.213 231.974 252.421 231.647 252.567 231.256L254.237 231.725C254.061 232.291 253.766 232.789 253.351 233.219C252.936 233.643 252.423 233.975 251.813 234.214C251.203 234.449 250.517 234.566 249.756 234.566ZM261.287 234.566C260.35 234.566 259.523 234.329 258.805 233.856C258.088 233.377 257.526 232.704 257.121 231.835C256.716 230.961 256.514 229.929 256.514 228.738C256.514 227.557 256.716 226.532 257.121 225.663C257.526 224.794 258.09 224.123 258.813 223.649C259.535 223.176 260.37 222.939 261.316 222.939C262.049 222.939 262.627 223.061 263.052 223.305C263.481 223.545 263.808 223.818 264.033 224.125C264.262 224.428 264.44 224.677 264.567 224.872H264.714V219.337H266.441V234.331H264.772V232.604H264.567C264.44 232.809 264.26 233.067 264.025 233.38C263.791 233.687 263.457 233.963 263.022 234.207C262.588 234.446 262.01 234.566 261.287 234.566ZM261.521 233.014C262.215 233.014 262.8 232.833 263.279 232.472C263.757 232.106 264.121 231.601 264.37 230.956C264.618 230.307 264.743 229.558 264.743 228.709C264.743 227.869 264.621 227.134 264.377 226.505C264.133 225.87 263.772 225.377 263.293 225.026C262.815 224.67 262.224 224.491 261.521 224.491C260.789 224.491 260.179 224.679 259.691 225.055C259.208 225.426 258.844 225.931 258.6 226.571C258.361 227.205 258.241 227.918 258.241 228.709C258.241 229.509 258.363 230.236 258.608 230.89C258.856 231.54 259.223 232.057 259.706 232.442C260.194 232.823 260.799 233.014 261.521 233.014ZM276.494 234.331H274.59L280.096 219.337H281.97L287.476 234.331H285.572L281.092 221.709H280.975L276.494 234.331ZM277.197 228.474H284.87V230.085H277.197V228.474ZM289.577 234.331V223.086H291.246V224.843H291.393C291.627 224.242 292.005 223.776 292.528 223.444C293.05 223.108 293.677 222.939 294.409 222.939C295.151 222.939 295.769 223.108 296.262 223.444C296.76 223.776 297.148 224.242 297.426 224.843H297.543C297.831 224.262 298.263 223.801 298.839 223.459C299.415 223.113 300.105 222.939 300.911 222.939C301.916 222.939 302.739 223.254 303.378 223.884C304.017 224.509 304.337 225.482 304.337 226.805V234.331H302.609V226.805C302.609 225.975 302.382 225.382 301.928 225.026C301.475 224.67 300.94 224.491 300.325 224.491C299.534 224.491 298.922 224.731 298.487 225.209C298.053 225.682 297.836 226.283 297.836 227.01V234.331H296.079V226.629C296.079 225.99 295.871 225.475 295.456 225.084C295.041 224.689 294.507 224.491 293.853 224.491C293.404 224.491 292.984 224.611 292.594 224.85C292.208 225.089 291.896 225.421 291.656 225.846C291.422 226.266 291.305 226.751 291.305 227.303V234.331H289.577ZM312.065 234.566C311.05 234.566 310.159 234.324 309.393 233.841C308.631 233.358 308.036 232.682 307.606 231.813C307.182 230.944 306.969 229.929 306.969 228.767C306.969 227.596 307.182 226.573 307.606 225.699C308.036 224.826 308.631 224.147 309.393 223.664C310.159 223.181 311.05 222.939 312.065 222.939C313.08 222.939 313.969 223.181 314.73 223.664C315.496 224.147 316.092 224.826 316.516 225.699C316.946 226.573 317.161 227.596 317.161 228.767C317.161 229.929 316.946 230.944 316.516 231.813C316.092 232.682 315.496 233.358 314.73 233.841C313.969 234.324 313.08 234.566 312.065 234.566ZM312.065 233.014C312.836 233.014 313.471 232.816 313.969 232.421C314.466 232.025 314.835 231.505 315.074 230.861C315.313 230.217 315.433 229.519 315.433 228.767C315.433 228.015 315.313 227.315 315.074 226.666C314.835 226.017 314.466 225.492 313.969 225.092C313.471 224.692 312.836 224.491 312.065 224.491C311.294 224.491 310.659 224.692 310.161 225.092C309.664 225.492 309.295 226.017 309.056 226.666C308.817 227.315 308.697 228.015 308.697 228.767C308.697 229.519 308.817 230.217 309.056 230.861C309.295 231.505 309.664 232.025 310.161 232.421C310.659 232.816 311.294 233.014 312.065 233.014ZM326.885 229.734V223.086H328.613V234.331H326.885V232.428H326.768C326.505 232.999 326.095 233.485 325.538 233.885C324.982 234.28 324.279 234.478 323.43 234.478C322.727 234.478 322.102 234.324 321.555 234.017C321.009 233.704 320.579 233.236 320.267 232.611C319.954 231.981 319.798 231.188 319.798 230.231V223.086H321.526V230.114C321.526 230.934 321.755 231.588 322.214 232.076C322.678 232.565 323.269 232.809 323.986 232.809C324.416 232.809 324.852 232.699 325.297 232.479C325.746 232.259 326.121 231.923 326.424 231.469C326.732 231.015 326.885 230.436 326.885 229.734ZM333.506 227.566V234.331H331.778V223.086H333.447V224.843H333.594C333.857 224.272 334.257 223.813 334.794 223.466C335.331 223.115 336.024 222.939 336.874 222.939C337.635 222.939 338.301 223.095 338.872 223.408C339.443 223.715 339.888 224.184 340.205 224.814C340.522 225.438 340.681 226.229 340.681 227.186V234.331H338.953V227.303C338.953 226.419 338.723 225.731 338.265 225.238C337.806 224.74 337.176 224.491 336.376 224.491C335.824 224.491 335.331 224.611 334.897 224.85C334.467 225.089 334.128 225.438 333.879 225.897C333.63 226.356 333.506 226.912 333.506 227.566ZM348.729 223.086V224.55H342.901V223.086H348.729ZM344.6 220.391H346.327V231.11C346.327 231.598 346.398 231.964 346.54 232.208C346.686 232.447 346.872 232.608 347.096 232.691C347.326 232.77 347.567 232.809 347.821 232.809C348.011 232.809 348.168 232.799 348.29 232.779C348.412 232.755 348.509 232.735 348.582 232.721L348.934 234.273C348.817 234.317 348.653 234.361 348.443 234.405C348.233 234.453 347.967 234.478 347.645 234.478C347.157 234.478 346.679 234.373 346.21 234.163C345.747 233.953 345.361 233.633 345.053 233.204C344.751 232.774 344.6 232.233 344.6 231.579V220.391Z" fill="#141414"/>
<path d="M139.14 276.983V253.554H140.641V276.983H139.14ZM143.469 261.05C143.384 260.25 143.024 259.628 142.389 259.183C141.761 258.737 140.943 258.515 139.936 258.515C139.229 258.515 138.622 258.621 138.115 258.835C137.609 259.048 137.221 259.338 136.953 259.704C136.684 260.07 136.547 260.488 136.541 260.958C136.541 261.349 136.629 261.687 136.806 261.974C136.989 262.261 137.237 262.505 137.548 262.706C137.859 262.901 138.204 263.066 138.582 263.2C138.96 263.335 139.341 263.447 139.726 263.539L141.483 263.978C142.191 264.143 142.871 264.366 143.524 264.646C144.183 264.927 144.772 265.281 145.29 265.708C145.815 266.135 146.23 266.651 146.535 267.255C146.84 267.859 146.992 268.566 146.992 269.378C146.992 270.476 146.712 271.443 146.15 272.279C145.589 273.109 144.778 273.758 143.716 274.228C142.661 274.692 141.382 274.924 139.881 274.924C138.423 274.924 137.157 274.698 136.083 274.246C135.016 273.795 134.18 273.136 133.576 272.27C132.978 271.403 132.655 270.348 132.606 269.103H135.946C135.995 269.756 136.196 270.299 136.55 270.732C136.904 271.165 137.365 271.489 137.932 271.702C138.506 271.916 139.146 272.023 139.854 272.023C140.592 272.023 141.239 271.913 141.794 271.693C142.355 271.467 142.795 271.156 143.112 270.76C143.429 270.357 143.591 269.887 143.597 269.35C143.591 268.862 143.448 268.46 143.167 268.142C142.886 267.819 142.493 267.55 141.986 267.337C141.486 267.117 140.9 266.922 140.229 266.751L138.097 266.202C136.553 265.805 135.333 265.205 134.436 264.399C133.545 263.588 133.1 262.511 133.1 261.169C133.1 260.064 133.399 259.097 133.997 258.267C134.601 257.438 135.421 256.794 136.459 256.336C137.496 255.873 138.67 255.641 139.982 255.641C141.312 255.641 142.477 255.873 143.478 256.336C144.485 256.794 145.275 257.432 145.848 258.249C146.422 259.061 146.718 259.994 146.736 261.05H143.469ZM157.46 255.897V274.64H154.064V259.201H153.955L149.571 262.001V258.89L154.229 255.897H157.46ZM168.735 274.896C167.514 274.896 166.422 274.667 165.458 274.21C164.494 273.746 163.729 273.112 163.161 272.306C162.6 271.501 162.301 270.58 162.264 269.542H165.559C165.62 270.311 165.953 270.94 166.557 271.428C167.161 271.91 167.887 272.151 168.735 272.151C169.4 272.151 169.992 271.998 170.51 271.693C171.029 271.388 171.438 270.964 171.737 270.421C172.035 269.878 172.182 269.259 172.176 268.563C172.182 267.855 172.032 267.227 171.727 266.678C171.422 266.129 171.004 265.699 170.474 265.388C169.943 265.07 169.333 264.912 168.643 264.912C168.082 264.906 167.53 265.009 166.987 265.223C166.444 265.436 166.014 265.717 165.696 266.065L162.63 265.561L163.61 255.897H174.482V258.734H166.419L165.879 263.704H165.989C166.337 263.295 166.828 262.956 167.463 262.688C168.097 262.413 168.793 262.276 169.549 262.276C170.684 262.276 171.697 262.544 172.588 263.081C173.478 263.612 174.18 264.344 174.693 265.278C175.205 266.211 175.461 267.279 175.461 268.481C175.461 269.719 175.175 270.824 174.601 271.794C174.034 272.758 173.243 273.517 172.231 274.073C171.224 274.622 170.059 274.896 168.735 274.896ZM185.455 274.997C183.948 274.997 182.655 274.616 181.575 273.853C180.501 273.084 179.674 271.977 179.095 270.531C178.521 269.079 178.234 267.331 178.234 265.287C178.24 263.243 178.53 261.504 179.104 260.07C179.683 258.63 180.51 257.532 181.584 256.776C182.664 256.019 183.954 255.641 185.455 255.641C186.956 255.641 188.246 256.019 189.326 256.776C190.406 257.532 191.233 258.63 191.806 260.07C192.386 261.51 192.676 263.249 192.676 265.287C192.676 267.337 192.386 269.088 191.806 270.54C191.233 271.986 190.406 273.09 189.326 273.853C188.252 274.616 186.962 274.997 185.455 274.997ZM185.455 272.132C186.626 272.132 187.551 271.556 188.228 270.403C188.911 269.244 189.253 267.538 189.253 265.287C189.253 263.798 189.097 262.547 188.786 261.535C188.475 260.522 188.036 259.759 187.468 259.247C186.901 258.728 186.23 258.469 185.455 258.469C184.29 258.469 183.368 259.048 182.691 260.208C182.014 261.361 181.672 263.054 181.666 265.287C181.66 266.782 181.81 268.039 182.115 269.057C182.426 270.076 182.865 270.845 183.432 271.364C184 271.876 184.674 272.132 185.455 272.132ZM198.913 272.078L198.794 273.084C198.708 273.853 198.556 274.634 198.336 275.427C198.123 276.226 197.897 276.962 197.659 277.633C197.421 278.304 197.229 278.832 197.082 279.216H194.849C194.935 278.844 195.051 278.337 195.197 277.697C195.35 277.056 195.496 276.336 195.636 275.537C195.777 274.738 195.871 273.926 195.92 273.103L195.984 272.078H198.913ZM208.785 274.997C207.278 274.997 205.985 274.616 204.905 273.853C203.831 273.084 203.004 271.977 202.425 270.531C201.851 269.079 201.564 267.331 201.564 265.287C201.571 263.243 201.86 261.504 202.434 260.07C203.013 258.63 203.84 257.532 204.914 256.776C205.994 256.019 207.284 255.641 208.785 255.641C210.286 255.641 211.577 256.019 212.656 256.776C213.736 257.532 214.563 258.63 215.137 260.07C215.716 261.51 216.006 263.249 216.006 265.287C216.006 267.337 215.716 269.088 215.137 270.54C214.563 271.986 213.736 273.09 212.656 273.853C211.583 274.616 210.292 274.997 208.785 274.997ZM208.785 272.132C209.957 272.132 210.881 271.556 211.558 270.403C212.242 269.244 212.583 267.538 212.583 265.287C212.583 263.798 212.428 262.547 212.116 261.535C211.805 260.522 211.366 259.759 210.799 259.247C210.231 258.728 209.56 258.469 208.785 258.469C207.62 258.469 206.699 259.048 206.021 260.208C205.344 261.361 205.002 263.054 204.996 265.287C204.99 266.782 205.14 268.039 205.445 269.057C205.756 270.076 206.195 270.845 206.763 271.364C207.33 271.876 208.004 272.132 208.785 272.132ZM225.975 274.997C224.468 274.997 223.174 274.616 222.094 273.853C221.02 273.084 220.194 271.977 219.614 270.531C219.041 269.079 218.754 267.331 218.754 265.287C218.76 263.243 219.05 261.504 219.623 260.07C220.203 258.63 221.03 257.532 222.103 256.776C223.183 256.019 224.474 255.641 225.975 255.641C227.475 255.641 228.766 256.019 229.846 256.776C230.926 257.532 231.752 258.63 232.326 260.07C232.906 261.51 233.195 263.249 233.195 265.287C233.195 267.337 232.906 269.088 232.326 270.54C231.752 271.986 230.926 273.09 229.846 273.853C228.772 274.616 227.482 274.997 225.975 274.997ZM225.975 272.132C227.146 272.132 228.07 271.556 228.748 270.403C229.431 269.244 229.773 267.538 229.773 265.287C229.773 263.798 229.617 262.547 229.306 261.535C228.995 260.522 228.555 259.759 227.988 259.247C227.421 258.728 226.749 258.469 225.975 258.469C224.809 258.469 223.888 259.048 223.211 260.208C222.533 261.361 222.192 263.054 222.186 265.287C222.18 266.782 222.329 268.039 222.634 269.057C222.945 270.076 223.385 270.845 223.952 271.364C224.519 271.876 225.194 272.132 225.975 272.132ZM243.164 274.997C241.657 274.997 240.363 274.616 239.284 273.853C238.21 273.084 237.383 271.977 236.803 270.531C236.23 269.079 235.943 267.331 235.943 265.287C235.949 263.243 236.239 261.504 236.813 260.07C237.392 258.63 238.219 257.532 239.293 256.776C240.373 256.019 241.663 255.641 243.164 255.641C244.665 255.641 245.955 256.019 247.035 256.776C248.115 257.532 248.942 258.63 249.515 260.07C250.095 261.51 250.385 263.249 250.385 265.287C250.385 267.337 250.095 269.088 249.515 270.54C248.942 271.986 248.115 273.09 247.035 273.853C245.961 274.616 244.671 274.997 243.164 274.997ZM243.164 272.132C244.335 272.132 245.26 271.556 245.937 270.403C246.62 269.244 246.962 267.538 246.962 265.287C246.962 263.798 246.806 262.547 246.495 261.535C246.184 260.522 245.745 259.759 245.177 259.247C244.61 258.728 243.939 258.469 243.164 258.469C241.999 258.469 241.077 259.048 240.4 260.208C239.723 261.361 239.381 263.054 239.375 265.287C239.369 266.782 239.518 268.039 239.823 269.057C240.135 270.076 240.574 270.845 241.141 271.364C241.709 271.876 242.383 272.132 243.164 272.132Z" fill="#141414"/>
<circle cx="72.1601" cy="247.834" r="45.1" fill="#DCFAF8"/>
<g clip-path="url(#clip1_585_406)">
<path d="M78.1236 238.378H82.0562L81.9885 235.983H78.6641L81.7885 229.525L78.2537 229.229L75.1491 231.609L76.1843 228.918L72.5611 228.506L71.3727 231.869L69.42 229.265L64.048 229.078L67.6026 235.984L64.3938 235.88V238.377H67.486C60.8913 242.237 56.1401 252.326 56.1401 257.776C56.1401 264.608 63.6013 268.451 72.8037 268.451C82.0062 268.451 89.4673 264.608 89.4673 257.776C89.4683 252.326 84.7182 242.238 78.1236 238.378ZM74.1972 261.054V263.419H71.9237V261.216C70.3698 261.148 68.8617 260.728 67.9806 260.219L68.6764 257.507C69.6501 258.042 71.0197 258.527 72.5267 258.527C73.8483 258.527 74.7534 258.017 74.7534 257.091C74.7534 256.206 74.0118 255.649 72.2955 255.071C69.8126 254.237 68.1202 253.076 68.1202 250.828C68.1202 248.787 69.5585 247.185 72.0403 246.7V244.496H74.3139V246.537C75.8667 246.608 76.9123 246.93 77.6768 247.302L77.004 249.923C76.401 249.669 75.3335 249.134 73.664 249.134C72.1559 249.134 71.6685 249.782 71.6685 250.431C71.6685 251.198 72.4809 251.684 74.4524 252.427C77.2112 253.404 78.3256 254.676 78.3256 256.766C78.3266 258.827 76.8644 260.59 74.1972 261.054Z" fill="#16DBCC"/>
</g>
<rect y="340.612" width="451" height="154.629" rx="32.2143" fill="white"/>
<path d="M140.723 426.76V445.503H137.328V430.064H137.218L132.835 432.864V429.753L137.493 426.76H140.723ZM148.377 442.94L148.258 443.947C148.172 444.716 148.02 445.497 147.8 446.29C147.586 447.089 147.361 447.824 147.123 448.496C146.885 449.167 146.693 449.694 146.546 450.079H144.313C144.399 449.707 144.515 449.2 144.661 448.56C144.813 447.919 144.96 447.199 145.1 446.4C145.241 445.601 145.335 444.789 145.384 443.965L145.448 442.94H148.377ZM152.051 445.503V443.05L158.558 436.671C159.18 436.043 159.699 435.485 160.114 434.997C160.529 434.509 160.84 434.036 161.047 433.578C161.255 433.121 161.358 432.632 161.358 432.114C161.358 431.522 161.224 431.016 160.956 430.595C160.687 430.168 160.318 429.838 159.848 429.606C159.379 429.374 158.845 429.259 158.247 429.259C157.631 429.259 157.091 429.387 156.627 429.643C156.163 429.893 155.803 430.25 155.547 430.714C155.297 431.177 155.172 431.729 155.172 432.37H151.941C151.941 431.18 152.213 430.146 152.756 429.268C153.299 428.389 154.046 427.709 154.998 427.227C155.956 426.745 157.054 426.504 158.293 426.504C159.549 426.504 160.654 426.739 161.605 427.209C162.557 427.678 163.296 428.322 163.82 429.14C164.351 429.957 164.616 430.891 164.616 431.94C164.616 432.642 164.482 433.331 164.214 434.008C163.945 434.686 163.472 435.436 162.795 436.26C162.124 437.083 161.181 438.081 159.967 439.252L156.737 442.538V442.666H164.9V445.503H152.051ZM174.574 445.759C173.353 445.759 172.261 445.53 171.297 445.073C170.333 444.609 169.568 443.975 169 443.169C168.439 442.364 168.14 441.443 168.103 440.405H171.398C171.459 441.174 171.791 441.803 172.395 442.291C172.999 442.773 173.725 443.014 174.574 443.014C175.239 443.014 175.83 442.861 176.349 442.556C176.868 442.251 177.276 441.827 177.575 441.284C177.874 440.741 178.021 440.122 178.015 439.426C178.021 438.718 177.871 438.09 177.566 437.541C177.261 436.992 176.843 436.562 176.312 436.25C175.782 435.933 175.171 435.775 174.482 435.775C173.921 435.768 173.369 435.872 172.826 436.086C172.283 436.299 171.852 436.58 171.535 436.928L168.469 436.424L169.449 426.76H180.321V429.597H172.258L171.718 434.567H171.828C172.176 434.158 172.667 433.819 173.301 433.551C173.936 433.276 174.632 433.139 175.388 433.139C176.523 433.139 177.536 433.407 178.426 433.944C179.317 434.475 180.019 435.207 180.531 436.141C181.044 437.074 181.3 438.142 181.3 439.344C181.3 440.582 181.013 441.687 180.44 442.657C179.872 443.621 179.082 444.38 178.07 444.936C177.063 445.485 175.898 445.759 174.574 445.759ZM191.294 445.86C189.787 445.86 188.493 445.479 187.414 444.716C186.34 443.947 185.513 442.84 184.933 441.394C184.36 439.942 184.073 438.194 184.073 436.15C184.079 434.106 184.369 432.367 184.943 430.933C185.522 429.493 186.349 428.395 187.423 427.639C188.503 426.882 189.793 426.504 191.294 426.504C192.795 426.504 194.085 426.882 195.165 427.639C196.245 428.395 197.072 429.493 197.645 430.933C198.225 432.373 198.515 434.112 198.515 436.15C198.515 438.2 198.225 439.951 197.645 441.403C197.072 442.849 196.245 443.953 195.165 444.716C194.091 445.479 192.801 445.86 191.294 445.86ZM191.294 442.995C192.465 442.995 193.39 442.419 194.067 441.266C194.75 440.106 195.092 438.401 195.092 436.15C195.092 434.661 194.936 433.41 194.625 432.398C194.314 431.385 193.875 430.622 193.307 430.11C192.74 429.591 192.069 429.332 191.294 429.332C190.129 429.332 189.207 429.911 188.53 431.071C187.853 432.224 187.511 433.917 187.505 436.15C187.499 437.645 187.648 438.901 187.953 439.92C188.265 440.939 188.704 441.708 189.271 442.227C189.839 442.739 190.513 442.995 191.294 442.995Z" fill="#141414"/>
<path d="M145.14 390.717V405.711H143.383L135.212 393.939H135.066V405.711H133.25V390.717H135.007L143.207 402.519H143.354V390.717H145.14ZM155.626 401.114V394.466H157.354V405.711H155.626V403.808H155.509C155.245 404.379 154.835 404.865 154.279 405.265C153.723 405.66 153.02 405.858 152.17 405.858C151.468 405.858 150.843 405.704 150.296 405.397C149.749 405.084 149.32 404.616 149.008 403.991C148.695 403.361 148.539 402.568 148.539 401.611V394.466H150.267V401.494C150.267 402.314 150.496 402.968 150.955 403.456C151.419 403.945 152.009 404.189 152.727 404.189C153.156 404.189 153.593 404.079 154.037 403.859C154.486 403.639 154.862 403.303 155.165 402.849C155.472 402.395 155.626 401.816 155.626 401.114ZM160.519 405.711V394.466H162.188V396.223H162.334C162.569 395.622 162.947 395.156 163.469 394.824C163.991 394.488 164.619 394.319 165.351 394.319C166.093 394.319 166.71 394.488 167.203 394.824C167.701 395.156 168.089 395.622 168.367 396.223H168.484C168.772 395.642 169.204 395.181 169.78 394.839C170.356 394.493 171.047 394.319 171.852 394.319C172.858 394.319 173.68 394.634 174.32 395.264C174.959 395.889 175.279 396.862 175.279 398.185V405.711H173.551V398.185C173.551 397.355 173.324 396.762 172.87 396.406C172.416 396.05 171.882 395.871 171.267 395.871C170.476 395.871 169.863 396.111 169.429 396.589C168.994 397.062 168.777 397.663 168.777 398.39V405.711H167.02V398.009C167.02 397.37 166.813 396.855 166.398 396.464C165.983 396.069 165.448 395.871 164.794 395.871C164.345 395.871 163.926 395.991 163.535 396.23C163.15 396.469 162.837 396.801 162.598 397.226C162.364 397.646 162.247 398.131 162.247 398.683V405.711H160.519ZM178.672 405.711V390.717H180.4V396.252H180.546C180.673 396.057 180.849 395.808 181.074 395.505C181.303 395.198 181.63 394.925 182.055 394.685C182.484 394.441 183.065 394.319 183.797 394.319C184.744 394.319 185.579 394.556 186.301 395.029C187.023 395.503 187.587 396.174 187.992 397.043C188.397 397.912 188.6 398.937 188.6 400.118C188.6 401.309 188.397 402.341 187.992 403.215C187.587 404.084 187.026 404.757 186.308 405.236C185.591 405.709 184.764 405.946 183.826 405.946C183.104 405.946 182.526 405.826 182.091 405.587C181.657 405.343 181.323 405.067 181.088 404.76C180.854 404.447 180.673 404.189 180.546 403.984H180.341V405.711H178.672ZM180.371 400.089C180.371 400.938 180.495 401.687 180.744 402.336C180.993 402.981 181.357 403.486 181.835 403.852C182.313 404.213 182.899 404.394 183.592 404.394C184.315 404.394 184.917 404.203 185.401 403.822C185.889 403.437 186.255 402.92 186.499 402.27C186.748 401.616 186.872 400.889 186.872 400.089C186.872 399.298 186.75 398.585 186.506 397.951C186.267 397.311 185.903 396.806 185.415 396.435C184.932 396.059 184.324 395.871 183.592 395.871C182.889 395.871 182.299 396.05 181.82 396.406C181.342 396.757 180.981 397.25 180.737 397.885C180.493 398.514 180.371 399.249 180.371 400.089ZM195.958 405.946C194.875 405.946 193.94 405.707 193.154 405.228C192.373 404.745 191.77 404.071 191.346 403.207C190.926 402.339 190.716 401.328 190.716 400.176C190.716 399.025 190.926 398.009 191.346 397.131C191.77 396.247 192.361 395.559 193.117 395.066C193.879 394.568 194.767 394.319 195.782 394.319C196.368 394.319 196.946 394.417 197.518 394.612C198.089 394.807 198.608 395.125 199.077 395.564C199.546 395.998 199.919 396.574 200.197 397.292C200.475 398.009 200.615 398.893 200.615 399.942V400.674H191.946V399.181H198.857C198.857 398.546 198.73 397.98 198.477 397.482C198.228 396.984 197.871 396.591 197.408 396.303C196.949 396.015 196.407 395.871 195.782 395.871C195.094 395.871 194.499 396.042 193.996 396.384C193.498 396.721 193.115 397.16 192.846 397.702C192.578 398.244 192.444 398.824 192.444 399.444V400.44C192.444 401.289 192.59 402.009 192.883 402.6C193.181 403.186 193.593 403.632 194.12 403.94C194.648 404.242 195.26 404.394 195.958 404.394C196.412 404.394 196.822 404.33 197.188 404.203C197.559 404.071 197.879 403.876 198.147 403.617C198.416 403.354 198.623 403.027 198.77 402.636L200.439 403.105C200.263 403.671 199.968 404.169 199.553 404.599C199.138 405.023 198.626 405.355 198.015 405.594C197.405 405.829 196.72 405.946 195.958 405.946ZM203.243 405.711V394.466H204.912V396.164H205.029C205.234 395.608 205.605 395.156 206.142 394.81C206.679 394.463 207.284 394.29 207.958 394.29C208.085 394.29 208.243 394.292 208.434 394.297C208.624 394.302 208.768 394.31 208.866 394.319V396.076C208.807 396.062 208.673 396.04 208.463 396.011C208.258 395.976 208.041 395.959 207.811 395.959C207.265 395.959 206.777 396.074 206.347 396.303C205.923 396.528 205.586 396.84 205.337 397.241C205.093 397.636 204.971 398.087 204.971 398.595V405.711H203.243ZM221.281 405.946C220.266 405.946 219.375 405.704 218.609 405.221C217.847 404.738 217.252 404.062 216.822 403.193C216.398 402.324 216.185 401.309 216.185 400.147C216.185 398.976 216.398 397.953 216.822 397.079C217.252 396.206 217.847 395.527 218.609 395.044C219.375 394.561 220.266 394.319 221.281 394.319C222.296 394.319 223.185 394.561 223.946 395.044C224.712 395.527 225.308 396.206 225.733 397.079C226.162 397.953 226.377 398.976 226.377 400.147C226.377 401.309 226.162 402.324 225.733 403.193C225.308 404.062 224.712 404.738 223.946 405.221C223.185 405.704 222.296 405.946 221.281 405.946ZM221.281 404.394C222.052 404.394 222.687 404.196 223.185 403.801C223.683 403.405 224.051 402.885 224.29 402.241C224.529 401.597 224.649 400.899 224.649 400.147C224.649 399.395 224.529 398.695 224.29 398.046C224.051 397.397 223.683 396.872 223.185 396.472C222.687 396.072 222.052 395.871 221.281 395.871C220.51 395.871 219.875 396.072 219.378 396.472C218.88 396.872 218.511 397.397 218.272 398.046C218.033 398.695 217.913 399.395 217.913 400.147C217.913 400.899 218.033 401.597 218.272 402.241C218.511 402.885 218.88 403.405 219.378 403.801C219.875 404.196 220.51 404.394 221.281 404.394ZM234.022 394.466V395.93H227.96V394.466H234.022ZM229.776 405.711V392.914C229.776 392.269 229.927 391.732 230.23 391.303C230.532 390.873 230.925 390.551 231.408 390.336C231.892 390.122 232.402 390.014 232.939 390.014C233.363 390.014 233.71 390.048 233.978 390.117C234.247 390.185 234.447 390.249 234.579 390.307L234.081 391.801C233.993 391.771 233.871 391.735 233.715 391.691C233.563 391.647 233.363 391.625 233.114 391.625C232.543 391.625 232.131 391.769 231.877 392.057C231.628 392.345 231.504 392.767 231.504 393.324V405.711H229.776ZM244.292 390.717V405.711H242.477V390.717H244.292ZM249.426 398.946V405.711H247.699V394.466H249.368V396.223H249.514C249.778 395.652 250.178 395.193 250.715 394.846C251.252 394.495 251.945 394.319 252.794 394.319C253.556 394.319 254.222 394.475 254.793 394.788C255.364 395.095 255.808 395.564 256.126 396.194C256.443 396.818 256.601 397.609 256.601 398.566V405.711H254.874V398.683C254.874 397.799 254.644 397.111 254.185 396.618C253.727 396.12 253.097 395.871 252.296 395.871C251.745 395.871 251.252 395.991 250.818 396.23C250.388 396.469 250.049 396.818 249.8 397.277C249.551 397.736 249.426 398.292 249.426 398.946ZM268.552 394.466L264.393 405.711H262.636L258.478 394.466H260.352L263.456 403.427H263.573L266.678 394.466H268.552ZM275.145 405.946C274.061 405.946 273.127 405.707 272.341 405.228C271.56 404.745 270.957 404.071 270.532 403.207C270.113 402.339 269.903 401.328 269.903 400.176C269.903 399.025 270.113 398.009 270.532 397.131C270.957 396.247 271.548 395.559 272.304 395.066C273.066 394.568 273.954 394.319 274.969 394.319C275.555 394.319 276.133 394.417 276.704 394.612C277.275 394.807 277.795 395.125 278.264 395.564C278.732 395.998 279.106 396.574 279.384 397.292C279.662 398.009 279.801 398.893 279.801 399.942V400.674H271.133V399.181H278.044C278.044 398.546 277.917 397.98 277.663 397.482C277.414 396.984 277.058 396.591 276.594 396.303C276.136 396.015 275.594 395.871 274.969 395.871C274.281 395.871 273.685 396.042 273.183 396.384C272.685 396.721 272.302 397.16 272.033 397.702C271.765 398.244 271.631 398.824 271.631 399.444V400.44C271.631 401.289 271.777 402.009 272.07 402.6C272.368 403.186 272.78 403.632 273.307 403.94C273.834 404.242 274.447 404.394 275.145 404.394C275.599 404.394 276.009 404.33 276.375 404.203C276.746 404.071 277.065 403.876 277.334 403.617C277.602 403.354 277.81 403.027 277.956 402.636L279.626 403.105C279.45 403.671 279.155 404.169 278.74 404.599C278.325 405.023 277.812 405.355 277.202 405.594C276.592 405.829 275.906 405.946 275.145 405.946ZM290.395 396.984L288.843 397.424C288.746 397.165 288.602 396.914 288.411 396.669C288.226 396.421 287.972 396.216 287.65 396.054C287.328 395.893 286.915 395.813 286.413 395.813C285.724 395.813 285.151 395.971 284.692 396.289C284.238 396.601 284.011 396.999 284.011 397.482C284.011 397.912 284.167 398.251 284.48 398.5C284.792 398.749 285.28 398.956 285.944 399.122L287.613 399.532C288.619 399.776 289.368 400.15 289.861 400.652C290.354 401.15 290.6 401.792 290.6 402.578C290.6 403.222 290.415 403.798 290.044 404.306C289.678 404.813 289.165 405.214 288.506 405.506C287.848 405.799 287.081 405.946 286.208 405.946C285.06 405.946 284.111 405.697 283.359 405.199C282.608 404.701 282.132 403.974 281.932 403.017L283.572 402.607C283.728 403.212 284.023 403.666 284.458 403.969C284.897 404.272 285.47 404.423 286.178 404.423C286.984 404.423 287.623 404.252 288.096 403.91C288.575 403.564 288.814 403.149 288.814 402.666C288.814 402.275 288.677 401.948 288.404 401.685C288.131 401.416 287.711 401.216 287.145 401.084L285.27 400.645C284.24 400.401 283.484 400.023 283.001 399.51C282.522 398.993 282.283 398.346 282.283 397.57C282.283 396.935 282.461 396.374 282.818 395.886C283.179 395.398 283.669 395.015 284.289 394.737C284.914 394.458 285.622 394.319 286.413 394.319C287.525 394.319 288.399 394.563 289.034 395.051C289.673 395.54 290.127 396.184 290.395 396.984ZM298.092 394.466V395.93H292.264V394.466H298.092ZM293.963 391.771H295.691V402.49C295.691 402.978 295.761 403.344 295.903 403.588C296.049 403.827 296.235 403.988 296.459 404.071C296.689 404.15 296.93 404.189 297.184 404.189C297.375 404.189 297.531 404.179 297.653 404.159C297.775 404.135 297.872 404.115 297.946 404.101L298.297 405.653C298.18 405.697 298.016 405.741 297.806 405.785C297.597 405.833 297.331 405.858 297.008 405.858C296.52 405.858 296.042 405.753 295.573 405.543C295.11 405.333 294.724 405.013 294.417 404.584C294.114 404.154 293.963 403.613 293.963 402.959V391.771ZM300.691 405.711V394.466H302.36V396.223H302.507C302.741 395.622 303.119 395.156 303.642 394.824C304.164 394.488 304.791 394.319 305.523 394.319C306.265 394.319 306.883 394.488 307.376 394.824C307.873 395.156 308.261 395.622 308.54 396.223H308.657C308.945 395.642 309.377 395.181 309.953 394.839C310.529 394.493 311.219 394.319 312.025 394.319C313.03 394.319 313.853 394.634 314.492 395.264C315.131 395.889 315.451 396.862 315.451 398.185V405.711H313.723V398.185C313.723 397.355 313.496 396.762 313.042 396.406C312.588 396.05 312.054 395.871 311.439 395.871C310.648 395.871 310.036 396.111 309.601 396.589C309.167 397.062 308.95 397.663 308.95 398.39V405.711H307.193V398.009C307.193 397.37 306.985 396.855 306.57 396.464C306.155 396.069 305.621 395.871 304.967 395.871C304.518 395.871 304.098 395.991 303.708 396.23C303.322 396.469 303.01 396.801 302.77 397.226C302.536 397.646 302.419 398.131 302.419 398.683V405.711H300.691ZM323.325 405.946C322.242 405.946 321.307 405.707 320.521 405.228C319.74 404.745 319.137 404.071 318.713 403.207C318.293 402.339 318.083 401.328 318.083 400.176C318.083 399.025 318.293 398.009 318.713 397.131C319.137 396.247 319.728 395.559 320.485 395.066C321.246 394.568 322.134 394.319 323.15 394.319C323.735 394.319 324.314 394.417 324.885 394.612C325.456 394.807 325.976 395.125 326.444 395.564C326.913 395.998 327.286 396.574 327.564 397.292C327.843 398.009 327.982 398.893 327.982 399.942V400.674H319.313V399.181H326.225C326.225 398.546 326.098 397.98 325.844 397.482C325.595 396.984 325.239 396.591 324.775 396.303C324.316 396.015 323.774 395.871 323.15 395.871C322.461 395.871 321.866 396.042 321.363 396.384C320.865 396.721 320.482 397.16 320.214 397.702C319.945 398.244 319.811 398.824 319.811 399.444V400.44C319.811 401.289 319.957 402.009 320.25 402.6C320.548 403.186 320.96 403.632 321.488 403.94C322.015 404.242 322.627 404.394 323.325 404.394C323.779 404.394 324.189 404.33 324.555 404.203C324.926 404.071 325.246 403.876 325.514 403.617C325.783 403.354 325.99 403.027 326.137 402.636L327.806 403.105C327.63 403.671 327.335 404.169 326.92 404.599C326.505 405.023 325.993 405.355 325.383 405.594C324.773 405.829 324.087 405.946 323.325 405.946ZM332.338 398.946V405.711H330.61V394.466H332.279V396.223H332.426C332.689 395.652 333.09 395.193 333.627 394.846C334.163 394.495 334.857 394.319 335.706 394.319C336.467 394.319 337.134 394.475 337.705 394.788C338.276 395.095 338.72 395.564 339.037 396.194C339.354 396.818 339.513 397.609 339.513 398.566V405.711H337.785V398.683C337.785 397.799 337.556 397.111 337.097 396.618C336.638 396.12 336.008 395.871 335.208 395.871C334.656 395.871 334.163 395.991 333.729 396.23C333.3 396.469 332.96 396.818 332.711 397.277C332.462 397.736 332.338 398.292 332.338 398.946ZM347.561 394.466V395.93H341.733V394.466H347.561ZM343.432 391.771H345.16V402.49C345.16 402.978 345.23 403.344 345.372 403.588C345.518 403.827 345.704 403.988 345.928 404.071C346.158 404.15 346.399 404.189 346.653 404.189C346.844 404.189 347 404.179 347.122 404.159C347.244 404.135 347.341 404.115 347.415 404.101L347.766 405.653C347.649 405.697 347.485 405.741 347.276 405.785C347.066 405.833 346.8 405.858 346.478 405.858C345.989 405.858 345.511 405.753 345.043 405.543C344.579 405.333 344.193 405.013 343.886 404.584C343.583 404.154 343.432 403.613 343.432 402.959V391.771ZM357.925 396.984L356.372 397.424C356.275 397.165 356.131 396.914 355.94 396.669C355.755 396.421 355.501 396.216 355.179 396.054C354.857 395.893 354.444 395.813 353.942 395.813C353.253 395.813 352.68 395.971 352.221 396.289C351.767 396.601 351.54 396.999 351.54 397.482C351.54 397.912 351.696 398.251 352.009 398.5C352.321 398.749 352.809 398.956 353.473 399.122L355.142 399.532C356.148 399.776 356.897 400.15 357.39 400.652C357.883 401.15 358.13 401.792 358.13 402.578C358.13 403.222 357.944 403.798 357.573 404.306C357.207 404.813 356.695 405.214 356.036 405.506C355.377 405.799 354.61 405.946 353.737 405.946C352.59 405.946 351.64 405.697 350.889 405.199C350.137 404.701 349.661 403.974 349.461 403.017L351.101 402.607C351.257 403.212 351.552 403.666 351.987 403.969C352.426 404.272 353 404.423 353.707 404.423C354.513 404.423 355.152 404.252 355.626 403.91C356.104 403.564 356.343 403.149 356.343 402.666C356.343 402.275 356.206 401.948 355.933 401.685C355.66 401.416 355.24 401.216 354.674 401.084L352.8 400.645C351.77 400.401 351.013 400.023 350.53 399.51C350.052 398.993 349.812 398.346 349.812 397.57C349.812 396.935 349.991 396.374 350.347 395.886C350.708 395.398 351.199 395.015 351.818 394.737C352.443 394.458 353.151 394.319 353.942 394.319C355.055 394.319 355.928 394.563 356.563 395.051C357.202 395.54 357.656 396.184 357.925 396.984Z" fill="#141414"/>
<circle cx="72.1601" cy="417.926" r="45.1" fill="#FFE0EB"/>
<g clip-path="url(#clip2_585_406)">
<path d="M73.2923 419.058V398.597C62.3328 399.172 53.4069 408.098 52.832 419.058H73.2923ZM68.7624 415.66H66.4974V413.395H68.7624V415.66ZM61.9674 408.865H64.2324V411.13H61.9674V408.865ZM67.6299 408.396L69.2313 409.998L63.0999 416.129L61.4985 414.528L67.6299 408.396Z" fill="#FF82AC"/>
<path d="M73.2925 421.323H59.7458C60.2977 428.54 66.0752 434.317 73.2926 434.869V421.323H73.2925Z" fill="#FF82AC"/>
<path d="M75.5576 403.127C75.5576 403.371 75.5576 437.52 75.5576 437.253C84.3965 436.666 91.488 429.062 91.488 420.077C91.488 411.091 84.3986 403.712 75.5576 403.127ZM82.3526 419.058C84.226 419.058 85.75 420.582 85.75 422.455C85.75 423.93 84.8004 425.175 83.485 425.644V428.118H81.2201V425.644C79.9047 425.175 78.9551 423.93 78.9551 422.455H81.2201C81.2201 423.08 81.7277 423.588 82.3526 423.588C82.9774 423.588 83.485 423.08 83.485 422.455C83.485 421.83 82.9774 421.323 82.3526 421.323C80.4791 421.323 78.9551 419.799 78.9551 417.925C78.9551 416.451 79.9047 415.205 81.2201 414.736V412.263H83.485V414.736C84.8004 415.205 85.75 416.451 85.75 417.925H83.485C83.485 417.3 82.9774 416.793 82.3526 416.793C81.7277 416.793 81.2201 417.3 81.2201 417.925C81.2201 418.55 81.7277 419.058 82.3526 419.058Z" fill="#FF82AC"/>
</g>
<defs>
<clipPath id="clip0_585_406">
<rect width="38.6571" height="38.6571" fill="white" transform="translate(52.8313 58.4143)"/>
</clipPath>
<clipPath id="clip1_585_406">
<rect width="39.9457" height="39.9457" fill="white" transform="translate(52.8313 228.506)"/>
</clipPath>
<clipPath id="clip2_585_406">
<rect width="38.6571" height="38.6571" fill="white" transform="translate(52.8313 398.597)"/>
</clipPath>
</defs>
</svg>
