<svg width="1440" height="1024" viewBox="0 0 1440 1024" fill="none" xmlns="http://www.w3.org/2000/svg">
<path d="M1432.8 89.4329C1435.97 -5.75718 1432.51 -9.39127 1342.1 -11.842C1275.71 -13.504 1262.85 -17.1813 1230.26 -42.6587C1193.73 -71.3201 1184.42 -94.8814 1183.73 -159.108C1182.83 -234.417 1175.43 -241.235 1098.38 -240.91C1061.97 -240.852 1043.89 -242.518 1024.84 -248.259C1000.84 -255.832 997.879 -257.654 974.443 -279.245C954.46 -297.654 948.794 -304.691 944.881 -315.563C935.587 -341.838 932.712 -363.109 934.097 -394.988C936.617 -458.069 925.026 -469.655 858.142 -470.867C791.008 -471.854 780.846 -470.77 767.412 -458.621C753.978 -446.471 752.697 -437.205 753.158 -375.919C753.863 -313.502 764.726 -305.311 843.51 -305.853C876.46 -305.928 893.793 -304.039 915.069 -297.609C942.283 -289.343 942.776 -288.889 964.724 -266.852C996.042 -235.275 1001.66 -218.289 1002.61 -155.192C1003.76 -82.3695 1008.7 -77.824 1091.93 -76.0846C1162.03 -74.6318 1187.76 -65.9202 1218.82 -32.3089C1246.43 -2.33162 1250.34 9.44557 1251.55 70.0564C1253.4 152.606 1257.35 155.79 1361.65 153.782C1405.51 152.853 1406.5 152.405 1418.69 141.38C1430.88 130.355 1431.38 129.453 1432.8 89.4329Z" fill="#383FDF"/>
<path d="M1184.68 63.4202L1184.7 6.65932L1168.65 -6.30436L1152.36 -19.4953L1102.32 -19.273C1045.83 -19.0804 1018.86 -25.3101 988.23 -45.8034C953.406 -69.2558 941.401 -98.4829 940.706 -162.71C940.192 -212.689 938.982 -218.8 925.907 -230.846C913.078 -242.664 898.967 -244.764 840.497 -244.128C766.665 -243.11 761.19 -237.708 759.865 -164.898C759.136 -114.246 761.079 -105.644 776.127 -91.7799C788.958 -80.414 790.691 -80.1799 850.639 -78.9998C876.154 -78.6564 906.364 -75.3516 917.994 -72.3583C937.292 -66.8423 940.999 -64.79 963.695 -43.8809C986.638 -22.7445 989.101 -19.5672 996.439 0.819026C1002.56 16.903 1004.21 33.8711 1003.82 64.8504C1003.47 88.5933 1005.59 112.348 1008.53 120.05C1017.1 141.12 1032.19 145.486 1097.35 145.56L1151.85 145.81L1168.01 132.994L1184.17 120.179L1184.68 63.4202Z" fill="#383FDF"/>
<path d="M937.942 114.079C943.716 97.5969 943.363 12.7931 937.22 1.68406C926.656 -17.5863 914.286 -21.2614 859.046 -22.646C774.575 -24.6172 762.895 -16.756 761.379 43.6162C760.122 101.502 763.016 118.702 776.337 130.975C786.945 140.747 788.925 141.209 843.672 142.139C874.638 142.507 904.619 141.514 910.324 139.958C923.472 136.174 933.671 126.949 937.942 114.079Z" fill="#383FDF"/>
<path d="M665.095 100.951C668.258 5.76125 664.806 2.12716 574.392 -0.323608C508.005 -1.98558 495.14 -5.66291 462.555 -31.1403C426.021 -59.8017 416.715 -83.3629 416.019 -147.59C415.127 -222.898 407.726 -229.716 330.677 -229.392C294.258 -229.333 276.181 -230.999 257.131 -236.74C233.135 -244.313 230.171 -246.136 206.735 -267.727C186.752 -286.136 181.086 -293.172 177.172 -304.045C167.879 -330.32 165.004 -351.59 166.389 -383.469C168.909 -446.551 157.318 -458.137 90.4336 -459.349C23.3003 -460.336 13.1379 -459.252 -0.295941 -447.102C-13.7298 -434.952 -15.0111 -425.687 -14.5495 -364.401C-13.8455 -301.983 -2.98248 -293.792 75.8017 -294.335C108.752 -294.409 126.085 -292.521 147.361 -286.091C174.575 -277.825 175.068 -277.37 197.016 -255.334C228.334 -223.757 233.954 -206.77 234.902 -143.673C236.054 -70.851 240.988 -66.3056 324.221 -64.5662C394.325 -63.1133 420.05 -54.4018 451.111 -20.7905C478.72 9.18681 482.63 20.964 483.838 81.5749C485.688 164.124 489.637 167.308 593.946 165.3C637.8 164.371 638.793 163.923 650.983 152.898C663.173 141.874 663.673 140.971 665.095 100.951Z" fill="#383FDF"/>
<path d="M416.974 74.9387L416.988 18.1778L400.944 5.21413L384.654 -7.97681L334.609 -7.75453C278.123 -7.56186 251.148 -13.7916 220.522 -34.2849C185.698 -57.7373 173.693 -86.9644 172.998 -151.191C172.484 -201.17 171.274 -207.282 158.199 -219.327C145.37 -231.145 131.259 -233.245 72.7889 -232.61C-1.04262 -231.592 -6.51775 -226.19 -7.84335 -153.379C-8.57161 -102.727 -6.62923 -94.1251 8.41928 -80.2614C21.2496 -68.8955 22.9827 -68.6614 82.9306 -67.4813C108.446 -67.1379 138.656 -63.8331 150.286 -60.8398C169.584 -55.3238 173.291 -53.2715 195.987 -32.3624C218.93 -11.226 221.393 -8.04875 228.731 12.3375C234.851 28.4215 236.507 45.3896 236.117 76.3689C235.76 100.112 237.88 123.866 240.818 131.568C249.392 152.639 264.484 157.005 329.64 157.078L384.142 157.329L400.304 144.513L416.466 131.697L416.974 74.9387Z" fill="#383FDF"/>
<path d="M170.234 125.597C176.008 109.115 175.655 24.3116 169.512 13.2025C158.948 -6.06786 146.578 -9.74293 91.3376 -11.1275C6.86695 -13.0987 -4.81301 -5.23753 -6.32918 55.1347C-7.58618 113.021 -4.69234 130.22 8.62928 142.493C19.2372 152.266 21.217 152.727 75.9636 153.657C106.93 154.026 136.911 153.033 142.616 151.476C155.764 147.692 165.963 138.467 170.234 125.597Z" fill="#383FDF"/>
<path d="M1426.46 1470.74C1429.62 1375.55 1426.17 1371.91 1335.75 1369.46C1269.37 1367.8 1256.5 1364.12 1223.92 1338.65C1187.38 1309.99 1178.08 1286.42 1177.38 1222.2C1176.49 1146.89 1169.09 1140.07 1092.04 1140.4C1055.62 1140.45 1037.54 1138.79 1018.49 1133.05C994.496 1125.47 991.531 1123.65 968.095 1102.06C948.112 1083.65 942.447 1076.61 938.533 1065.74C929.239 1039.47 926.364 1018.2 927.75 986.318C930.269 923.236 918.679 911.65 851.794 910.438C784.661 909.451 774.498 910.535 761.064 922.685C747.631 934.835 746.349 944.1 746.811 1005.39C747.515 1067.8 758.378 1075.99 837.162 1075.45C870.112 1075.38 887.445 1077.27 908.721 1083.7C935.935 1091.96 936.428 1092.42 958.376 1114.45C989.694 1146.03 995.314 1163.02 996.263 1226.11C997.414 1298.94 1002.35 1303.48 1085.58 1305.22C1155.69 1306.67 1181.41 1315.39 1212.47 1349C1240.08 1378.97 1243.99 1390.75 1245.2 1451.36C1247.05 1533.91 1251 1537.1 1355.31 1535.09C1399.16 1534.16 1400.15 1533.71 1412.34 1522.69C1424.53 1511.66 1425.03 1510.76 1426.46 1470.74Z" fill="#383FDF"/>
<path d="M1417.42 1279.84C1418.92 1276.23 1420.02 1251.36 1419.9 1224.45C1418.76 1148.46 1413.34 1143.46 1332.08 1143.54C1298.88 1143.39 1279.56 1141.49 1262.25 1135.98C1239.98 1129.1 1236.52 1126.82 1213.58 1105.68C1190.89 1084.77 1188.67 1081.37 1182.81 1063.71C1179.64 1053.06 1176.54 1025.23 1176.4 1001.94C1176.13 953.997 1173.94 944.716 1160.87 931.313C1149.03 919.5 1139.87 918.327 1079.92 918.504C1003.61 919.058 996.895 925.132 995.352 991.384C993.869 1044.52 996.286 1057.65 1009.11 1069.47C1022.19 1081.51 1028.87 1082.67 1083.62 1083.6C1153.73 1084.6 1185.88 1096.06 1211 1127.83C1234.15 1157.34 1240.49 1180.88 1239.51 1232.21L1238.55 1278.12L1252.61 1292.88L1266.91 1307.87L1328.59 1308.38L1390.28 1308.44L1402.22 1297.19C1408.94 1291.11 1415.67 1283.23 1417.42 1279.84Z" fill="#383FDF"/>
<path d="M1415.97 1055.96C1417.48 1050.08 1418.6 1022.95 1418.23 995.814C1417.95 947.871 1417.47 946.06 1406.86 936.287C1393.54 924.014 1374.72 921.214 1311.3 921.827C1245.15 922.654 1236.43 933.242 1237.81 1010.36C1238.97 1081.38 1245.88 1087.29 1328.13 1086.76C1394.28 1086.39 1409.41 1081.25 1415.97 1055.96Z" fill="#383FDF"/>
<path d="M672.004 775.689C675.166 680.498 671.715 676.864 581.3 674.414C514.913 672.752 502.048 669.074 469.463 643.597C432.929 614.936 423.623 591.374 422.927 527.148C422.035 451.839 414.634 445.021 337.585 445.345C301.167 445.404 283.089 443.738 264.04 437.997C240.043 430.424 237.079 428.601 213.643 407.01C193.66 388.601 187.995 381.565 184.081 370.692C174.787 344.417 171.912 323.147 173.297 291.268C175.817 228.187 164.226 216.6 97.3418 215.388C30.2085 214.401 20.0461 215.485 6.61226 227.635C-6.8216 239.785 -8.1029 249.051 -7.64134 310.336C-6.93725 372.754 3.92572 380.945 82.7099 380.403C115.66 380.328 132.993 382.217 154.269 388.646C181.483 396.912 181.976 397.367 203.924 419.403C235.242 450.981 240.862 467.967 241.811 531.064C242.962 603.886 247.896 608.432 331.129 610.171C401.233 611.624 426.958 620.335 458.019 653.947C485.629 683.924 489.538 695.701 490.746 756.312C492.596 838.861 496.546 842.045 600.854 840.037C644.708 839.108 645.701 838.661 657.891 827.636C670.081 816.611 670.581 815.709 672.004 775.689Z" fill="#383FDF"/>
<path d="M662.964 584.793C664.467 581.181 665.572 556.311 665.448 529.4C664.311 453.412 658.883 448.412 577.624 448.491C544.427 448.338 525.112 446.44 507.796 440.933C485.531 434.047 482.073 431.77 459.13 410.633C436.434 389.724 434.22 386.322 428.355 368.656C425.183 358.013 422.091 330.184 421.95 306.891C421.675 258.948 419.488 249.666 406.419 236.264C394.582 224.45 385.421 223.277 325.467 223.454C249.16 224.008 242.443 230.083 240.9 296.334C239.417 349.47 241.834 362.598 254.662 374.416C267.737 386.461 274.421 387.623 329.167 388.553C399.273 389.553 431.427 401.008 456.551 432.783C479.703 462.287 486.036 485.835 485.057 537.164L484.103 583.066L498.156 597.83L512.456 612.821L574.141 613.33L635.828 613.388L647.772 602.135C654.489 596.061 661.214 588.177 662.964 584.793Z" fill="#383FDF"/>
<path d="M423.883 749.676L423.896 692.915L407.852 679.951L391.562 666.761L341.517 666.983C285.031 667.175 258.056 660.946 227.43 640.452C192.607 617 180.602 587.773 179.906 523.546C179.392 473.567 178.182 467.456 165.107 455.41C152.279 443.592 138.167 441.492 79.6971 442.128C5.86559 443.145 0.390453 448.548 -0.935143 521.358C-1.66341 572.01 0.278977 580.612 15.3275 594.476C28.1578 605.842 29.8909 606.076 89.8388 607.256C115.355 607.599 145.564 610.904 157.194 613.897C176.492 619.414 180.199 621.466 202.895 642.375C225.838 663.511 228.301 666.689 235.639 687.075C241.759 703.159 243.415 720.127 243.025 751.106C242.668 774.849 244.789 798.604 247.726 806.306C256.3 827.376 271.392 831.742 336.548 831.815L391.05 832.066L407.212 819.25L423.374 806.435L423.883 749.676Z" fill="#383FDF"/>
<path d="M661.518 360.907C663.031 355.034 664.147 327.903 663.776 300.764C663.501 252.821 663.014 251.01 652.406 241.237C639.084 228.965 620.269 226.164 556.844 226.778C490.693 227.604 481.974 238.193 483.353 315.312C484.514 386.325 491.423 392.237 573.676 391.71C639.824 391.336 654.96 386.204 661.518 360.907Z" fill="#383FDF"/>
<path d="M177.142 800.334C182.916 783.852 182.563 699.049 176.42 687.94C165.856 668.669 153.486 664.994 98.2458 663.61C13.7752 661.638 2.0952 669.5 0.579022 729.872C-0.67798 787.758 2.21586 804.957 15.5375 817.23C26.1454 827.003 28.1253 827.464 82.8718 828.394C113.838 828.763 143.819 827.77 149.524 826.213C162.672 822.429 172.872 813.204 177.142 800.334Z" fill="#383FDF"/>
<path d="M658.748 1482.26C661.91 1387.07 658.459 1383.43 568.045 1380.98C501.658 1379.32 488.792 1375.64 456.207 1350.17C419.673 1321.5 410.367 1297.94 409.672 1233.72C408.779 1158.41 401.378 1151.59 324.329 1151.91C287.911 1151.97 269.833 1150.31 250.784 1144.57C226.788 1136.99 223.823 1135.17 200.387 1113.58C180.404 1095.17 174.739 1088.13 170.825 1077.26C161.531 1050.99 158.656 1029.72 160.042 997.836C162.561 934.755 150.971 923.169 84.086 921.957C16.9526 920.97 6.79027 922.054 -6.6436 934.203C-20.0775 946.353 -21.3588 955.619 -20.8972 1016.9C-20.1931 1079.32 -9.33014 1087.51 69.4541 1086.97C102.404 1086.9 119.737 1088.79 141.013 1095.21C168.227 1103.48 168.72 1103.94 190.668 1125.97C221.986 1157.55 227.606 1174.54 228.555 1237.63C229.706 1310.45 234.64 1315 317.873 1316.74C387.978 1318.19 413.703 1326.9 444.763 1360.52C472.373 1390.49 476.282 1402.27 477.49 1462.88C479.341 1545.43 483.29 1548.61 587.598 1546.61C631.453 1545.68 632.446 1545.23 644.636 1534.2C656.826 1523.18 657.325 1522.28 658.748 1482.26Z" fill="#383FDF"/>
<path d="M649.707 1291.36C651.21 1287.75 652.316 1262.88 652.192 1235.97C651.054 1159.98 645.627 1154.98 564.368 1155.06C531.171 1154.91 511.856 1153.01 494.539 1147.5C472.274 1140.62 468.816 1138.34 445.874 1117.2C423.177 1096.29 420.963 1092.89 415.099 1075.22C411.927 1064.58 408.834 1036.75 408.694 1013.46C408.419 965.516 406.232 956.234 393.163 942.832C381.326 931.018 372.165 929.846 312.21 930.022C235.903 930.576 229.187 936.651 227.643 1002.9C226.16 1056.04 228.578 1069.17 241.406 1080.98C254.481 1093.03 261.164 1094.19 315.911 1095.12C386.017 1096.12 418.171 1107.58 443.294 1139.35C466.446 1168.86 472.779 1192.4 471.8 1243.73L470.846 1289.63L484.9 1304.4L499.2 1319.39L560.885 1319.9L622.572 1319.96L634.515 1308.7C641.232 1302.63 647.958 1294.74 649.707 1291.36Z" fill="#383FDF"/>
<path d="M648.262 1067.48C649.775 1061.6 650.891 1034.47 650.52 1007.33C650.245 959.39 649.758 957.579 639.15 947.806C625.828 935.533 607.013 932.733 543.588 933.346C477.437 934.173 468.718 944.761 470.098 1021.88C471.258 1092.89 478.167 1098.81 560.42 1098.28C626.568 1097.9 641.704 1092.77 648.262 1067.48Z" fill="#383FDF"/>
<path d="M1426.06 788.29C1429.22 693.1 1425.77 689.466 1335.36 687.015C1268.97 685.353 1256.1 681.676 1223.52 656.199C1186.98 627.537 1177.68 603.976 1176.98 539.749C1176.09 464.441 1168.69 457.623 1091.64 457.947C1055.22 458.006 1037.14 456.34 1018.09 450.599C994.099 443.026 991.134 441.203 967.698 419.612C947.715 401.203 942.05 394.167 938.136 383.294C928.842 357.019 925.967 335.749 927.353 303.869C929.872 240.788 918.282 229.202 851.397 227.99C784.264 227.003 774.101 228.087 760.667 240.237C747.234 252.386 745.952 261.652 746.414 322.938C747.118 385.356 757.981 393.547 836.765 393.004C869.715 392.93 887.048 394.818 908.324 401.248C935.538 409.514 936.031 409.969 957.979 432.005C989.297 463.582 994.917 480.569 995.866 543.666C997.017 616.488 1001.95 621.033 1085.18 622.773C1155.29 624.226 1181.01 632.937 1212.07 666.548C1239.68 696.526 1243.59 708.303 1244.8 768.914C1246.65 851.463 1250.6 854.647 1354.91 852.639C1398.76 851.71 1399.76 851.262 1411.95 840.237C1424.14 829.213 1424.64 828.31 1426.06 788.29Z" fill="#383FDF"/>
<path d="M1417.02 597.395C1418.52 593.783 1419.63 568.913 1419.5 542.002C1418.36 466.014 1412.94 461.014 1331.68 461.093C1298.48 460.94 1279.17 459.042 1261.85 453.535C1239.58 446.649 1236.13 444.372 1213.18 423.235C1190.49 402.326 1188.27 398.924 1182.41 381.258C1179.24 370.615 1176.14 342.785 1176 319.493C1175.73 271.55 1173.54 262.268 1160.47 248.866C1148.64 237.052 1139.48 235.879 1079.52 236.056C1003.21 236.61 996.497 242.685 994.954 308.936C993.471 362.072 995.888 375.2 1008.72 387.018C1021.79 399.063 1028.47 400.225 1083.22 401.155C1153.33 402.155 1185.48 413.61 1210.6 445.385C1233.76 474.889 1240.09 498.437 1239.11 549.766L1238.16 595.668L1252.21 610.432L1266.51 625.423L1328.2 625.932L1389.88 625.99L1401.83 614.737C1408.54 608.663 1415.27 600.779 1417.02 597.395Z" fill="#383FDF"/>
<path d="M1177.94 762.278L1177.95 705.517L1161.91 692.554L1145.62 679.363L1095.57 679.585C1039.09 679.778 1012.11 673.548 981.486 653.055C946.662 629.602 934.657 600.375 933.961 536.148C933.448 486.169 932.237 480.058 919.162 468.012C906.334 456.194 892.222 454.094 833.752 454.73C759.921 455.748 754.446 461.15 753.12 533.96C752.392 584.612 754.334 593.214 769.383 607.078C782.213 618.444 783.946 618.678 843.894 619.858C869.41 620.202 899.619 623.506 911.249 626.5C930.548 632.016 934.254 634.068 956.95 654.977C979.893 676.113 982.356 679.291 989.694 699.677C995.814 715.761 997.47 732.729 997.08 763.708C996.723 787.451 998.844 811.206 1001.78 818.908C1010.36 839.978 1025.45 844.344 1090.6 844.418L1145.11 844.668L1161.27 831.852L1177.43 819.037L1177.94 762.278Z" fill="#383FDF"/>
<path d="M1415.57 373.509C1417.09 367.636 1418.2 340.504 1417.83 313.366C1417.56 265.423 1417.07 263.612 1406.46 253.839C1393.14 241.566 1374.32 238.766 1310.9 239.379C1244.75 240.206 1236.03 250.794 1237.41 327.914C1238.57 398.927 1245.48 404.839 1327.73 404.312C1393.88 403.938 1409.01 398.806 1415.57 373.509Z" fill="#383FDF"/>
<path d="M931.197 812.936C936.97 796.454 936.617 711.65 930.474 700.541C919.91 681.271 907.54 677.596 852.3 676.211C767.829 674.24 756.149 682.101 754.633 742.473C753.376 800.359 756.27 817.559 769.592 829.832C780.2 839.605 782.179 840.066 836.926 840.996C867.892 841.365 897.873 840.372 903.578 838.815C916.726 835.031 926.926 825.806 931.197 812.936Z" fill="#383FDF"/>
</svg>
