<svg width="100" height="101" viewBox="0 0 100 101" fill="none" xmlns="http://www.w3.org/2000/svg">
<g opacity="0.2">
<path d="M16.0088 86.1304C16.0088 92.0956 20.8448 96.9314 26.8098 96.9314C32.7744 96.9314 37.6102 92.0956 37.6102 86.1304C37.6102 80.1653 32.7744 75.3295 26.8098 75.3295C20.8448 75.3295 16.0088 80.1653 16.0088 86.1304ZM20.746 86.1304C20.746 82.7816 23.4608 80.0673 26.8096 80.0673C30.1584 80.0673 32.8734 82.7816 32.8734 86.1304C32.8734 89.4792 30.1584 92.1936 26.8096 92.1936C23.4608 92.1936 20.746 89.4792 20.746 86.1304Z" fill="url(#paint0_linear_635_4041)"/>
<path d="M26.8102 92.1939C30.159 92.1939 32.874 89.4795 32.874 86.1307C32.874 82.8805 30.314 80.2349 27.102 80.0819L28.089 75.4077C33.451 76.0411 37.6106 80.5987 37.6106 86.1307C37.6106 92.0959 32.7748 96.9317 26.8102 96.9317C25.708 96.9317 24.644 96.7653 23.6426 96.4583L24.6298 91.7837C25.3074 92.0447 26.0408 92.1939 26.8102 92.1939Z" fill="#90B4FE"/>
<path d="M19.6998 7.58404C21.466 11.9434 19.3634 16.91 15.0036 18.6762C10.6444 20.4424 5.67784 18.3396 3.91164 13.9804C2.14524 9.62064 4.24804 4.65425 8.60744 2.88825C12.967 1.12185 17.9334 3.22425 19.6998 7.58404Z" fill="#BBD2FE"/>
<path d="M19.8376 7.95224C19.7948 7.82884 19.7492 7.70604 19.6996 7.58384C17.9332 3.22425 12.9668 1.12186 8.60721 2.88825C8.30161 3.01205 8.00721 3.15345 7.72461 3.30785L11.8052 10.7824L19.8376 7.95224Z" fill="#90B4FE"/>
<path d="M11.8057 10.7823L19.7377 13.8787C20.4575 12.0369 20.5415 9.94367 19.8381 7.95227L11.8057 10.7823Z" fill="url(#paint1_linear_635_4041)"/>
</g>
<path d="M46.0839 61.7806C46.1629 62.2914 45.8127 62.7688 45.3019 62.8476L10.1281 68.2728C9.61747 68.3518 9.13947 68.0018 9.06087 67.491L1.61747 19.2333C1.53887 18.7225 1.88907 18.2447 2.39967 18.1659L37.5735 12.7407C38.0843 12.6619 38.5621 13.0121 38.6407 13.5227L46.0839 61.7806Z" fill="#1D0C8C"/>
<path d="M43.9349 58.085C44.0137 58.5958 43.6635 59.0734 43.1529 59.1524L11.0649 64.1015C10.5541 64.1801 10.0763 63.8301 9.99752 63.3193L3.35092 20.2264C3.27212 19.7158 3.62232 19.238 4.13292 19.1592L36.2209 14.21C36.7315 14.1312 37.2093 14.4814 37.2881 14.992L43.9349 58.085Z" fill="#D8E5FE"/>
<path d="M24.9897 13.2066L22.1943 13.6378C21.9873 12.296 20.7317 11.376 19.3897 11.583C18.0477 11.79 17.1279 13.0456 17.3349 14.3874L14.5395 14.8184C13.5181 14.976 12.8177 15.9318 12.9753 16.953L12.9993 17.1082C13.1569 18.1296 14.1125 18.8298 15.1339 18.6724L25.5839 17.0606C26.6053 16.903 27.3055 15.9472 27.1481 14.9258L27.1241 14.7706C26.9669 13.7494 26.0111 13.049 24.9897 13.2066ZM19.9283 15.073C19.3147 15.1676 18.7403 14.747 18.6457 14.1332C18.5511 13.5196 18.9719 12.9452 19.5857 12.8506C20.1993 12.756 20.7737 13.1768 20.8683 13.7904C20.9627 14.4042 20.5419 14.9784 19.9283 15.073Z" fill="#5758FF"/>
<g opacity="0.5">
<path d="M19.1692 23.6516C19.2404 24.114 18.9236 24.5462 18.4616 24.6176L9.28244 26.0334C8.82024 26.1046 8.38804 25.7878 8.31664 25.3256C8.24544 24.8634 8.56224 24.4312 9.02424 24.3598L18.2032 22.944C18.6656 22.8726 19.098 23.1896 19.1692 23.6516Z" fill="url(#paint2_linear_635_4041)"/>
<path d="M15.3518 29.5882C15.423 30.0502 15.1062 30.4826 14.6442 30.5538L9.22599 31.3896C8.76379 31.461 8.33139 31.144 8.25999 30.682C8.18879 30.2198 8.50579 29.7874 8.96799 29.716L14.386 28.8804C14.8482 28.8092 15.2806 29.126 15.3518 29.5882Z" fill="url(#paint3_linear_635_4041)"/>
<path d="M26.6183 27.8503C26.6895 28.3123 26.3727 28.7447 25.9107 28.8161L16.8373 30.2155C16.3751 30.2867 15.9425 29.9701 15.8713 29.5079C15.8001 29.0457 16.1169 28.6133 16.5791 28.5421L25.6525 27.1427C26.1147 27.0713 26.5471 27.3881 26.6183 27.8503Z" fill="url(#paint4_linear_635_4041)"/>
<path d="M26.2187 34.3498C26.2899 34.812 25.9731 35.2442 25.5111 35.3154L10.1959 37.6777C9.73352 37.7489 9.30112 37.4321 9.22972 36.9701C9.15852 36.5077 9.47552 36.0755 9.93772 36.0041L25.2529 33.642C25.7151 33.5708 26.1475 33.8876 26.2187 34.3498Z" fill="url(#paint5_linear_635_4041)"/>
<path d="M20.6175 38.7655C20.6887 39.2277 20.3719 39.6601 19.9099 39.7313L10.7309 41.1471C10.2689 41.2183 9.83607 40.9017 9.76487 40.4395C9.69367 39.9773 10.0107 39.5449 10.4729 39.4735L19.6519 38.0577C20.1139 37.9865 20.5461 38.3033 20.6175 38.7655Z" fill="url(#paint6_linear_635_4041)"/>
<path d="M28.9596 37.479C29.031 37.941 28.7138 38.3736 28.2518 38.4448L22.9524 39.2622C22.4902 39.3334 22.058 39.0166 21.9866 38.5546C21.9154 38.0924 22.2322 37.66 22.6942 37.5888L27.9936 36.7714C28.4558 36.7 28.8884 37.0168 28.9596 37.479Z" fill="url(#paint7_linear_635_4041)"/>
<path d="M23.6153 43.5561C23.6865 44.0183 23.3697 44.4507 22.9077 44.5219L11.5229 46.2779C11.0607 46.3491 10.6281 46.0325 10.5569 45.5701C10.4855 45.1079 10.8027 44.6755 11.2647 44.6043L22.6497 42.8483C23.1115 42.7773 23.5439 43.0941 23.6153 43.5561Z" fill="url(#paint8_linear_635_4041)"/>
<path d="M29.7511 42.6097C29.8225 43.0719 29.5055 43.5045 29.0435 43.5757L25.2699 44.1579C24.8079 44.2291 24.3753 43.9123 24.3039 43.4501C24.2327 42.9879 24.5497 42.5555 25.0119 42.4843L28.7853 41.9023C29.2473 41.8307 29.6799 42.1475 29.7511 42.6097Z" fill="url(#paint9_linear_635_4041)"/>
<path d="M26.8004 46.617C26.8716 47.0794 26.5548 47.5116 26.093 47.5828L12.0582 49.7474C11.5958 49.8186 11.1634 49.5022 11.092 49.0398C11.0208 48.5778 11.3378 48.1454 11.8 48.0742L25.8348 45.9094C26.2968 45.8382 26.7292 46.155 26.8004 46.617Z" fill="url(#paint10_linear_635_4041)"/>
<path d="M21.2652 52.7233C21.3364 53.1859 21.0196 53.6183 20.5574 53.6893L12.849 54.8783C12.3868 54.9497 11.9542 54.6325 11.883 54.1705C11.8118 53.7083 12.1288 53.2759 12.591 53.2047L20.2994 52.0159C20.7614 51.9445 21.1938 52.2613 21.2652 52.7233Z" fill="url(#paint11_linear_635_4041)"/>
<path d="M31.4875 51.1468C31.5587 51.609 31.2419 52.0416 30.7795 52.1128L22.7377 53.353C22.2755 53.4242 21.8429 53.1076 21.7717 52.6452C21.7005 52.1834 22.0175 51.7508 22.4795 51.6796L30.5215 50.4392C30.9837 50.368 31.4163 50.6848 31.4875 51.1468Z" fill="url(#paint12_linear_635_4041)"/>
<path d="M19.5382 56.5417C19.6094 57.0043 19.2926 57.4367 18.8306 57.5077L13.3844 58.3477C12.9222 58.4189 12.4896 58.1023 12.4182 57.6397C12.347 57.1779 12.6642 56.7455 13.1262 56.6743L18.5724 55.8345C19.0346 55.7631 19.467 56.0797 19.5382 56.5417Z" fill="url(#paint13_linear_635_4041)"/>
</g>
<path d="M32.9472 23.8522C33.2532 23.805 33.5404 24.0154 33.5876 24.3214L34.069 27.442C34.1162 27.748 33.9056 28.0352 33.5996 28.0824L30.4792 28.5638C30.1732 28.611 29.886 28.4006 29.8388 28.0946L29.3574 24.9742C29.3102 24.6682 29.5208 24.381 29.8266 24.3338L32.9472 23.8522ZM32.8902 23.4824L29.7698 23.9636C29.2592 24.0424 28.9088 24.5204 28.9876 25.031L29.4688 28.1514C29.5476 28.662 30.0256 29.0124 30.5362 28.9336L33.6566 28.4524C34.1672 28.3736 34.5176 27.8956 34.4388 27.385L33.9576 24.2644C33.8788 23.7538 33.4008 23.4036 32.8902 23.4824Z" fill="url(#paint14_linear_635_4041)"/>
<path d="M34.3008 32.6254C34.6068 32.5782 34.894 32.7886 34.9412 33.0946L35.4226 36.215C35.4698 36.521 35.2592 36.8082 34.9534 36.8554L31.8328 37.3366C31.5268 37.3838 31.2396 37.1734 31.1924 36.8674L30.711 33.7468C30.6638 33.441 30.8744 33.1538 31.1804 33.1064L34.3008 32.6254ZM34.2436 32.2556L31.1232 32.7368C30.6126 32.8156 30.2624 33.2936 30.3412 33.8042L30.8224 36.9248C30.9012 37.4354 31.3792 37.7856 31.8898 37.7068L35.0102 37.2254C35.5206 37.1468 35.871 36.6688 35.7922 36.1582L35.311 33.0376C35.2322 32.527 34.7544 32.1768 34.2436 32.2556Z" fill="url(#paint15_linear_635_4041)"/>
<path d="M35.6534 41.3986C35.9594 41.3514 36.2466 41.5618 36.2938 41.8678L36.775 44.9884C36.8222 45.2942 36.6118 45.5816 36.3058 45.6286L33.1854 46.11C32.8794 46.1572 32.5922 45.9466 32.545 45.6408L32.0636 42.5202C32.0164 42.2142 32.227 41.927 32.533 41.88L35.6534 41.3986ZM35.5962 41.0288L32.4758 41.51C31.9652 41.5888 31.615 42.0668 31.6936 42.5772L32.1748 45.6976C32.2536 46.2082 32.7316 46.5582 33.2422 46.4794L36.3626 45.9982C36.8732 45.9194 37.2236 45.4418 37.1446 44.931L36.6634 41.8104C36.5848 41.3004 36.1068 40.95 35.5962 41.0288Z" fill="url(#paint16_linear_635_4041)"/>
<path d="M37.0066 50.1715C37.3126 50.1245 37.5998 50.3347 37.6472 50.6407L38.1284 53.7615C38.1756 54.0673 37.965 54.3547 37.6592 54.4017L34.5388 54.8829C34.2328 54.9301 33.9456 54.7197 33.8984 54.4137L33.4172 51.2933C33.37 50.9875 33.5804 50.7001 33.8866 50.6531L37.0066 50.1715ZM36.9496 49.8019L33.8292 50.2831C33.3186 50.3617 32.9684 50.8397 33.0472 51.3505L33.5284 54.4709C33.607 54.9813 34.0852 55.3319 34.5958 55.2531L37.7162 54.7719C38.2268 54.6929 38.577 54.2147 38.4984 53.7045L38.017 50.5839C37.9382 50.0731 37.4602 49.7229 36.9496 49.8019Z" fill="url(#paint17_linear_635_4041)"/>
<path d="M31.9887 27.2006C31.8561 27.221 31.7201 27.191 31.6079 27.116L28.4011 24.9668C28.1547 24.8018 28.0891 24.4682 28.2541 24.222C28.4191 23.9756 28.7527 23.91 28.9989 24.0748L31.7391 25.9112L34.9795 20.5702C35.1333 20.3166 35.4633 20.2362 35.7171 20.3898C35.9705 20.5438 36.0515 20.8738 35.8977 21.1272L32.3657 26.9486C32.2897 27.0738 32.1657 27.1626 32.0225 27.1944C32.0113 27.1968 31.9999 27.1986 31.9887 27.2006Z" fill="#6986D9"/>
<path d="M33.3793 36.219C33.2467 36.2394 33.1107 36.2094 32.9985 36.1344L29.7919 33.9852C29.5453 33.8202 29.4797 33.4866 29.6447 33.2402C29.8099 32.9938 30.1433 32.9282 30.3895 33.0932L33.1297 34.9294L36.3699 29.5884C36.5235 29.335 36.8539 29.2544 37.1075 29.4078C37.3609 29.5618 37.4419 29.892 37.2881 30.1454L33.7561 35.9668C33.6801 36.092 33.5561 36.1808 33.4129 36.2126C33.4019 36.2152 33.3905 36.2172 33.3793 36.219Z" fill="#6986D9"/>
<path d="M34.7709 45.2374C34.6383 45.2578 34.5021 45.2278 34.3901 45.1526L31.1833 43.0036C30.9367 42.8386 30.8713 42.5052 31.0363 42.2588C31.2015 42.0124 31.5349 41.9468 31.7811 42.1114L34.5213 43.948L37.7615 38.6068C37.9153 38.3532 38.2455 38.2728 38.4993 38.4264C38.7527 38.5802 38.8337 38.9104 38.6799 39.1636L35.1479 44.985C35.0719 45.1102 34.9479 45.1992 34.8047 45.231C34.7935 45.2336 34.7823 45.2358 34.7709 45.2374Z" fill="#6986D9"/>
<path d="M36.1615 54.2557C36.0289 54.2759 35.8927 54.2459 35.7807 54.1713L32.5741 52.0221C32.3275 51.8571 32.2619 51.5231 32.4269 51.2767C32.5921 51.0307 32.9255 50.9649 33.1717 51.1301L35.9119 52.9659L39.1523 47.6254C39.3061 47.3716 39.6361 47.291 39.8899 47.4446C40.1433 47.5986 40.2243 47.9286 40.0705 48.1822L36.5385 54.0035C36.4625 54.1287 36.3385 54.2171 36.1953 54.2491C36.1839 54.2517 36.1727 54.2537 36.1615 54.2557Z" fill="#6986D9"/>
<path d="M48.4073 70.5179C48.4203 71.0885 47.9685 71.5607 47.3983 71.5737L19.6375 72.2051C19.0677 72.2183 18.5947 71.7661 18.5819 71.1957L17.7249 33.4936C17.7117 32.9234 18.1635 32.4506 18.7339 32.4376L46.4945 31.8068C47.0647 31.7938 47.5373 32.2454 47.5503 32.8156L48.4073 70.5179Z" fill="white"/>
<path d="M23.3491 36.8518C24.3865 36.8282 25.2493 37.6526 25.2729 38.6902C25.2963 39.7276 24.4719 40.5908 23.4347 40.6144C22.3973 40.638 21.5343 39.813 21.5105 38.7758C21.4869 37.738 22.3117 36.8752 23.3491 36.8518ZM23.3395 36.4388C22.0725 36.4676 21.0685 37.518 21.0973 38.785C21.1263 40.052 22.1767 41.056 23.4437 41.0272C24.7109 40.9984 25.7147 39.9476 25.6861 38.6806C25.6573 37.414 24.6067 36.41 23.3395 36.4388Z" fill="white"/>
<path d="M23.5532 45.837C24.5906 45.8136 25.4536 46.6388 25.4772 47.676C25.5006 48.7136 24.6758 49.5768 23.6386 49.6004C22.6012 49.6238 21.7382 48.7988 21.7144 47.7618C21.691 46.7244 22.5156 45.8612 23.5532 45.837ZM23.5434 45.4248C22.2764 45.4532 21.2726 46.504 21.3014 47.771C21.3302 49.0384 22.3808 50.042 23.6478 50.0132C24.915 49.9844 25.9188 48.9342 25.89 47.6666C25.8614 46.3998 24.8108 45.3958 23.5434 45.4248Z" fill="white"/>
<path d="M23.7456 53.9722C24.7832 53.9486 25.646 54.7734 25.6698 55.8106C25.6934 56.8482 24.8686 57.7114 23.8312 57.7348C22.7938 57.7584 21.9308 56.9334 21.907 55.8966C21.8834 54.8594 22.708 53.996 23.7456 53.9722ZM23.736 53.5596C22.469 53.5882 21.4652 54.6386 21.4938 55.9056C21.5226 57.173 22.5732 58.1766 23.8402 58.1484C25.1072 58.1192 26.1112 57.0688 26.0826 55.8012C26.0536 54.5344 25.0032 53.5306 23.736 53.5596Z" fill="white"/>
<path d="M23.9231 62.1074C24.9605 62.0838 25.8235 62.9088 25.8473 63.946C25.8709 64.9834 25.0463 65.847 24.0087 65.87C22.9713 65.8934 22.1085 65.0688 22.0845 64.032C22.0611 62.994 22.8857 62.131 23.9231 62.1074ZM23.9139 61.6942C22.6465 61.7232 21.6427 62.7738 21.6715 64.0406C21.7005 65.3082 22.7511 66.3118 24.0181 66.283C25.2849 66.2544 26.2887 65.2038 26.2605 63.9366C26.2315 62.6696 25.1809 61.6654 23.9139 61.6942Z" fill="white"/>
<path d="M28.3314 37.2798L44.2 36.919C44.2572 36.918 44.302 36.8706 44.3006 36.8134C44.2996 36.7564 44.2522 36.7114 44.1954 36.7128L28.3266 37.0732C28.2696 37.0746 28.2242 37.1218 28.2256 37.1788C28.2272 37.2362 28.2744 37.2812 28.3314 37.2798Z" fill="url(#paint18_linear_635_4041)"/>
<path d="M28.3644 38.723L43.1816 38.3864C43.2386 38.3852 43.2834 38.3376 43.2826 38.2808C43.2812 38.2234 43.234 38.1786 43.1766 38.1798L28.3594 38.5166C28.3026 38.518 28.2574 38.5652 28.2588 38.6224C28.2596 38.6796 28.3072 38.7246 28.3644 38.723Z" fill="url(#paint19_linear_635_4041)"/>
<path d="M28.3968 40.1668L35.4708 40.0058C35.5276 40.0046 35.573 39.9572 35.5714 39.9004C35.5704 39.8432 35.5232 39.798 35.466 39.7996L28.3922 39.96C28.335 39.9614 28.2896 40.009 28.291 40.0658C28.2926 40.1226 28.3398 40.1678 28.3968 40.1668Z" fill="url(#paint20_linear_635_4041)"/>
<path d="M36.3266 39.7798C36.2694 39.7812 36.2246 39.8284 36.2256 39.8852C36.227 39.9424 36.2742 39.9874 36.3314 39.9862L40.6334 39.8884C40.6904 39.8872 40.7352 39.8398 40.734 39.7824C40.7328 39.7256 40.6856 39.6804 40.6288 39.682L36.3266 39.7798Z" fill="url(#paint21_linear_635_4041)"/>
<path d="M28.5363 46.266L40.7727 45.988C40.8291 45.9864 40.8747 45.939 40.8731 45.8818C40.8723 45.825 40.8249 45.78 40.7675 45.781L28.5315 46.0596C28.4747 46.0606 28.4293 46.108 28.4307 46.1646C28.4319 46.222 28.4791 46.2674 28.5363 46.266Z" fill="url(#paint22_linear_635_4041)"/>
<path d="M28.5687 47.7093L38.6537 47.4799C38.7107 47.4787 38.7561 47.4313 38.7547 47.3743C38.7535 47.3177 38.7061 47.2723 38.6493 47.2733L28.5639 47.5027C28.5069 47.5041 28.4619 47.5511 28.4629 47.6081C28.4643 47.6651 28.5115 47.7105 28.5687 47.7093Z" fill="url(#paint23_linear_635_4041)"/>
<path d="M28.6017 49.1523L35.6759 48.9917C35.7331 48.9897 35.7777 48.9425 35.7769 48.8857C35.7755 48.8289 35.7281 48.7839 35.6713 48.7849L28.5971 48.9459C28.5399 48.9473 28.4947 48.9943 28.4961 49.0513C28.4973 49.1083 28.5447 49.1535 28.6017 49.1523Z" fill="url(#paint24_linear_635_4041)"/>
<path d="M43.6741 48.7066C43.6731 48.6496 43.6259 48.6042 43.5689 48.6056L36.5307 48.7656C36.4735 48.767 36.4285 48.8138 36.4297 48.8714C36.4309 48.9278 36.4783 48.9734 36.5355 48.972L43.5735 48.812C43.6307 48.811 43.6755 48.7632 43.6741 48.7066Z" fill="url(#paint25_linear_635_4041)"/>
<path d="M39.3731 47.3599C39.3739 47.4167 39.4213 47.4623 39.4785 47.4609L45.2361 47.3299C45.2931 47.3289 45.3383 47.2817 45.3369 47.2245C45.3357 47.1675 45.2883 47.1225 45.2313 47.1239L39.4737 47.2545C39.4167 47.2559 39.3717 47.3027 39.3731 47.3599Z" fill="url(#paint26_linear_635_4041)"/>
<path d="M28.7211 54.401L39.2991 54.1602C39.3559 54.1588 39.4013 54.112 39.3997 54.0548C39.3983 53.9974 39.3511 53.9524 39.2941 53.954L28.7161 54.1944C28.6593 54.1958 28.6141 54.2428 28.6153 54.3C28.6169 54.3568 28.6639 54.4024 28.7211 54.401Z" fill="url(#paint27_linear_635_4041)"/>
<path d="M28.7535 55.8442L43.5705 55.5076C43.6277 55.5058 43.6725 55.4584 43.6715 55.4014C43.6701 55.3446 43.6227 55.2994 43.5659 55.3006L28.7485 55.6376C28.6915 55.6388 28.6463 55.6864 28.6475 55.7434C28.6489 55.8006 28.6963 55.8452 28.7535 55.8442Z" fill="url(#paint28_linear_635_4041)"/>
<path d="M28.7863 57.2871L35.8607 57.1265C35.9175 57.1253 35.9629 57.0775 35.9615 57.0209C35.9601 56.9637 35.9129 56.9187 35.8561 56.9199L28.7815 57.0809C28.7247 57.0821 28.6793 57.1293 28.6807 57.1863C28.6821 57.2431 28.7293 57.2887 28.7863 57.2871Z" fill="url(#paint29_linear_635_4041)"/>
<path d="M40.2775 54.1373L44.5891 54.0401C44.6459 54.0387 44.6911 53.9911 44.6897 53.9343C44.6885 53.8773 44.6415 53.8319 44.5843 53.8335L40.2729 53.9313C40.2159 53.9327 40.1707 53.9797 40.1719 54.0367C40.1733 54.0939 40.2211 54.1391 40.2775 54.1373Z" fill="url(#paint30_linear_635_4041)"/>
<path d="M28.9052 62.5356L35.7116 62.3812C35.7686 62.3794 35.8138 62.3324 35.8124 62.2754C35.8112 62.2182 35.7638 62.173 35.707 62.1746L28.9006 62.3292C28.8436 62.3304 28.7984 62.3776 28.7998 62.4348C28.8008 62.4916 28.8484 62.5366 28.9052 62.5356Z" fill="url(#paint31_linear_635_4041)"/>
<path d="M28.9384 63.9789L39.3438 63.7421C39.4004 63.7409 39.4456 63.6937 39.4444 63.6365C39.4428 63.5799 39.3958 63.5347 39.339 63.5359L28.934 63.7723C28.8768 63.7739 28.832 63.8211 28.833 63.8777C28.8344 63.9351 28.8816 63.9801 28.9384 63.9789Z" fill="url(#paint32_linear_635_4041)"/>
<path d="M35.0841 65.0767L28.9663 65.2157C28.9095 65.2171 28.8641 65.2647 28.8653 65.3213C28.8669 65.3783 28.9139 65.4235 28.9709 65.4223L35.0889 65.2831C35.1463 65.2815 35.1913 65.2347 35.1901 65.1779C35.1885 65.1205 35.1411 65.0755 35.0841 65.0767Z" fill="url(#paint33_linear_635_4041)"/>
<path d="M43.9392 64.8758L36.9008 65.0354C36.8438 65.037 36.7986 65.0842 36.7998 65.1412C36.8014 65.198 36.8486 65.2436 36.9056 65.2422L43.9438 65.082C44.0004 65.0802 44.0456 65.0334 44.0446 64.9764C44.0432 64.919 43.9962 64.8742 43.9392 64.8758Z" fill="url(#paint34_linear_635_4041)"/>
<path d="M45.5692 61.9504L36.8356 62.1488C36.7786 62.1504 36.7332 62.197 36.7344 62.2544C36.736 62.3108 36.7832 62.3566 36.8404 62.3552L45.574 62.1564C45.6306 62.1554 45.6762 62.1084 45.6748 62.051C45.6736 61.9938 45.6262 61.9488 45.5692 61.9504Z" fill="url(#paint35_linear_635_4041)"/>
<path d="M45.602 63.3937L39.8688 63.5237C39.8116 63.5251 39.7662 63.5727 39.7676 63.6293C39.7692 63.6867 39.816 63.7319 39.8732 63.7307L45.6066 63.6003C45.6638 63.5989 45.7088 63.5517 45.7076 63.4945C45.7062 63.4373 45.659 63.3921 45.602 63.3937Z" fill="url(#paint36_linear_635_4041)"/>
<path d="M23.6169 48.9498C23.5027 48.9524 23.3911 48.912 23.3049 48.8366L20.8379 46.6692C20.6483 46.5032 20.6299 46.2142 20.7961 46.025C20.9623 45.8352 21.2513 45.8168 21.4407 45.9832L23.5487 47.8348L26.8721 43.6882C27.0297 43.4912 27.3171 43.46 27.5143 43.6172C27.7111 43.7752 27.7427 44.0626 27.5849 44.2596L23.9627 48.779C23.8845 48.8762 23.7699 48.9378 23.6459 48.9484C23.6365 48.949 23.6263 48.9496 23.6169 48.9498Z" fill="url(#paint37_linear_635_4041)"/>
<path d="M23.4009 39.4686C23.2867 39.4714 23.1751 39.431 23.0891 39.3554L20.6219 37.1884C20.4325 37.0218 20.4141 36.733 20.5803 36.5438C20.7469 36.3542 21.0357 36.3358 21.2251 36.5018L23.3331 38.3536L26.6565 34.207C26.8143 34.01 27.1017 33.9784 27.2985 34.1362C27.4951 34.2942 27.5269 34.5814 27.3693 34.7782L23.7469 39.2978C23.6689 39.395 23.5545 39.4562 23.4303 39.467C23.4209 39.4678 23.4105 39.4684 23.4009 39.4686Z" fill="url(#paint38_linear_635_4041)"/>
<path d="M23.7993 56.9813C23.6851 56.9839 23.5741 56.9435 23.4877 56.8681L21.0205 54.7009C20.8309 54.5345 20.8125 54.2459 20.9785 54.0565C21.1451 53.8669 21.4337 53.8483 21.6231 54.0143L23.7311 55.8663L27.0549 51.7195C27.2125 51.5229 27.4997 51.4915 27.6969 51.6487C27.8933 51.8067 27.9253 52.0941 27.7673 52.2911L24.1451 56.8105C24.0671 56.9075 23.9527 56.9693 23.8283 56.9799C23.8189 56.9805 23.8089 56.9813 23.7993 56.9813Z" fill="url(#paint39_linear_635_4041)"/>
<path d="M23.9774 64.8296C23.8628 64.8326 23.7518 64.7918 23.6656 64.7164L21.1982 62.5494C21.0086 62.3832 20.9902 62.0944 21.1564 61.9048C21.3228 61.715 21.6118 61.697 21.8012 61.8626L23.9094 63.7146L27.2326 59.5684C27.3904 59.3714 27.6778 59.3394 27.8746 59.4974C28.0716 59.655 28.1034 59.9424 27.9458 60.1392L24.3232 64.6588C24.2452 64.756 24.1308 64.8174 24.0062 64.8282C23.9968 64.8292 23.987 64.83 23.9774 64.8296Z" fill="url(#paint40_linear_635_4041)"/>
<path d="M62.684 87.2985C62.3338 87.7209 61.7072 87.7791 61.285 87.4289L37.9608 68.0729C37.5384 67.7221 37.4802 67.0957 37.8306 66.6735L65.183 33.7138C65.5334 33.2914 66.1598 33.233 66.582 33.5834L89.906 52.9398C90.3284 53.2904 90.3866 53.9166 90.0364 54.3388L62.684 87.2985Z" fill="white"/>
<path d="M66.7742 82.1569C66.5022 82.6333 65.8954 82.7993 65.4188 82.5273L39.0932 67.5061C38.6164 67.2341 38.4506 66.6267 38.7226 66.1501L59.9496 28.9496C60.2216 28.4728 60.8286 28.307 61.305 28.5788L87.6304 43.6002C88.1072 43.8722 88.2734 44.479 88.001 44.9558L66.7742 82.1569Z" fill="#D8E5FE"/>
<path d="M59.9669 33.7388L82.8955 46.8218C82.9433 46.8494 83.0041 46.8326 83.0315 46.7846C83.0587 46.7372 83.0421 46.6764 82.9943 46.649L60.0655 33.566C60.0179 33.5388 59.9571 33.5556 59.9299 33.6034C59.9029 33.651 59.9195 33.7114 59.9669 33.7388Z" fill="url(#paint41_linear_635_4041)"/>
<path d="M58.9408 35.5377L73.4556 43.8196C73.5032 43.847 73.564 43.8304 73.5912 43.7826C73.6184 43.7348 73.6018 43.6742 73.554 43.6472L59.039 35.3649C58.9916 35.3375 58.931 35.3543 58.9034 35.4019C58.8766 35.4499 58.8932 35.5103 58.9408 35.5377Z" fill="url(#paint42_linear_635_4041)"/>
<path d="M74.2876 44.0658C74.2398 44.0386 74.1794 44.0552 74.1518 44.1026C74.1246 44.1504 74.141 44.2112 74.1888 44.2384L81.324 48.3094C81.3716 48.3368 81.4324 48.3204 81.4596 48.2726C81.487 48.225 81.4702 48.1642 81.4224 48.137L74.2876 44.0658Z" fill="url(#paint43_linear_635_4041)"/>
<path d="M57.9134 37.3366L78.168 48.8936C78.2158 48.9212 78.2762 48.9046 78.3036 48.8566C78.3308 48.809 78.3144 48.7482 78.2666 48.7212L58.012 37.1636C57.9644 37.1364 57.9034 37.153 57.8764 37.2006C57.8492 37.2486 57.8658 37.3092 57.9134 37.3366Z" fill="url(#paint44_linear_635_4041)"/>
<path d="M56.8873 39.1356L73.6667 48.7098C73.7145 48.7374 73.7749 48.7206 73.8023 48.6728C73.8295 48.6252 73.8129 48.5646 73.7653 48.5374L56.9859 38.9628C56.9381 38.9356 56.8775 38.9522 56.8501 39C56.8227 39.0476 56.8395 39.1082 56.8873 39.1356Z" fill="url(#paint45_linear_635_4041)"/>
<path d="M55.8606 40.9343L76.633 52.7871C76.6808 52.8143 76.7416 52.7979 76.7686 52.7501C76.796 52.7025 76.7796 52.6415 76.7316 52.6145L55.9592 40.7613C55.9116 40.7339 55.8506 40.7507 55.8236 40.7985C55.7964 40.8465 55.8132 40.9069 55.8606 40.9343Z" fill="url(#paint46_linear_635_4041)"/>
<path d="M54.8343 42.7333L72.2119 52.6489C72.2595 52.6763 72.3205 52.6595 72.3477 52.6117C72.3749 52.5639 72.3583 52.5035 72.3105 52.4759L54.9329 42.5609C54.8853 42.5335 54.8247 42.5501 54.7973 42.5977C54.7701 42.6455 54.7867 42.7059 54.8343 42.7333Z" fill="url(#paint47_linear_635_4041)"/>
<path d="M53.8079 44.5322L73.0271 55.4989C73.0749 55.5257 73.1355 55.5093 73.1625 55.4617C73.1899 55.4139 73.1733 55.3535 73.1255 55.3259L53.9061 44.3596C53.8587 44.3324 53.7981 44.3488 53.7709 44.3966C53.7437 44.4442 53.7603 44.5054 53.8079 44.5322Z" fill="url(#paint48_linear_635_4041)"/>
<path d="M52.7818 46.331L68.4048 55.246C68.4526 55.273 68.5132 55.2564 68.5406 55.2088C68.568 55.1612 68.5512 55.1002 68.5036 55.0732L52.8802 46.1586C52.8326 46.1312 52.772 46.1482 52.7446 46.196C52.7174 46.2432 52.7338 46.304 52.7818 46.331Z" fill="url(#paint49_linear_635_4041)"/>
<path d="M69.5969 55.6971C69.5491 55.6695 69.4885 55.6863 69.4613 55.7341C69.4341 55.7817 69.4507 55.8425 69.4985 55.8697L73.1813 57.9707C73.2291 57.9981 73.2895 57.9817 73.3169 57.9339C73.3439 57.8863 73.3275 57.8253 73.2797 57.7983L69.5969 55.6971Z" fill="url(#paint50_linear_635_4041)"/>
<path d="M51.7553 48.1299L73.6685 60.6337C73.7159 60.6611 73.7767 60.6445 73.8039 60.5967C73.8315 60.5491 73.8147 60.4881 73.7667 60.4609L51.8539 47.9573C51.8061 47.9299 51.7455 47.9469 51.7181 47.9943C51.6911 48.0423 51.7075 48.1027 51.7553 48.1299Z" fill="url(#paint51_linear_635_4041)"/>
<path d="M73.7558 62.8396L50.8272 49.7564C50.7796 49.7292 50.719 49.7456 50.6918 49.7934C50.6646 49.8414 50.681 49.9016 50.7288 49.9292L73.6576 63.0122C73.7052 63.0394 73.766 63.023 73.7932 62.9752C73.82 62.9276 73.8036 62.8666 73.7558 62.8396Z" fill="url(#paint52_linear_635_4041)"/>
<path d="M49.7025 51.7278L64.2171 60.0098C64.2649 60.0374 64.3257 60.0206 64.3529 59.9726C64.3803 59.925 64.3637 59.8646 64.3159 59.837L49.8009 51.5552C49.7533 51.5278 49.6927 51.5444 49.6653 51.5922C49.6383 51.64 49.6549 51.701 49.7025 51.7278Z" fill="url(#paint53_linear_635_4041)"/>
<path d="M72.1844 64.3275L65.049 60.2559C65.0016 60.2289 64.9408 60.2453 64.9136 60.2933C64.8862 60.3409 64.9028 60.4015 64.9506 60.4289L72.0858 64.5003C72.1336 64.5273 72.1942 64.5107 72.2216 64.4629C72.2486 64.4153 72.232 64.3547 72.1844 64.3275Z" fill="url(#paint54_linear_635_4041)"/>
<path d="M48.6761 53.5268L68.9307 65.084C68.9783 65.1114 69.0391 65.095 69.0661 65.0472C69.0935 64.9994 69.0769 64.9386 69.0291 64.9116L48.7745 53.3542C48.7269 53.327 48.6661 53.3434 48.6389 53.3912C48.6119 53.4388 48.6285 53.4998 48.6761 53.5268Z" fill="url(#paint55_linear_635_4041)"/>
<path d="M47.6499 55.3257L64.4293 64.9003C64.4769 64.9273 64.5375 64.9109 64.5649 64.8631C64.5919 64.8153 64.5755 64.7547 64.5275 64.7273L47.7483 55.1529C47.7007 55.1255 47.6399 55.1419 47.6129 55.1899C47.5855 55.2377 47.6019 55.2985 47.6499 55.3257Z" fill="url(#paint56_linear_635_4041)"/>
<path d="M46.6223 57.1247L67.3949 68.9775C67.4425 69.0049 67.5031 68.9883 67.5305 68.9403C67.5579 68.8927 67.5413 68.8319 67.4933 68.8047L46.7209 56.9517C46.6733 56.9247 46.6125 56.9411 46.5853 56.9891C46.5583 57.0367 46.5747 57.0971 46.6223 57.1247Z" fill="url(#paint57_linear_635_4041)"/>
<path d="M45.5962 58.9236L62.9738 68.8392C63.0214 68.8662 63.0824 68.8498 63.1092 68.8018C63.1366 68.7546 63.1202 68.6936 63.0722 68.6662L45.6946 58.751C45.647 58.7236 45.5862 58.7402 45.559 58.788C45.5318 58.8356 45.5484 58.8966 45.5962 58.9236Z" fill="url(#paint58_linear_635_4041)"/>
<path d="M44.5697 60.7224L63.7889 71.6886C63.8365 71.716 63.8973 71.6996 63.9245 71.6518C63.9521 71.6042 63.9353 71.5436 63.8875 71.5164L44.6685 60.5496C44.6205 60.5226 44.5599 60.539 44.5327 60.5868C44.5055 60.6346 44.5219 60.6954 44.5697 60.7224Z" fill="url(#paint59_linear_635_4041)"/>
<path d="M43.5431 62.5211L59.1665 71.4357C59.2141 71.4631 59.2747 71.4467 59.3021 71.3987C59.3293 71.3511 59.3129 71.2903 59.2651 71.2631L43.6417 62.3487C43.5941 62.3211 43.5333 62.3375 43.5063 62.3855C43.4791 62.4335 43.4955 62.4939 43.5431 62.5211Z" fill="url(#paint60_linear_635_4041)"/>
<path d="M60.3586 71.8867C60.3108 71.8599 60.2504 71.8763 60.2228 71.9241C60.196 71.9719 60.2124 72.0323 60.26 72.0599L63.9428 74.1611C63.9904 74.1885 64.051 74.1719 64.0784 74.1241C64.1058 74.0765 64.0888 74.0159 64.0412 73.9885L60.3586 71.8867Z" fill="url(#paint61_linear_635_4041)"/>
<path d="M64.5286 76.6511L42.6156 64.1475C42.568 64.1203 42.5074 64.1371 42.48 64.1849C42.4526 64.2325 42.4692 64.2931 42.5172 64.3205L64.43 76.8239C64.4776 76.8515 64.5384 76.8347 64.5656 76.7869C64.5928 76.7387 64.5762 76.6783 64.5286 76.6511Z" fill="url(#paint62_linear_635_4041)"/>
<path d="M67.2042 50.7679C66.9818 51.3533 66.3268 51.6471 65.7414 51.4243L52.8658 46.5267C52.2804 46.3045 51.9864 45.6493 52.2092 45.0639L57.4898 31.1815C57.7122 30.5959 58.3674 30.3023 58.9526 30.5247L71.8284 35.4225C72.4138 35.6453 72.7078 36.3001 72.4848 36.8855L67.2042 50.7679Z" fill="#8FB3FF"/>
<path d="M66.9991 30.1211C66.2481 29.6927 65.2005 29.6901 64.5523 30.4323L65.1933 30.7979C65.6007 30.4469 66.1905 30.4809 66.6457 30.7405C67.2007 31.0572 67.3945 31.766 67.0777 32.3212L64.8689 36.1922C64.5829 36.6932 64.0277 37.0464 63.4311 36.7062C62.8763 36.3894 62.6823 35.6802 62.9989 35.1254L63.9839 33.3988C64.0817 33.2278 64.0221 33.0102 63.8511 32.9124C63.6797 32.8148 63.4625 32.8744 63.3647 33.0456L62.3795 34.772C61.8679 35.6682 62.1811 36.8142 63.0775 37.3258C63.9367 37.8156 64.9505 37.4878 65.4883 36.5458L67.6973 32.6746C68.2089 31.7784 67.8957 30.6329 66.9991 30.1211Z" fill="#1D0C8C"/>
<path d="M57.7267 63.5343H28.0767V59.9651C28.0767 59.3639 27.5895 58.877 26.9883 58.877H11.5337C10.9325 58.877 10.4453 59.3641 10.4453 59.9651V89.7859C10.4453 90.3871 10.9325 90.8743 11.5337 90.8743H16.4487H26.9881H57.7267C58.3279 90.8743 58.8149 90.3871 58.8149 89.7859V64.6227C58.8149 64.0213 58.3279 63.5343 57.7267 63.5343Z" fill="#3652CD"/>
<path d="M60.7906 80.9183L63.026 78.9699L56.1692 71.1903L53.9336 73.1387L60.7906 80.9183Z" fill="#BDD0FB"/>
<path opacity="0.5" d="M55.0514 72.1642L53.9336 73.1388L60.7906 80.9184L61.9084 79.944L55.0514 72.1642Z" fill="#BDD0FB"/>
<path d="M70.9012 94.3963C71.8864 95.5267 73.602 95.6445 74.7328 94.6589C75.8634 93.6735 75.9812 91.9581 74.9958 90.8275L63.4206 77.546C62.4346 76.4152 60.7194 76.2974 59.5888 77.2828C58.458 78.2684 58.3402 79.984 59.3258 81.1146L70.9012 94.3963Z" fill="#1D0C8C"/>
<path d="M35.184 72.3265C40.6786 78.6307 50.243 79.2869 56.547 73.7929C62.851 68.2983 63.5078 58.7342 58.0132 52.43C52.519 46.126 42.9544 45.4694 36.6504 50.9636C30.3462 56.458 29.6898 66.0224 35.184 72.3265ZM38.337 52.8984C43.5724 48.3354 51.5158 48.8808 56.0786 54.1162C60.6416 59.3518 60.0962 67.2951 54.8606 71.8575C49.625 76.4205 41.6818 75.8757 37.1192 70.6399C32.5556 65.4046 33.1014 57.4612 38.337 52.8984Z" fill="#1D0C8C"/>
<path d="M35.628 71.9397C40.909 77.9985 50.1014 78.6297 56.1604 73.3489C62.2198 68.0685 62.8506 58.8759 57.5698 52.8168C52.2894 46.7576 43.0966 46.1266 37.0378 51.4074C30.9784 56.688 30.3472 65.8805 35.628 71.9397ZM38.3372 52.8984C43.5726 48.3354 51.516 48.8808 56.0788 54.1162C60.6418 59.3517 60.0964 67.2951 54.8608 71.8575C49.6252 76.4205 41.682 75.8757 37.1194 70.6399C32.5558 65.4045 33.1016 57.4612 38.3372 52.8984Z" fill="#8199FD"/>
<path opacity="0.7" d="M37.119 70.64C41.6816 75.8758 49.6248 76.4206 54.8604 71.8576C60.096 67.295 60.6412 59.3518 56.0784 54.1162C51.5156 48.8808 43.5722 48.3354 38.3368 52.8984C33.1012 57.4612 32.5554 65.4046 37.119 70.64Z" fill="url(#paint63_linear_635_4041)"/>
<path d="M53.793 70.5817C54.049 70.9183 53.9834 71.3983 53.647 71.6543C51.2434 73.4817 48.2628 74.2967 45.2538 73.9497C44.6622 73.8813 44.0722 73.7667 43.4998 73.6091C43.092 73.4967 42.853 73.0753 42.9652 72.6675C42.9894 72.5789 43.029 72.4975 43.0794 72.4269C43.2608 72.1727 43.588 72.0453 43.9066 72.1331C44.403 72.2701 44.9156 72.3699 45.429 72.4287C48.0432 72.7303 50.633 72.0227 52.7202 70.4355C53.0568 70.1797 53.5372 70.2451 53.793 70.5817Z" fill="white"/>
<path d="M40.7272 70.617C41.0716 70.862 41.1514 71.3402 40.9062 71.6844C40.6608 72.0286 40.183 72.1088 39.8386 71.8634C38.5302 70.931 37.4494 69.766 36.6256 68.401C36.4632 68.1318 36.4864 67.802 36.6578 67.5612C36.7168 67.4784 36.7934 67.406 36.886 67.3504C37.2478 67.1318 37.7184 67.2484 37.9368 67.6106C38.6514 68.7948 39.5902 69.8062 40.7272 70.617Z" fill="white"/>
<path d="M64.9279 62.3865C64.5099 61.7771 67.9191 57.646 68.9287 56.9534L91.6997 41.3294C92.7091 40.6364 95.2175 44.2922 94.2081 44.9854L71.4373 60.6091C70.4275 61.3015 65.3461 62.9957 64.9279 62.3865Z" fill="white"/>
<path d="M68.8555 57.0061C68.9401 57.6343 69.2819 58.3493 69.7717 59.0627C70.2609 59.7763 70.8055 60.3529 71.3609 60.6579C71.3881 60.6411 71.4139 60.6245 71.4365 60.6091L91.8583 46.597C91.8905 45.8884 91.6653 45.0922 91.1747 44.3774C90.6843 43.663 90.0223 43.1658 89.3497 42.9412L68.9283 56.9533C68.9055 56.9689 68.8805 56.9869 68.8555 57.0061Z" fill="#1D0C8C"/>
<path d="M92.3061 43.6014C92.7835 44.2974 93.0331 45.0638 93.0609 45.772L94.2077 44.9854C95.2171 44.2922 92.7087 40.6364 91.6993 41.3294L90.5527 42.116C91.2033 42.397 91.8283 42.9054 92.3061 43.6014Z" fill="#8199FD"/>
<path d="M65.3673 61.1554C65.0039 61.7458 64.8078 62.2118 64.9278 62.3866C65.0482 62.561 65.553 62.5462 66.235 62.4194C66.2422 62.1534 66.1694 61.8822 66.0072 61.646C65.8452 61.4096 65.6187 61.2444 65.3673 61.1554Z" fill="#8199FD"/>
<path d="M91.1756 44.3774C90.6852 43.663 90.0232 43.1658 89.3506 42.9412L68.929 56.9533C68.9064 56.9687 68.8814 56.9869 68.8564 57.0061C68.941 57.6343 69.2828 58.3493 69.7726 59.0627" fill="#3652CD"/>
<defs>
<linearGradient id="paint0_linear_635_4041" x1="37.6102" y1="86.1305" x2="16.0088" y2="86.1305" gradientUnits="userSpaceOnUse">
<stop stop-color="#3652CD"/>
<stop offset="0.9974" stop-color="#5758FF"/>
</linearGradient>
<linearGradient id="paint1_linear_635_4041" x1="12.9038" y1="13.4925" x2="20.7884" y2="10.298" gradientUnits="userSpaceOnUse">
<stop stop-color="#3652CD"/>
<stop offset="0.9974" stop-color="#5758FF"/>
</linearGradient>
<linearGradient id="paint2_linear_635_4041" x1="0.651341" y1="26.5073" x2="33.2088" y2="21.4868" gradientUnits="userSpaceOnUse">
<stop stop-color="#6986D9"/>
<stop offset="1" stop-color="#8FB3FF"/>
</linearGradient>
<linearGradient id="paint3_linear_635_4041" x1="1.45663" y1="31.7309" x2="34.0179" y2="26.7098" gradientUnits="userSpaceOnUse">
<stop stop-color="#6986D9"/>
<stop offset="1" stop-color="#8FB3FF"/>
</linearGradient>
<linearGradient id="paint4_linear_635_4041" x1="1.45695" y1="31.7305" x2="34.0179" y2="26.7094" gradientUnits="userSpaceOnUse">
<stop stop-color="#6986D9"/>
<stop offset="1" stop-color="#8FB3FF"/>
</linearGradient>
<linearGradient id="paint5_linear_635_4041" x1="2.42652" y1="38.0189" x2="34.9874" y2="32.9978" gradientUnits="userSpaceOnUse">
<stop stop-color="#6986D9"/>
<stop offset="1" stop-color="#8FB3FF"/>
</linearGradient>
<linearGradient id="paint6_linear_635_4041" x1="2.96146" y1="41.4884" x2="35.5193" y2="36.4678" gradientUnits="userSpaceOnUse">
<stop stop-color="#6986D9"/>
<stop offset="1" stop-color="#8FB3FF"/>
</linearGradient>
<linearGradient id="paint7_linear_635_4041" x1="2.9614" y1="41.4881" x2="35.5223" y2="36.4671" gradientUnits="userSpaceOnUse">
<stop stop-color="#6986D9"/>
<stop offset="1" stop-color="#8FB3FF"/>
</linearGradient>
<linearGradient id="paint8_linear_635_4041" x1="3.75334" y1="46.6193" x2="36.3142" y2="41.5982" gradientUnits="userSpaceOnUse">
<stop stop-color="#6986D9"/>
<stop offset="1" stop-color="#8FB3FF"/>
</linearGradient>
<linearGradient id="paint9_linear_635_4041" x1="3.75255" y1="46.619" x2="36.3138" y2="41.5979" gradientUnits="userSpaceOnUse">
<stop stop-color="#6986D9"/>
<stop offset="1" stop-color="#8FB3FF"/>
</linearGradient>
<linearGradient id="paint10_linear_635_4041" x1="4.28866" y1="50.0887" x2="36.8496" y2="45.0677" gradientUnits="userSpaceOnUse">
<stop stop-color="#6986D9"/>
<stop offset="1" stop-color="#8FB3FF"/>
</linearGradient>
<linearGradient id="paint11_linear_635_4041" x1="5.07947" y1="55.2196" x2="37.6407" y2="50.1986" gradientUnits="userSpaceOnUse">
<stop stop-color="#6986D9"/>
<stop offset="1" stop-color="#8FB3FF"/>
</linearGradient>
<linearGradient id="paint12_linear_635_4041" x1="5.07878" y1="55.2194" x2="37.6403" y2="50.1982" gradientUnits="userSpaceOnUse">
<stop stop-color="#6986D9"/>
<stop offset="1" stop-color="#8FB3FF"/>
</linearGradient>
<linearGradient id="paint13_linear_635_4041" x1="5.61489" y1="58.6892" x2="38.1763" y2="53.6681" gradientUnits="userSpaceOnUse">
<stop stop-color="#6986D9"/>
<stop offset="1" stop-color="#8FB3FF"/>
</linearGradient>
<linearGradient id="paint14_linear_635_4041" x1="35.3026" y1="49.4846" x2="31.2697" y2="23.3318" gradientUnits="userSpaceOnUse">
<stop stop-color="#6986D9"/>
<stop offset="1" stop-color="#8FB3FF"/>
</linearGradient>
<linearGradient id="paint15_linear_635_4041" x1="35.3032" y1="49.4846" x2="31.2703" y2="23.3314" gradientUnits="userSpaceOnUse">
<stop stop-color="#6986D9"/>
<stop offset="1" stop-color="#8FB3FF"/>
</linearGradient>
<linearGradient id="paint16_linear_635_4041" x1="35.3029" y1="49.4838" x2="31.2702" y2="23.3322" gradientUnits="userSpaceOnUse">
<stop stop-color="#6986D9"/>
<stop offset="1" stop-color="#8FB3FF"/>
</linearGradient>
<linearGradient id="paint17_linear_635_4041" x1="35.3035" y1="49.4839" x2="31.2705" y2="23.3307" gradientUnits="userSpaceOnUse">
<stop stop-color="#6986D9"/>
<stop offset="1" stop-color="#8FB3FF"/>
</linearGradient>
<linearGradient id="paint18_linear_635_4041" x1="49.7772" y1="34.8977" x2="12.081" y2="40.7512" gradientUnits="userSpaceOnUse">
<stop stop-color="#6986D9"/>
<stop offset="1" stop-color="#8FB3FF"/>
</linearGradient>
<linearGradient id="paint19_linear_635_4041" x1="49.9869" y1="36.2442" x2="12.2896" y2="42.0978" gradientUnits="userSpaceOnUse">
<stop stop-color="#6986D9"/>
<stop offset="1" stop-color="#8FB3FF"/>
</linearGradient>
<linearGradient id="paint20_linear_635_4041" x1="50.128" y1="37.1573" x2="12.4315" y2="43.0108" gradientUnits="userSpaceOnUse">
<stop stop-color="#6986D9"/>
<stop offset="1" stop-color="#8FB3FF"/>
</linearGradient>
<linearGradient id="paint21_linear_635_4041" x1="50.2601" y1="38.005" x2="12.5631" y2="43.8586" gradientUnits="userSpaceOnUse">
<stop stop-color="#6986D9"/>
<stop offset="1" stop-color="#8FB3FF"/>
</linearGradient>
<linearGradient id="paint22_linear_635_4041" x1="51.1089" y1="43.4683" x2="13.4126" y2="49.3218" gradientUnits="userSpaceOnUse">
<stop stop-color="#6986D9"/>
<stop offset="1" stop-color="#8FB3FF"/>
</linearGradient>
<linearGradient id="paint23_linear_635_4041" x1="51.3067" y1="44.7431" x2="13.61" y2="50.5967" gradientUnits="userSpaceOnUse">
<stop stop-color="#6986D9"/>
<stop offset="1" stop-color="#8FB3FF"/>
</linearGradient>
<linearGradient id="paint24_linear_635_4041" x1="51.4974" y1="45.9625" x2="13.7988" y2="51.8164" gradientUnits="userSpaceOnUse">
<stop stop-color="#6986D9"/>
<stop offset="1" stop-color="#8FB3FF"/>
</linearGradient>
<linearGradient id="paint25_linear_635_4041" x1="51.6543" y1="46.9873" x2="13.9585" y2="52.8407" gradientUnits="userSpaceOnUse">
<stop stop-color="#6986D9"/>
<stop offset="1" stop-color="#8FB3FF"/>
</linearGradient>
<linearGradient id="paint26_linear_635_4041" x1="51.4816" y1="45.8751" x2="13.7871" y2="51.7283" gradientUnits="userSpaceOnUse">
<stop stop-color="#6986D9"/>
<stop offset="1" stop-color="#8FB3FF"/>
</linearGradient>
<linearGradient id="paint27_linear_635_4041" x1="52.3302" y1="51.3321" x2="14.6334" y2="57.1856" gradientUnits="userSpaceOnUse">
<stop stop-color="#6986D9"/>
<stop offset="1" stop-color="#8FB3FF"/>
</linearGradient>
<linearGradient id="paint28_linear_635_4041" x1="52.5923" y1="53.0209" x2="14.895" y2="58.8745" gradientUnits="userSpaceOnUse">
<stop stop-color="#6986D9"/>
<stop offset="1" stop-color="#8FB3FF"/>
</linearGradient>
<linearGradient id="paint29_linear_635_4041" x1="52.7344" y1="53.934" x2="15.0372" y2="59.7876" gradientUnits="userSpaceOnUse">
<stop stop-color="#6986D9"/>
<stop offset="1" stop-color="#8FB3FF"/>
</linearGradient>
<linearGradient id="paint30_linear_635_4041" x1="52.499" y1="52.4224" x2="14.8014" y2="58.276" gradientUnits="userSpaceOnUse">
<stop stop-color="#6986D9"/>
<stop offset="1" stop-color="#8FB3FF"/>
</linearGradient>
<linearGradient id="paint31_linear_635_4041" x1="53.5297" y1="59.0595" x2="15.8331" y2="64.913" gradientUnits="userSpaceOnUse">
<stop stop-color="#6986D9"/>
<stop offset="1" stop-color="#8FB3FF"/>
</linearGradient>
<linearGradient id="paint32_linear_635_4041" x1="53.7859" y1="60.7065" x2="16.0892" y2="66.5601" gradientUnits="userSpaceOnUse">
<stop stop-color="#6986D9"/>
<stop offset="1" stop-color="#8FB3FF"/>
</linearGradient>
<linearGradient id="paint33_linear_635_4041" x1="53.9629" y1="61.8432" x2="16.2647" y2="67.697" gradientUnits="userSpaceOnUse">
<stop stop-color="#6986D9"/>
<stop offset="1" stop-color="#8FB3FF"/>
</linearGradient>
<linearGradient id="paint34_linear_635_4041" x1="54.1314" y1="62.9298" x2="16.434" y2="68.7835" gradientUnits="userSpaceOnUse">
<stop stop-color="#6986D9"/>
<stop offset="1" stop-color="#8FB3FF"/>
</linearGradient>
<linearGradient id="paint35_linear_635_4041" x1="53.7094" y1="60.2109" x2="16.0121" y2="66.0645" gradientUnits="userSpaceOnUse">
<stop stop-color="#6986D9"/>
<stop offset="1" stop-color="#8FB3FF"/>
</linearGradient>
<linearGradient id="paint36_linear_635_4041" x1="53.9589" y1="61.8196" x2="16.2628" y2="67.673" gradientUnits="userSpaceOnUse">
<stop stop-color="#6986D9"/>
<stop offset="1" stop-color="#8FB3FF"/>
</linearGradient>
<linearGradient id="paint37_linear_635_4041" x1="20.6828" y1="46.3409" x2="27.7357" y2="46.1807" gradientUnits="userSpaceOnUse">
<stop stop-color="#6986D9"/>
<stop offset="1" stop-color="#8FB3FF"/>
</linearGradient>
<linearGradient id="paint38_linear_635_4041" x1="20.467" y1="36.8597" x2="27.5198" y2="36.6996" gradientUnits="userSpaceOnUse">
<stop stop-color="#6986D9"/>
<stop offset="1" stop-color="#8FB3FF"/>
</linearGradient>
<linearGradient id="paint39_linear_635_4041" x1="20.8655" y1="54.3726" x2="27.9182" y2="54.2124" gradientUnits="userSpaceOnUse">
<stop stop-color="#6986D9"/>
<stop offset="1" stop-color="#8FB3FF"/>
</linearGradient>
<linearGradient id="paint40_linear_635_4041" x1="21.0432" y1="62.221" x2="28.0962" y2="62.0608" gradientUnits="userSpaceOnUse">
<stop stop-color="#6986D9"/>
<stop offset="1" stop-color="#8FB3FF"/>
</linearGradient>
<linearGradient id="paint41_linear_635_4041" x1="72.0138" y1="33.8051" x2="68.3686" y2="77.4932" gradientUnits="userSpaceOnUse">
<stop stop-color="#8FB3FF"/>
<stop offset="1" stop-color="#6986D9"/>
</linearGradient>
<linearGradient id="paint42_linear_635_4041" x1="66.7669" y1="33.3673" x2="63.1218" y2="77.0539" gradientUnits="userSpaceOnUse">
<stop stop-color="#8FB3FF"/>
<stop offset="1" stop-color="#6986D9"/>
</linearGradient>
<linearGradient id="paint43_linear_635_4041" x1="78.7917" y1="34.3711" x2="75.1467" y2="78.0565" gradientUnits="userSpaceOnUse">
<stop stop-color="#8FB3FF"/>
<stop offset="1" stop-color="#6986D9"/>
</linearGradient>
<linearGradient id="paint44_linear_635_4041" x1="68.8815" y1="33.5437" x2="65.2364" y2="77.2308" gradientUnits="userSpaceOnUse">
<stop stop-color="#8FB3FF"/>
<stop offset="1" stop-color="#6986D9"/>
</linearGradient>
<linearGradient id="paint45_linear_635_4041" x1="66.2036" y1="33.3202" x2="62.5585" y2="77.0073" gradientUnits="userSpaceOnUse">
<stop stop-color="#8FB3FF"/>
<stop offset="1" stop-color="#6986D9"/>
</linearGradient>
<linearGradient id="paint46_linear_635_4041" x1="67.4104" y1="33.4204" x2="63.7652" y2="77.1085" gradientUnits="userSpaceOnUse">
<stop stop-color="#8FB3FF"/>
<stop offset="1" stop-color="#6986D9"/>
</linearGradient>
<linearGradient id="paint47_linear_635_4041" x1="64.7742" y1="33.201" x2="61.1292" y2="76.8876" gradientUnits="userSpaceOnUse">
<stop stop-color="#8FB3FF"/>
<stop offset="1" stop-color="#6986D9"/>
</linearGradient>
<linearGradient id="paint48_linear_635_4041" x1="64.8619" y1="33.208" x2="61.2168" y2="76.8952" gradientUnits="userSpaceOnUse">
<stop stop-color="#8FB3FF"/>
<stop offset="1" stop-color="#6986D9"/>
</linearGradient>
<linearGradient id="paint49_linear_635_4041" x1="62.1214" y1="32.9793" x2="58.4762" y2="76.6667" gradientUnits="userSpaceOnUse">
<stop stop-color="#8FB3FF"/>
<stop offset="1" stop-color="#6986D9"/>
</linearGradient>
<linearGradient id="paint50_linear_635_4041" x1="73.3013" y1="33.9144" x2="69.6566" y2="77.597" gradientUnits="userSpaceOnUse">
<stop stop-color="#8FB3FF"/>
<stop offset="1" stop-color="#6986D9"/>
</linearGradient>
<linearGradient id="paint51_linear_635_4041" x1="64.523" y1="33.1793" x2="60.8778" y2="76.8672" gradientUnits="userSpaceOnUse">
<stop stop-color="#8FB3FF"/>
<stop offset="1" stop-color="#6986D9"/>
</linearGradient>
<linearGradient id="paint52_linear_635_4041" x1="64.1809" y1="33.1508" x2="60.5358" y2="76.8383" gradientUnits="userSpaceOnUse">
<stop stop-color="#8FB3FF"/>
<stop offset="1" stop-color="#6986D9"/>
</linearGradient>
<linearGradient id="paint53_linear_635_4041" x1="58.934" y1="32.7129" x2="55.2889" y2="76.4003" gradientUnits="userSpaceOnUse">
<stop stop-color="#8FB3FF"/>
<stop offset="1" stop-color="#6986D9"/>
</linearGradient>
<linearGradient id="paint54_linear_635_4041" x1="70.9591" y1="33.7149" x2="67.3138" y2="77.4044" gradientUnits="userSpaceOnUse">
<stop stop-color="#8FB3FF"/>
<stop offset="1" stop-color="#6986D9"/>
</linearGradient>
<linearGradient id="paint55_linear_635_4041" x1="61.0495" y1="32.8899" x2="57.4045" y2="76.5763" gradientUnits="userSpaceOnUse">
<stop stop-color="#8FB3FF"/>
<stop offset="1" stop-color="#6986D9"/>
</linearGradient>
<linearGradient id="paint56_linear_635_4041" x1="58.3718" y1="32.6651" x2="54.7266" y2="76.3532" gradientUnits="userSpaceOnUse">
<stop stop-color="#8FB3FF"/>
<stop offset="1" stop-color="#6986D9"/>
</linearGradient>
<linearGradient id="paint57_linear_635_4041" x1="59.5777" y1="32.7662" x2="55.9326" y2="76.4537" gradientUnits="userSpaceOnUse">
<stop stop-color="#8FB3FF"/>
<stop offset="1" stop-color="#6986D9"/>
</linearGradient>
<linearGradient id="paint58_linear_635_4041" x1="56.9413" y1="32.547" x2="53.2963" y2="76.2336" gradientUnits="userSpaceOnUse">
<stop stop-color="#8FB3FF"/>
<stop offset="1" stop-color="#6986D9"/>
</linearGradient>
<linearGradient id="paint59_linear_635_4041" x1="57.0293" y1="32.5532" x2="53.3841" y2="76.241" gradientUnits="userSpaceOnUse">
<stop stop-color="#8FB3FF"/>
<stop offset="1" stop-color="#6986D9"/>
</linearGradient>
<linearGradient id="paint60_linear_635_4041" x1="54.2883" y1="32.3252" x2="50.6432" y2="76.012" gradientUnits="userSpaceOnUse">
<stop stop-color="#8FB3FF"/>
<stop offset="1" stop-color="#6986D9"/>
</linearGradient>
<linearGradient id="paint61_linear_635_4041" x1="65.469" y1="33.2549" x2="61.8236" y2="76.9452" gradientUnits="userSpaceOnUse">
<stop stop-color="#8FB3FF"/>
<stop offset="1" stop-color="#6986D9"/>
</linearGradient>
<linearGradient id="paint62_linear_635_4041" x1="56.6901" y1="32.5239" x2="53.0449" y2="76.2126" gradientUnits="userSpaceOnUse">
<stop stop-color="#8FB3FF"/>
<stop offset="1" stop-color="#6986D9"/>
</linearGradient>
<linearGradient id="paint63_linear_635_4041" x1="28.6303" y1="56.8958" x2="62.2867" y2="67.1648" gradientUnits="userSpaceOnUse">
<stop offset="0.0148" stop-color="white"/>
<stop offset="0.9994" stop-color="#E1E7FF"/>
</linearGradient>
</defs>
</svg>
